STARTFONT 2.1
FONT -HP-Mincho-Bold-R-Normal--14-101-100-100-C-140-JISX0208.1990-0
SIZE 10 100 100
FONTBOUNDINGBOX 14 14 0 -2

STARTPROPERTIES 23
FONTNAME_REGISTRY ""
FOUNDRY "HP"
FAMILY_NAME "Mincho"
WEIGHT_NAME "Bold"
SLANT "R"
SETWIDTH_NAME "Normal"
ADD_STYLE_NAME ""
PIXEL_SIZE 14
POINT_SIZE 101
RESOLUTION_X 100
RESOLUTION_Y 100
SPACING "C"
AVERAGE_WIDTH 140
CHARSET_REGISTRY "JISX0208.1990"
CHARSET_ENCODING "0"
COPYRIGHT "Copyright (c) 1994 Hewlett-Packard Company. Copyright 1994 by Bridge Inc."
_HP_ASXVERSION "@(#) ASX 3.00 $Revision: 13.9 $ minB14k"
WEIGHT 10
X_HEIGHT 12
QUAD_WIDTH 14
DEFAULT_CHAR 8751
FONT_DESCENT 2
FONT_ASCENT 12
ENDPROPERTIES

CHARS 6963

STARTCHAR jisx0208_2121
ENCODING 8481
SWIDTH 960 0
DWIDTH 14 0
BBX 14 14 0 -2
BITMAP
0000
0000
0000
0000
0000
0000
0000
0000
0000
0000
0000
0000
0000
0000
ENDCHAR

STARTCHAR jisx0208_2122
ENCODING 8482
SWIDTH 960 0
DWIDTH 14 0
BBX 14 14 0 -2
BITMAP
0000
0000
0000
0000
0000
0000
0000
0000
0000
0000
3000
1C00
0C00
0000
ENDCHAR

STARTCHAR jisx0208_2123
ENCODING 8483
SWIDTH 960 0
DWIDTH 14 0
BBX 14 14 0 -2
BITMAP
0000
0000
0000
0000
0000
0000
0000
0000
0000
1C00
3600
3600
1C00
0000
ENDCHAR

STARTCHAR jisx0208_2124
ENCODING 8484
SWIDTH 960 0
DWIDTH 14 0
BBX 14 14 0 -2
BITMAP
0000
0000
0000
0000
0000
0000
0000
0000
0000
0000
3800
1800
3000
0000
ENDCHAR

STARTCHAR jisx0208_2125
ENCODING 8485
SWIDTH 960 0
DWIDTH 14 0
BBX 14 14 0 -2
BITMAP
0000
0000
0000
0000
0000
0000
0000
0000
0000
0000
3000
3000
0000
0000
ENDCHAR

STARTCHAR jisx0208_2126
ENCODING 8486
SWIDTH 960 0
DWIDTH 14 0
BBX 14 14 0 -2
BITMAP
0000
0000
0000
0000
0000
0000
0380
0380
0000
0000
0000
0000
0000
0000
ENDCHAR

STARTCHAR jisx0208_2127
ENCODING 8487
SWIDTH 960 0
DWIDTH 14 0
BBX 14 14 0 -2
BITMAP
0000
0000
0000
0000
0380
0000
0000
0000
0000
0380
0000
0000
0000
0000
ENDCHAR

STARTCHAR jisx0208_2128
ENCODING 8488
SWIDTH 960 0
DWIDTH 14 0
BBX 14 14 0 -2
BITMAP
0000
0000
0000
0000
0380
0000
0000
0000
0000
0380
0180
0300
0000
0000
ENDCHAR

STARTCHAR jisx0208_2129
ENCODING 8489
SWIDTH 960 0
DWIDTH 14 0
BBX 14 14 0 -2
BITMAP
0000
0000
07C0
0C60
0E60
00C0
0180
0300
0300
0000
0000
0380
0000
0000
ENDCHAR

STARTCHAR jisx0208_212A
ENCODING 8490
SWIDTH 960 0
DWIDTH 14 0
BBX 14 14 0 -2
BITMAP
0000
0000
0300
0300
0300
0300
0300
0300
0000
0000
0000
0380
0000
0000
ENDCHAR

STARTCHAR jisx0208_212B
ENCODING 8491
SWIDTH 960 0
DWIDTH 14 0
BBX 14 14 0 -2
BITMAP
0000
5800
5800
0000
0000
0000
0000
0000
0000
0000
0000
0000
0000
0000
ENDCHAR

STARTCHAR jisx0208_212C
ENCODING 8492
SWIDTH 960 0
DWIDTH 14 0
BBX 14 14 0 -2
BITMAP
0000
0000
3000
5800
3000
0000
0000
0000
0000
0000
0000
0000
0000
0000
ENDCHAR

STARTCHAR jisx0208_212D
ENCODING 8493
SWIDTH 960 0
DWIDTH 14 0
BBX 14 14 0 -2
BITMAP
0000
01C0
0700
0000
0000
0000
0000
0000
0000
0000
0000
0000
0000
0000
ENDCHAR

STARTCHAR jisx0208_212E
ENCODING 8494
SWIDTH 960 0
DWIDTH 14 0
BBX 14 14 0 -2
BITMAP
0000
0700
01C0
0000
0000
0000
0000
0000
0000
0000
0000
0000
0000
0000
ENDCHAR

STARTCHAR jisx0208_212F
ENCODING 8495
SWIDTH 960 0
DWIDTH 14 0
BBX 14 14 0 -2
BITMAP
0000
0CC0
0CC0
0000
0000
0000
0000
0000
0000
0000
0000
0000
0000
0000
ENDCHAR

STARTCHAR jisx0208_2130
ENCODING 8496
SWIDTH 960 0
DWIDTH 14 0
BBX 14 14 0 -2
BITMAP
0000
0380
06C0
0000
0000
0000
0000
0000
0000
0000
0000
0000
0000
0000
ENDCHAR

STARTCHAR jisx0208_2131
ENCODING 8497
SWIDTH 960 0
DWIDTH 14 0
BBX 14 14 0 -2
BITMAP
0000
7FFC
0000
0000
0000
0000
0000
0000
0000
0000
0000
0000
0000
0000
ENDCHAR

STARTCHAR jisx0208_2132
ENCODING 8498
SWIDTH 960 0
DWIDTH 14 0
BBX 14 14 0 -2
BITMAP
0000
0000
0000
0000
0000
0000
0000
0000
0000
0000
0000
0000
7FFC
0000
ENDCHAR

STARTCHAR jisx0208_2133
ENCODING 8499
SWIDTH 960 0
DWIDTH 14 0
BBX 14 14 0 -2
BITMAP
0000
0000
0000
0000
0C00
0600
0300
0180
00C0
00C0
0000
0000
0000
0000
ENDCHAR

STARTCHAR jisx0208_2134
ENCODING 8500
SWIDTH 960 0
DWIDTH 14 0
BBX 14 14 0 -2
BITMAP
0000
0000
0000
00B0
0CB0
0600
0300
0180
00C0
00C0
0000
0000
0000
0000
ENDCHAR

STARTCHAR jisx0208_2135
ENCODING 8501
SWIDTH 960 0
DWIDTH 14 0
BBX 14 14 0 -2
BITMAP
0000
0000
0000
0000
0C00
0600
0300
0180
00C0
03C0
00C0
0000
0000
0000
ENDCHAR

STARTCHAR jisx0208_2136
ENCODING 8502
SWIDTH 960 0
DWIDTH 14 0
BBX 14 14 0 -2
BITMAP
0000
0000
0000
00B0
0CB0
0600
0300
0180
00C0
03C0
00C0
0000
0000
0000
ENDCHAR

STARTCHAR jisx0208_2137
ENCODING 8503
SWIDTH 960 0
DWIDTH 14 0
BBX 14 14 0 -2
BITMAP
0000
0000
0000
0000
06E0
06C0
06C0
0D80
0D80
1B00
0000
0000
0000
0000
ENDCHAR

STARTCHAR jisx0208_2138
ENCODING 8504
SWIDTH 960 0
DWIDTH 14 0
BBX 14 14 0 -2
BITMAP
0000
0380
0380
06C0
0C60
1830
705C
1FF0
0300
0300
0300
0318
7FFC
0000
ENDCHAR

STARTCHAR jisx0208_2139
ENCODING 8505
SWIDTH 960 0
DWIDTH 14 0
BBX 14 14 0 -2
BITMAP
0000
0700
0600
0630
0FF8
0C30
1830
3060
06C0
0380
01C0
00C0
0000
0000
ENDCHAR

STARTCHAR jisx0208_213A
ENCODING 8506
SWIDTH 960 0
DWIDTH 14 0
BBX 14 14 0 -2
BITMAP
0000
0000
0030
0018
0030
0F60
19C0
1960
3330
3600
2C00
3800
0000
0000
ENDCHAR

STARTCHAR jisx0208_213B
ENCODING 8507
SWIDTH 960 0
DWIDTH 14 0
BBX 14 14 0 -2
BITMAP
0000
0000
0FC0
3870
3030
6018
6018
6018
6018
6018
3030
3870
0FC0
0000
ENDCHAR

STARTCHAR jisx0208_213C
ENCODING 8508
SWIDTH 960 0
DWIDTH 14 0
BBX 14 14 0 -2
BITMAP
0000
0000
0000
0000
0000
0000
3030
1FF8
0000
0000
0000
0000
0000
0000
ENDCHAR

STARTCHAR jisx0208_213D
ENCODING 8509
SWIDTH 960 0
DWIDTH 14 0
BBX 14 14 0 -2
BITMAP
0000
0000
0000
0000
0000
0000
7FFC
0000
0000
0000
0000
0000
0000
0000
ENDCHAR

STARTCHAR jisx0208_213E
ENCODING 8510
SWIDTH 960 0
DWIDTH 14 0
BBX 14 14 0 -2
BITMAP
0000
0000
0000
0000
0000
0000
0780
0000
0000
0000
0000
0000
0000
0000
ENDCHAR

STARTCHAR jisx0208_213F
ENCODING 8511
SWIDTH 960 0
DWIDTH 14 0
BBX 14 14 0 -2
BITMAP
0000
000C
0018
0030
0060
00C0
0180
0300
0600
0C00
1800
3000
6000
0000
ENDCHAR

STARTCHAR jisx0208_2140
ENCODING 8512
SWIDTH 960 0
DWIDTH 14 0
BBX 14 14 0 -2
BITMAP
0000
6000
3000
1800
0C00
0600
0300
0180
00C0
0060
0030
0018
000C
0000
ENDCHAR

STARTCHAR jisx0208_2141
ENCODING 8513
SWIDTH 960 0
DWIDTH 14 0
BBX 14 14 0 -2
BITMAP
0000
0000
0000
0000
0000
1E0C
3398
60F0
0000
0000
0000
0000
0000
0000
ENDCHAR

STARTCHAR jisx0208_2142
ENCODING 8514
SWIDTH 960 0
DWIDTH 14 0
BBX 14 14 0 -2
BITMAP
0000
0CC0
0CC0
0CC0
0CC0
0CC0
0CC0
0CC0
0CC0
0CC0
0CC0
0CC0
0CC0
0000
ENDCHAR

STARTCHAR jisx0208_2143
ENCODING 8515
SWIDTH 960 0
DWIDTH 14 0
BBX 14 14 0 -2
BITMAP
0000
0300
0300
0300
0300
0300
0300
0300
0300
0300
0300
0300
0300
0000
ENDCHAR

STARTCHAR jisx0208_2144
ENCODING 8516
SWIDTH 960 0
DWIDTH 14 0
BBX 14 14 0 -2
BITMAP
0000
0000
0000
0000
0000
0000
3330
3330
0000
0000
0000
0000
0000
0000
ENDCHAR

STARTCHAR jisx0208_2145
ENCODING 8517
SWIDTH 960 0
DWIDTH 14 0
BBX 14 14 0 -2
BITMAP
0000
0000
0000
0000
0000
0000
1860
1860
0000
0000
0000
0000
0000
0000
ENDCHAR

STARTCHAR jisx0208_2146
ENCODING 8518
SWIDTH 960 0
DWIDTH 14 0
BBX 14 14 0 -2
BITMAP
0000
0018
0030
0038
0000
0000
0000
0000
0000
0000
0000
0000
0000
0000
ENDCHAR

STARTCHAR jisx0208_2147
ENCODING 8519
SWIDTH 960 0
DWIDTH 14 0
BBX 14 14 0 -2
BITMAP
0000
3800
1800
3000
0000
0000
0000
0000
0000
0000
0000
0000
0000
0000
ENDCHAR

STARTCHAR jisx0208_2148
ENCODING 8520
SWIDTH 960 0
DWIDTH 14 0
BBX 14 14 0 -2
BITMAP
0000
00D8
01B0
01B8
0000
0000
0000
0000
0000
0000
0000
0000
0000
0000
ENDCHAR

STARTCHAR jisx0208_2149
ENCODING 8521
SWIDTH 960 0
DWIDTH 14 0
BBX 14 14 0 -2
BITMAP
0000
3700
1B00
3600
0000
0000
0000
0000
0000
0000
0000
0000
0000
0000
ENDCHAR

STARTCHAR jisx0208_214A
ENCODING 8522
SWIDTH 960 0
DWIDTH 14 0
BBX 14 14 0 -2
BITMAP
0000
0018
0030
0030
0060
0060
0060
0060
0060
0060
0030
0030
0018
0000
ENDCHAR

STARTCHAR jisx0208_214B
ENCODING 8523
SWIDTH 960 0
DWIDTH 14 0
BBX 14 14 0 -2
BITMAP
0000
3000
1800
1800
0C00
0C00
0C00
0C00
0C00
0C00
1800
1800
3000
0000
ENDCHAR

STARTCHAR jisx0208_214C
ENCODING 8524
SWIDTH 960 0
DWIDTH 14 0
BBX 14 14 0 -2
BITMAP
0000
0018
0070
0060
0060
0060
0060
0060
0060
0060
0060
0070
0018
0000
ENDCHAR

STARTCHAR jisx0208_214D
ENCODING 8525
SWIDTH 960 0
DWIDTH 14 0
BBX 14 14 0 -2
BITMAP
0000
3000
1C00
0C00
0C00
0C00
0C00
0C00
0C00
0C00
0C00
1C00
3000
0000
ENDCHAR

STARTCHAR jisx0208_214E
ENCODING 8526
SWIDTH 960 0
DWIDTH 14 0
BBX 14 14 0 -2
BITMAP
0000
0078
0060
0060
0060
0060
0060
0060
0060
0060
0060
0060
0078
0000
ENDCHAR

STARTCHAR jisx0208_214F
ENCODING 8527
SWIDTH 960 0
DWIDTH 14 0
BBX 14 14 0 -2
BITMAP
0000
3C00
0C00
0C00
0C00
0C00
0C00
0C00
0C00
0C00
0C00
0C00
3C00
0000
ENDCHAR

STARTCHAR jisx0208_2150
ENCODING 8528
SWIDTH 960 0
DWIDTH 14 0
BBX 14 14 0 -2
BITMAP
0000
0038
0060
0060
0060
0060
00C0
0060
0060
0060
0060
0060
0038
0000
ENDCHAR

STARTCHAR jisx0208_2151
ENCODING 8529
SWIDTH 960 0
DWIDTH 14 0
BBX 14 14 0 -2
BITMAP
0000
3800
0C00
0C00
0C00
0C00
0600
0C00
0C00
0C00
0C00
0C00
3800
0000
ENDCHAR

STARTCHAR jisx0208_2152
ENCODING 8530
SWIDTH 960 0
DWIDTH 14 0
BBX 14 14 0 -2
BITMAP
0000
0018
0018
0030
0030
0060
0060
0060
0060
0030
0030
0018
0018
0000
ENDCHAR

STARTCHAR jisx0208_2153
ENCODING 8531
SWIDTH 960 0
DWIDTH 14 0
BBX 14 14 0 -2
BITMAP
0000
3000
3000
1800
1800
0C00
0C00
0C00
0C00
1800
1800
3000
3000
0000
ENDCHAR

STARTCHAR jisx0208_2154
ENCODING 8532
SWIDTH 960 0
DWIDTH 14 0
BBX 14 14 0 -2
BITMAP
0000
0058
0058
00B0
00B0
0160
0160
0160
0160
00B0
00B0
0058
0058
0000
ENDCHAR

STARTCHAR jisx0208_2155
ENCODING 8533
SWIDTH 960 0
DWIDTH 14 0
BBX 14 14 0 -2
BITMAP
0000
2C00
2C00
1600
1600
0B00
0B00
0B00
0B00
1600
1600
2C00
2C00
0000
ENDCHAR

STARTCHAR jisx0208_2156
ENCODING 8534
SWIDTH 960 0
DWIDTH 14 0
BBX 14 14 0 -2
BITMAP
0000
00F8
00C0
00C0
00C0
00C0
00C0
00C0
00C0
00C0
00C0
00C0
00C0
0000
ENDCHAR

STARTCHAR jisx0208_2157
ENCODING 8535
SWIDTH 960 0
DWIDTH 14 0
BBX 14 14 0 -2
BITMAP
0000
0600
0600
0600
0600
0600
0600
0600
0600
0600
0600
0600
3E00
0000
ENDCHAR

STARTCHAR jisx0208_2158
ENCODING 8536
SWIDTH 960 0
DWIDTH 14 0
BBX 14 14 0 -2
BITMAP
0000
00F8
00D8
00B8
00B0
00B0
00B0
00B0
00B0
00B0
00B0
00B0
00F0
0000
ENDCHAR

STARTCHAR jisx0208_2159
ENCODING 8537
SWIDTH 960 0
DWIDTH 14 0
BBX 14 14 0 -2
BITMAP
0000
1E00
1600
1600
1600
1600
1600
1600
1600
1600
3600
3600
3E00
0000
ENDCHAR

STARTCHAR jisx0208_215A
ENCODING 8538
SWIDTH 960 0
DWIDTH 14 0
BBX 14 14 0 -2
BITMAP
0000
0078
0070
0070
0060
0060
0060
0060
0060
0060
0070
0070
0078
0000
ENDCHAR

STARTCHAR jisx0208_215B
ENCODING 8539
SWIDTH 960 0
DWIDTH 14 0
BBX 14 14 0 -2
BITMAP
0000
3C00
1C00
1C00
0C00
0C00
0C00
0C00
0C00
0C00
1C00
1C00
3C00
0000
ENDCHAR

STARTCHAR jisx0208_215C
ENCODING 8540
SWIDTH 960 0
DWIDTH 14 0
BBX 14 14 0 -2
BITMAP
0000
0000
0300
0300
0300
0300
3FF0
0300
0300
0300
0300
0000
0000
0000
ENDCHAR

STARTCHAR jisx0208_215D
ENCODING 8541
SWIDTH 960 0
DWIDTH 14 0
BBX 14 14 0 -2
BITMAP
0000
0000
0000
0000
0000
0000
3FF0
0000
0000
0000
0000
0000
0000
0000
ENDCHAR

STARTCHAR jisx0208_215E
ENCODING 8542
SWIDTH 960 0
DWIDTH 14 0
BBX 14 14 0 -2
BITMAP
0000
0000
0300
0300
0300
3FF0
0300
0300
0300
0000
3FF0
0000
0000
0000
ENDCHAR

STARTCHAR jisx0208_215F
ENCODING 8543
SWIDTH 960 0
DWIDTH 14 0
BBX 14 14 0 -2
BITMAP
0000
0000
0000
1860
0CC0
0580
0300
0580
0CC0
1860
0000
0000
0000
0000
ENDCHAR

STARTCHAR jisx0208_2160
ENCODING 8544
SWIDTH 960 0
DWIDTH 14 0
BBX 14 14 0 -2
BITMAP
0000
0000
0000
0380
0000
0000
3FF8
0000
0000
0380
0000
0000
0000
0000
ENDCHAR

STARTCHAR jisx0208_2161
ENCODING 8545
SWIDTH 960 0
DWIDTH 14 0
BBX 14 14 0 -2
BITMAP
0000
0000
0000
0000
0000
3FF0
0000
0000
3FF0
0000
0000
0000
0000
0000
ENDCHAR

STARTCHAR jisx0208_2162
ENCODING 8546
SWIDTH 960 0
DWIDTH 14 0
BBX 14 14 0 -2
BITMAP
0000
0000
0000
00C0
00C0
3FF0
0300
0300
3FF0
0C00
0C00
0000
0000
0000
ENDCHAR

STARTCHAR jisx0208_2163
ENCODING 8547
SWIDTH 960 0
DWIDTH 14 0
BBX 14 14 0 -2
BITMAP
0000
0000
0000
0070
01C0
0700
1C00
1C00
0700
01C0
0070
0000
0000
0000
ENDCHAR

STARTCHAR jisx0208_2164
ENCODING 8548
SWIDTH 960 0
DWIDTH 14 0
BBX 14 14 0 -2
BITMAP
0000
0000
0000
1C00
0700
01C0
0070
0070
01C0
0700
1C00
0000
0000
0000
ENDCHAR

STARTCHAR jisx0208_2165
ENCODING 8549
SWIDTH 960 0
DWIDTH 14 0
BBX 14 14 0 -2
BITMAP
0000
0000
00F0
0780
3C00
0780
00F0
0000
3FF0
0000
3FF0
0000
0000
0000
ENDCHAR

STARTCHAR jisx0208_2166
ENCODING 8550
SWIDTH 960 0
DWIDTH 14 0
BBX 14 14 0 -2
BITMAP
0000
0000
3C00
0780
00F0
0780
3C00
0000
3FF0
0000
3FF0
0000
0000
0000
ENDCHAR

STARTCHAR jisx0208_2167
ENCODING 8551
SWIDTH 960 0
DWIDTH 14 0
BBX 14 14 0 -2
BITMAP
0000
0000
0000
0000
3C78
66CC
638C
638C
66CC
3C78
0000
0000
0000
0000
ENDCHAR

STARTCHAR jisx0208_2168
ENCODING 8552
SWIDTH 960 0
DWIDTH 14 0
BBX 14 14 0 -2
BITMAP
0000
0000
0000
0300
0300
0000
0000
0000
0000
3030
3030
0000
0000
0000
ENDCHAR

STARTCHAR jisx0208_2169
ENCODING 8553
SWIDTH 960 0
DWIDTH 14 0
BBX 14 14 0 -2
BITMAP
0000
0000
01F8
0038
0058
00D8
1F98
3180
3180
3180
3180
1F00
0000
0000
ENDCHAR

STARTCHAR jisx0208_216A
ENCODING 8554
SWIDTH 960 0
DWIDTH 14 0
BBX 14 14 0 -2
BITMAP
0000
0000
07C0
0C60
0C60
0C60
0C60
07C0
0300
1FF0
0300
0300
0000
0000
ENDCHAR

STARTCHAR jisx0208_216B
ENCODING 8555
SWIDTH 960 0
DWIDTH 14 0
BBX 14 14 0 -2
BITMAP
0000
3000
5800
3000
0000
0000
0000
0000
0000
0000
0000
0000
0000
0000
ENDCHAR

STARTCHAR jisx0208_216C
ENCODING 8556
SWIDTH 960 0
DWIDTH 14 0
BBX 14 14 0 -2
BITMAP
0000
3000
3000
6000
0000
0000
0000
0000
0000
0000
0000
0000
0000
0000
ENDCHAR

STARTCHAR jisx0208_216D
ENCODING 8557
SWIDTH 960 0
DWIDTH 14 0
BBX 14 14 0 -2
BITMAP
0000
2C00
2C00
5800
0000
0000
0000
0000
0000
0000
0000
0000
0000
0000
ENDCHAR

STARTCHAR jisx0208_216E
ENCODING 8558
SWIDTH 960 0
DWIDTH 14 0
BBX 14 14 0 -2
BITMAP
0000
3000
5BD8
3638
0C18
0C18
0C00
0C00
0C00
0C18
0630
03E0
0000
0000
ENDCHAR

STARTCHAR jisx0208_216F
ENCODING 8559
SWIDTH 960 0
DWIDTH 14 0
BBX 14 14 0 -2
BITMAP
0000
0000
3CF0
1860
0CC0
0CC0
3DF0
0580
3FF0
0300
0300
0780
0000
0000
ENDCHAR

STARTCHAR jisx0208_2170
ENCODING 8560
SWIDTH 960 0
DWIDTH 14 0
BBX 14 14 0 -2
BITMAP
0000
0300
0F60
1AE0
1B60
1B60
0F00
03C0
1B60
1B60
1B60
17C0
0300
0000
ENDCHAR

STARTCHAR jisx0208_2171
ENCODING 8561
SWIDTH 960 0
DWIDTH 14 0
BBX 14 14 0 -2
BITMAP
0000
0000
0000
0000
00C0
07C0
0D60
0D60
0D80
0B00
0B60
07C0
0600
0000
ENDCHAR

STARTCHAR jisx0208_2172
ENCODING 8562
SWIDTH 960 0
DWIDTH 14 0
BBX 14 14 0 -2
BITMAP
0000
0000
03E0
0630
0670
0600
1FF0
0300
0300
1F00
3318
1DF0
0000
0000
ENDCHAR

STARTCHAR jisx0208_2173
ENCODING 8563
SWIDTH 960 0
DWIDTH 14 0
BBX 14 14 0 -2
BITMAP
0000
0000
1C30
3660
36C0
36C0
1D80
0370
06D8
06D8
0CD8
1870
0000
0000
ENDCHAR

STARTCHAR jisx0208_2174
ENCODING 8564
SWIDTH 960 0
DWIDTH 14 0
BBX 14 14 0 -2
BITMAP
0000
0000
0660
0660
1FF8
0CC0
0CC0
0CC0
3FF0
0CC0
0CC0
0CC0
0000
0000
ENDCHAR

STARTCHAR jisx0208_2175
ENCODING 8565
SWIDTH 960 0
DWIDTH 14 0
BBX 14 14 0 -2
BITMAP
0000
0000
0700
0D80
0D80
0700
0600
0AF0
1960
18C0
18D8
0FB0
0000
0000
ENDCHAR

STARTCHAR jisx0208_2176
ENCODING 8566
SWIDTH 960 0
DWIDTH 14 0
BBX 14 14 0 -2
BITMAP
0000
0000
0000
0300
1B60
0AC0
0780
0AC0
1B60
0300
0000
0000
0000
0000
ENDCHAR

STARTCHAR jisx0208_2177
ENCODING 8567
SWIDTH 960 0
DWIDTH 14 0
BBX 14 14 0 -2
BITMAP
0000
0000
0FE0
1830
37D8
2CD8
2CD8
2CD8
2CD8
3770
1800
0FE0
0000
0000
ENDCHAR

STARTCHAR jisx0208_2178
ENCODING 8568
SWIDTH 960 0
DWIDTH 14 0
BBX 14 14 0 -2
BITMAP
0000
0780
0CC0
0DC0
0600
0B80
0CC0
0CC0
06C0
0180
0EC0
0CC0
0780
0000
ENDCHAR

STARTCHAR jisx0208_2179
ENCODING 8569
SWIDTH 960 0
DWIDTH 14 0
BBX 14 14 0 -2
BITMAP
0000
0380
0380
0380
06C0
7EFC
3018
1830
0C60
0B60
16B0
1C70
1830
0000
ENDCHAR

STARTCHAR jisx0208_217A
ENCODING 8570
SWIDTH 960 0
DWIDTH 14 0
BBX 14 14 0 -2
BITMAP
0000
0380
0380
0380
07C0
7FFC
3FF8
1FF0
0FE0
0FE0
1EF0
1C70
1830
0000
ENDCHAR

STARTCHAR jisx0208_217B
ENCODING 8571
SWIDTH 960 0
DWIDTH 14 0
BBX 14 14 0 -2
BITMAP
0000
0FC0
3870
3030
6018
6018
6018
6018
6018
3030
3870
0FC0
0000
0000
ENDCHAR

STARTCHAR jisx0208_217C
ENCODING 8572
SWIDTH 960 0
DWIDTH 14 0
BBX 14 14 0 -2
BITMAP
0000
0FC0
3FF0
3FF0
7FF8
7FF8
7FF8
7FF8
7FF8
3FF0
3FF0
0FC0
0000
0000
ENDCHAR

STARTCHAR jisx0208_217D
ENCODING 8573
SWIDTH 960 0
DWIDTH 14 0
BBX 14 14 0 -2
BITMAP
0000
0FC0
3870
3030
6798
6CD8
6CD8
6CD8
6798
3030
3870
0FC0
0000
0000
ENDCHAR

STARTCHAR jisx0208_217E
ENCODING 8574
SWIDTH 960 0
DWIDTH 14 0
BBX 14 14 0 -2
BITMAP
0000
0380
06C0
0C60
1830
3018
600C
600C
3018
1830
0C60
06C0
0380
0000
ENDCHAR

STARTCHAR jisx0208_2221
ENCODING 8737
SWIDTH 960 0
DWIDTH 14 0
BBX 14 14 0 -2
BITMAP
0000
0380
07C0
0FE0
1FF0
3FF8
7FFC
7FFC
3FF8
1FF0
0FE0
07C0
0380
0000
ENDCHAR

STARTCHAR jisx0208_2222
ENCODING 8738
SWIDTH 960 0
DWIDTH 14 0
BBX 14 14 0 -2
BITMAP
0000
0000
3FF8
3018
3018
3018
3018
3018
3018
3018
3018
3FF8
0000
0000
ENDCHAR

STARTCHAR jisx0208_2223
ENCODING 8739
SWIDTH 960 0
DWIDTH 14 0
BBX 14 14 0 -2
BITMAP
0000
0000
3FF8
3FF8
3FF8
3FF8
3FF8
3FF8
3FF8
3FF8
3FF8
3FF8
0000
0000
ENDCHAR

STARTCHAR jisx0208_2224
ENCODING 8740
SWIDTH 960 0
DWIDTH 14 0
BBX 14 14 0 -2
BITMAP
0000
0000
0380
0380
06C0
06C0
0C60
1830
1830
3018
7FFC
0000
0000
0000
ENDCHAR

STARTCHAR jisx0208_2225
ENCODING 8741
SWIDTH 960 0
DWIDTH 14 0
BBX 14 14 0 -2
BITMAP
0000
0000
0380
0380
07C0
07C0
0FE0
1FF0
1FF0
3FF8
7FFC
0000
0000
0000
ENDCHAR

STARTCHAR jisx0208_2226
ENCODING 8742
SWIDTH 960 0
DWIDTH 14 0
BBX 14 14 0 -2
BITMAP
0000
0000
0000
7FFC
3018
1830
1830
0C60
06C0
06C0
0380
0380
0000
0000
ENDCHAR

STARTCHAR jisx0208_2227
ENCODING 8743
SWIDTH 960 0
DWIDTH 14 0
BBX 14 14 0 -2
BITMAP
0000
0000
0000
7FFC
3FF8
1FF0
1FF0
0FE0
07C0
07C0
0380
0380
0000
0000
ENDCHAR

STARTCHAR jisx0208_2228
ENCODING 8744
SWIDTH 960 0
DWIDTH 14 0
BBX 14 14 0 -2
BITMAP
0000
0000
3398
1BB0
0C60
06C0
3BB8
3BB8
06C0
0C60
1BB0
3398
0000
0000
ENDCHAR

STARTCHAR jisx0208_2229
ENCODING 8745
SWIDTH 960 0
DWIDTH 14 0
BBX 14 14 0 -2
BITMAP
0000
0000
3FF8
3FF8
0000
3FF8
3FF8
0380
0380
0380
0380
0380
0000
0000
ENDCHAR

STARTCHAR jisx0208_222A
ENCODING 8746
SWIDTH 960 0
DWIDTH 14 0
BBX 14 14 0 -2
BITMAP
0000
0000
0000
0000
0030
0018
7FFC
0018
0030
0000
0000
0000
0000
0000
ENDCHAR

STARTCHAR jisx0208_222B
ENCODING 8747
SWIDTH 960 0
DWIDTH 14 0
BBX 14 14 0 -2
BITMAP
0000
0000
0000
0000
1800
3000
7FFC
3000
1800
0000
0000
0000
0000
0000
ENDCHAR

STARTCHAR jisx0208_222C
ENCODING 8748
SWIDTH 960 0
DWIDTH 14 0
BBX 14 14 0 -2
BITMAP
0000
0300
0780
0AC0
0300
0300
0300
0300
0300
0300
0300
0300
0300
0000
ENDCHAR

STARTCHAR jisx0208_222D
ENCODING 8749
SWIDTH 960 0
DWIDTH 14 0
BBX 14 14 0 -2
BITMAP
0000
0300
0300
0300
0300
0300
0300
0300
0300
0300
0AC0
0780
0300
0000
ENDCHAR

STARTCHAR jisx0208_222E
ENCODING 8750
SWIDTH 960 0
DWIDTH 14 0
BBX 14 14 0 -2
BITMAP
0000
0000
0000
0000
1FF0
1FF0
0000
0000
1FF0
1FF0
0000
0000
0000
0000
ENDCHAR

STARTCHAR jisx0208_222F
ENCODING 8751
SWIDTH 960 0
DWIDTH 14 0
BBX 14 14 0 -2
BITMAP
0000
600C
0000
0000
0000
0000
0000
0000
0000
0000
0000
0000
600C
0000
ENDCHAR

STARTCHAR jisx0208_223A
ENCODING 8762
SWIDTH 960 0
DWIDTH 14 0
BBX 14 14 0 -2
BITMAP
0000
0000
0000
0FF0
1800
3000
3FF0
3000
1800
0FF0
0000
0000
0000
0000
ENDCHAR

STARTCHAR jisx0208_223B
ENCODING 8763
SWIDTH 960 0
DWIDTH 14 0
BBX 14 14 0 -2
BITMAP
0000
0000
0000
1FE0
0030
0018
1FF8
0018
0030
1FE0
0000
0000
0000
0000
ENDCHAR

STARTCHAR jisx0208_223C
ENCODING 8764
SWIDTH 960 0
DWIDTH 14 0
BBX 14 14 0 -2
BITMAP
0000
0000
0000
0FF0
1800
3000
3000
1800
0FF0
0000
3FF0
0000
0000
0000
ENDCHAR

STARTCHAR jisx0208_223D
ENCODING 8765
SWIDTH 960 0
DWIDTH 14 0
BBX 14 14 0 -2
BITMAP
0000
0000
0000
1FE0
0030
0018
0018
0030
1FE0
0000
1FF8
0000
0000
0000
ENDCHAR

STARTCHAR jisx0208_223E
ENCODING 8766
SWIDTH 960 0
DWIDTH 14 0
BBX 14 14 0 -2
BITMAP
0000
0000
0000
0FF0
1800
3000
3000
3000
1800
0FF0
0000
0000
0000
0000
ENDCHAR

STARTCHAR jisx0208_223F
ENCODING 8767
SWIDTH 960 0
DWIDTH 14 0
BBX 14 14 0 -2
BITMAP
0000
0000
0000
1FE0
0030
0018
0018
0018
0030
1FE0
0000
0000
0000
0000
ENDCHAR

STARTCHAR jisx0208_2240
ENCODING 8768
SWIDTH 960 0
DWIDTH 14 0
BBX 14 14 0 -2
BITMAP
0000
0000
1860
1860
1860
1860
1860
1860
1860
0CC0
0780
0000
0000
0000
ENDCHAR

STARTCHAR jisx0208_2241
ENCODING 8769
SWIDTH 960 0
DWIDTH 14 0
BBX 14 14 0 -2
BITMAP
0000
0000
0780
0CC0
1860
1860
1860
1860
1860
1860
1860
0000
0000
0000
ENDCHAR

STARTCHAR jisx0208_224A
ENCODING 8778
SWIDTH 960 0
DWIDTH 14 0
BBX 14 14 0 -2
BITMAP
0000
0000
0000
0380
0380
06C0
06C0
0C60
0C60
1830
1830
0000
0000
0000
ENDCHAR

STARTCHAR jisx0208_224B
ENCODING 8779
SWIDTH 960 0
DWIDTH 14 0
BBX 14 14 0 -2
BITMAP
0000
0000
0000
1830
1830
0C60
0C60
06C0
06C0
0380
0380
0000
0000
0000
ENDCHAR

STARTCHAR jisx0208_224C
ENCODING 8780
SWIDTH 960 0
DWIDTH 14 0
BBX 14 14 0 -2
BITMAP
0000
0000
0000
0000
0000
3FF8
0018
0018
0018
0000
0000
0000
0000
0000
ENDCHAR

STARTCHAR jisx0208_224D
ENCODING 8781
SWIDTH 960 0
DWIDTH 14 0
BBX 14 14 0 -2
BITMAP
0000
0000
0000
0060
0030
7FF8
000C
000C
7FF8
0030
0060
0000
0000
0000
ENDCHAR

STARTCHAR jisx0208_224E
ENCODING 8782
SWIDTH 960 0
DWIDTH 14 0
BBX 14 14 0 -2
BITMAP
0000
0000
0000
0C60
1830
3FF8
600C
600C
3FF8
1830
0C60
0000
0000
0000
ENDCHAR

STARTCHAR jisx0208_224F
ENCODING 8783
SWIDTH 960 0
DWIDTH 14 0
BBX 14 14 0 -2
BITMAP
0000
0000
0000
1830
1830
0FE0
0C60
06C0
06C0
0380
0380
0000
0000
0000
ENDCHAR

STARTCHAR jisx0208_2250
ENCODING 8784
SWIDTH 960 0
DWIDTH 14 0
BBX 14 14 0 -2
BITMAP
0000
0000
1FE0
0060
0060
0060
1FE0
0060
0060
0060
1FE0
0000
0000
0000
ENDCHAR

STARTCHAR jisx0208_225C
ENCODING 8796
SWIDTH 960 0
DWIDTH 14 0
BBX 14 14 0 -2
BITMAP
0000
0000
0030
0060
00C0
0180
0300
0600
0C00
1800
3FF0
0000
0000
0000
ENDCHAR

STARTCHAR jisx0208_225D
ENCODING 8797
SWIDTH 960 0
DWIDTH 14 0
BBX 14 14 0 -2
BITMAP
0000
0000
0300
0300
0300
0300
0300
0300
0300
0300
3FF0
0000
0000
0000
ENDCHAR

STARTCHAR jisx0208_225E
ENCODING 8798
SWIDTH 960 0
DWIDTH 14 0
BBX 14 14 0 -2
BITMAP
0000
0FE0
3838
600C
0000
0000
0000
0000
0000
0000
0000
0000
0000
0000
ENDCHAR

STARTCHAR jisx0208_225F
ENCODING 8799
SWIDTH 960 0
DWIDTH 14 0
BBX 14 14 0 -2
BITMAP
0000
0000
07C0
0C60
0060
03E0
0660
0C60
0C60
0C60
0CC0
0780
0000
0000
ENDCHAR

STARTCHAR jisx0208_2260
ENCODING 8800
SWIDTH 960 0
DWIDTH 14 0
BBX 14 14 0 -2
BITMAP
0000
0000
0000
3FF8
3FF8
1C30
0C60
0E60
06C0
0380
0380
0000
0000
0000
ENDCHAR

STARTCHAR jisx0208_2261
ENCODING 8801
SWIDTH 960 0
DWIDTH 14 0
BBX 14 14 0 -2
BITMAP
0000
0000
0000
3FF0
0000
0000
3FF0
0000
0000
3FF0
0000
0000
0000
0000
ENDCHAR

STARTCHAR jisx0208_2262
ENCODING 8802
SWIDTH 960 0
DWIDTH 14 0
BBX 14 14 0 -2
BITMAP
0000
0000
0000
1C00
0000
3FF0
0000
0000
3FF0
0000
00E0
0000
0000
0000
ENDCHAR

STARTCHAR jisx0208_2263
ENCODING 8803
SWIDTH 960 0
DWIDTH 14 0
BBX 14 14 0 -2
BITMAP
0000
0000
01B0
0360
06C0
0D80
1B00
1B00
0D80
06C0
0360
01B0
0000
0000
ENDCHAR

STARTCHAR jisx0208_2264
ENCODING 8804
SWIDTH 960 0
DWIDTH 14 0
BBX 14 14 0 -2
BITMAP
0000
0000
1B00
0D80
06C0
0360
01B0
01B0
0360
06C0
0D80
1B00
0000
0000
ENDCHAR

STARTCHAR jisx0208_2265
ENCODING 8805
SWIDTH 960 0
DWIDTH 14 0
BBX 14 14 0 -2
BITMAP
0000
01FC
0180
0180
0300
0300
0300
1600
3600
6E00
0C00
0C00
0000
0000
ENDCHAR

STARTCHAR jisx0208_2266
ENCODING 8806
SWIDTH 960 0
DWIDTH 14 0
BBX 14 14 0 -2
BITMAP
0000
0000
0000
0000
3C78
66CC
618C
630C
66CC
3C78
0000
0000
0000
0000
ENDCHAR

STARTCHAR jisx0208_2267
ENCODING 8807
SWIDTH 960 0
DWIDTH 14 0
BBX 14 14 0 -2
BITMAP
0000
0000
0000
0000
3CF0
6598
6300
6300
6598
3CF0
0000
0000
0000
0000
ENDCHAR

STARTCHAR jisx0208_2268
ENCODING 8808
SWIDTH 960 0
DWIDTH 14 0
BBX 14 14 0 -2
BITMAP
0000
0000
0000
3030
3030
0000
0000
0000
0000
0300
0300
0000
0000
0000
ENDCHAR

STARTCHAR jisx0208_2269
ENCODING 8809
SWIDTH 960 0
DWIDTH 14 0
BBX 14 14 0 -2
BITMAP
0000
01C0
0360
02E0
0300
0300
0300
0180
0180
0180
0D80
0D80
0700
0000
ENDCHAR

STARTCHAR jisx0208_226A
ENCODING 8810
SWIDTH 960 0
DWIDTH 14 0
BBX 14 14 0 -2
BITMAP
0000
0770
0DD8
0BB8
0CC0
0CC0
0CC0
0660
0660
0660
3760
3760
1DC0
0000
ENDCHAR

STARTCHAR jisx0208_2272
ENCODING 8818
SWIDTH 960 0
DWIDTH 14 0
BBX 14 14 0 -2
BITMAP
0000
0380
06C0
06C0
0380
0380
06C0
06C0
0C60
0FE0
1830
3C78
0000
0000
ENDCHAR

STARTCHAR jisx0208_2273
ENCODING 8819
SWIDTH 960 0
DWIDTH 14 0
BBX 14 14 0 -2
BITMAP
0000
0000
3180
5980
5B00
5600
3600
0D98
0AAC
1AAC
32AC
3198
0000
0000
ENDCHAR

STARTCHAR jisx0208_2274
ENCODING 8820
SWIDTH 960 0
DWIDTH 14 0
BBX 14 14 0 -2
BITMAP
0000
00C0
06C0
06F0
07C0
1EC0
06C0
06F0
07C0
1EC0
06C0
0600
0000
0000
ENDCHAR

STARTCHAR jisx0208_2275
ENCODING 8821
SWIDTH 960 0
DWIDTH 14 0
BBX 14 14 0 -2
BITMAP
0000
0600
0600
0600
0600
07C0
0660
0660
0660
06C0
0580
0700
0000
0000
ENDCHAR

STARTCHAR jisx0208_2276
ENCODING 8822
SWIDTH 960 0
DWIDTH 14 0
BBX 14 14 0 -2
BITMAP
0000
0300
0380
02C0
0360
0330
0330
0360
02C0
0700
0F00
0E00
0000
0000
ENDCHAR

STARTCHAR jisx0208_2277
ENCODING 8823
SWIDTH 960 0
DWIDTH 14 0
BBX 14 14 0 -2
BITMAP
0000
0300
0300
0FC0
0300
0780
0300
0300
0300
0300
0300
0300
0780
0000
ENDCHAR

STARTCHAR jisx0208_2278
ENCODING 8824
SWIDTH 960 0
DWIDTH 14 0
BBX 14 14 0 -2
BITMAP
0000
0300
0300
0FC0
0300
0780
0300
0300
0780
0300
0FC0
0300
0300
0000
ENDCHAR

STARTCHAR jisx0208_2279
ENCODING 8825
SWIDTH 960 0
DWIDTH 14 0
BBX 14 14 0 -2
BITMAP
0000
07E0
0EC0
0EC0
0EC0
0EC0
06C0
02C0
02C0
02C0
02C0
02C0
02C0
0000
ENDCHAR

STARTCHAR jisx0208_227E
ENCODING 8830
SWIDTH 960 0
DWIDTH 14 0
BBX 14 14 0 -2
BITMAP
0000
0FE0
3838
3018
600C
600C
600C
600C
600C
600C
3018
3838
0FE0
0000
ENDCHAR

STARTCHAR jisx0208_2330
ENCODING 9008
SWIDTH 960 0
DWIDTH 14 0
BBX 14 14 0 -2
BITMAP
0000
0000
0FC0
1860
1860
1860
1860
1860
1860
1860
1860
0FC0
0000
0000
ENDCHAR

STARTCHAR jisx0208_2331
ENCODING 9009
SWIDTH 960 0
DWIDTH 14 0
BBX 14 14 0 -2
BITMAP
0000
0000
0300
0700
0B00
0300
0300
0300
0300
0300
0300
0FC0
0000
0000
ENDCHAR

STARTCHAR jisx0208_2332
ENCODING 9010
SWIDTH 960 0
DWIDTH 14 0
BBX 14 14 0 -2
BITMAP
0000
0000
0FC0
1860
1C60
0060
00C0
0380
0600
0C60
1860
1FE0
0000
0000
ENDCHAR

STARTCHAR jisx0208_2333
ENCODING 9011
SWIDTH 960 0
DWIDTH 14 0
BBX 14 14 0 -2
BITMAP
0000
0000
0FC0
1860
1C60
0060
07C0
0060
1C60
1860
1860
0FC0
0000
0000
ENDCHAR

STARTCHAR jisx0208_2334
ENCODING 9012
SWIDTH 960 0
DWIDTH 14 0
BBX 14 14 0 -2
BITMAP
0000
0000
00C0
01C0
02C0
06C0
06C0
0CC0
18B0
3FF0
00C0
01E0
0000
0000
ENDCHAR

STARTCHAR jisx0208_2335
ENCODING 9013
SWIDTH 960 0
DWIDTH 14 0
BBX 14 14 0 -2
BITMAP
0000
0000
1FE0
1800
1800
1800
1FC0
1860
0060
1C60
1860
0FC0
0000
0000
ENDCHAR

STARTCHAR jisx0208_2336
ENCODING 9014
SWIDTH 960 0
DWIDTH 14 0
BBX 14 14 0 -2
BITMAP
0000
0000
0FC0
1860
18E0
1800
1FC0
1860
1860
1860
1860
0FC0
0000
0000
ENDCHAR

STARTCHAR jisx0208_2337
ENCODING 9015
SWIDTH 960 0
DWIDTH 14 0
BBX 14 14 0 -2
BITMAP
0000
0000
1FE0
1860
18C0
00C0
0180
0180
0300
0300
0300
0300
0000
0000
ENDCHAR

STARTCHAR jisx0208_2338
ENCODING 9016
SWIDTH 960 0
DWIDTH 14 0
BBX 14 14 0 -2
BITMAP
0000
0000
0FC0
1860
1860
1860
0FC0
1860
1860
1860
1860
0FC0
0000
0000
ENDCHAR

STARTCHAR jisx0208_2339
ENCODING 9017
SWIDTH 960 0
DWIDTH 14 0
BBX 14 14 0 -2
BITMAP
0000
0000
0FC0
1860
1860
1860
1860
0FE0
0060
1C60
1860
0FC0
0000
0000
ENDCHAR

STARTCHAR jisx0208_2341
ENCODING 9025
SWIDTH 960 0
DWIDTH 14 0
BBX 14 14 0 -2
BITMAP
0000
0000
0380
0380
06C0
06C0
06C0
0C60
0C60
1FF0
1830
3C78
0000
0000
ENDCHAR

STARTCHAR jisx0208_2342
ENCODING 9026
SWIDTH 960 0
DWIDTH 14 0
BBX 14 14 0 -2
BITMAP
0000
0000
1FC0
0C60
0C60
0C60
0FE0
0C30
0C30
0C30
0C30
1FE0
0000
0000
ENDCHAR

STARTCHAR jisx0208_2343
ENCODING 9027
SWIDTH 960 0
DWIDTH 14 0
BBX 14 14 0 -2
BITMAP
0000
0000
07B0
0C70
1830
1830
1800
1800
1800
1830
0C60
07C0
0000
0000
ENDCHAR

STARTCHAR jisx0208_2344
ENCODING 9028
SWIDTH 960 0
DWIDTH 14 0
BBX 14 14 0 -2
BITMAP
0000
0000
1FC0
0C60
0C30
0C30
0C30
0C30
0C30
0C30
0C60
1FC0
0000
0000
ENDCHAR

STARTCHAR jisx0208_2345
ENCODING 9029
SWIDTH 960 0
DWIDTH 14 0
BBX 14 14 0 -2
BITMAP
0000
0000
1FF0
0C30
0C30
0CC0
0FC0
0CC0
0C00
0C30
0C30
1FF0
0000
0000
ENDCHAR

STARTCHAR jisx0208_2346
ENCODING 9030
SWIDTH 960 0
DWIDTH 14 0
BBX 14 14 0 -2
BITMAP
0000
0000
1FF0
0C30
0C30
0CC0
0FC0
0CC0
0C00
0C00
0C00
1E00
0000
0000
ENDCHAR

STARTCHAR jisx0208_2347
ENCODING 9031
SWIDTH 960 0
DWIDTH 14 0
BBX 14 14 0 -2
BITMAP
0000
0000
07B0
0C70
1830
1830
1800
19F8
1830
1830
0C70
07B0
0000
0000
ENDCHAR

STARTCHAR jisx0208_2348
ENCODING 9032
SWIDTH 960 0
DWIDTH 14 0
BBX 14 14 0 -2
BITMAP
0000
0000
3CF0
1860
1860
1860
1FE0
1860
1860
1860
1860
3CF0
0000
0000
ENDCHAR

STARTCHAR jisx0208_2349
ENCODING 9033
SWIDTH 960 0
DWIDTH 14 0
BBX 14 14 0 -2
BITMAP
0000
0000
0780
0300
0300
0300
0300
0300
0300
0300
0300
0780
0000
0000
ENDCHAR

STARTCHAR jisx0208_234A
ENCODING 9034
SWIDTH 960 0
DWIDTH 14 0
BBX 14 14 0 -2
BITMAP
0000
0000
01E0
00C0
00C0
00C0
00C0
00C0
00C0
0EC0
0CC0
0780
0000
0000
ENDCHAR

STARTCHAR jisx0208_234B
ENCODING 9035
SWIDTH 960 0
DWIDTH 14 0
BBX 14 14 0 -2
BITMAP
0000
0000
1EF0
0C60
0CC0
0D80
0B00
0D80
0CC0
0C60
0C30
1E78
0000
0000
ENDCHAR

STARTCHAR jisx0208_234C
ENCODING 9036
SWIDTH 960 0
DWIDTH 14 0
BBX 14 14 0 -2
BITMAP
0000
0000
1E00
0C00
0C00
0C00
0C00
0C00
0C00
0C30
0C30
1FF0
0000
0000
ENDCHAR

STARTCHAR jisx0208_234D
ENCODING 9037
SWIDTH 960 0
DWIDTH 14 0
BBX 14 14 0 -2
BITMAP
0000
0000
7878
3870
3870
2CB0
2CB0
35B0
35B0
35B0
3330
7B78
0000
0000
ENDCHAR

STARTCHAR jisx0208_234E
ENCODING 9038
SWIDTH 960 0
DWIDTH 14 0
BBX 14 14 0 -2
BITMAP
0000
0000
3CF0
1C60
1660
1660
1B60
1960
1960
18E0
18E0
3C60
0000
0000
ENDCHAR

STARTCHAR jisx0208_234F
ENCODING 9039
SWIDTH 960 0
DWIDTH 14 0
BBX 14 14 0 -2
BITMAP
0000
0000
07C0
0C60
1830
1830
1830
1830
1830
1830
0C60
07C0
0000
0000
ENDCHAR

STARTCHAR jisx0208_2350
ENCODING 9040
SWIDTH 960 0
DWIDTH 14 0
BBX 14 14 0 -2
BITMAP
0000
0000
1FC0
0C60
0C30
0C30
0C60
0FC0
0C00
0C00
0C00
1E00
0000
0000
ENDCHAR

STARTCHAR jisx0208_2351
ENCODING 9041
SWIDTH 960 0
DWIDTH 14 0
BBX 14 14 0 -2
BITMAP
0000
0000
07C0
0C60
1830
1830
1830
1830
1830
17B0
0CD8
07B0
0000
0000
ENDCHAR

STARTCHAR jisx0208_2352
ENCODING 9042
SWIDTH 960 0
DWIDTH 14 0
BBX 14 14 0 -2
BITMAP
0000
0000
1FC0
0C60
0C30
0C30
0C60
0FC0
0C60
0C60
0C58
1E70
0000
0000
ENDCHAR

STARTCHAR jisx0208_2353
ENCODING 9043
SWIDTH 960 0
DWIDTH 14 0
BBX 14 14 0 -2
BITMAP
0000
0000
0F60
18E0
1860
1860
0F00
01C0
1860
1860
1C60
17C0
0000
0000
ENDCHAR

STARTCHAR jisx0208_2354
ENCODING 9044
SWIDTH 960 0
DWIDTH 14 0
BBX 14 14 0 -2
BITMAP
0000
0000
3FF0
3330
3330
0300
0300
0300
0300
0300
0300
0780
0000
0000
ENDCHAR

STARTCHAR jisx0208_2355
ENCODING 9045
SWIDTH 960 0
DWIDTH 14 0
BBX 14 14 0 -2
BITMAP
0000
0000
3CF0
1860
1860
1860
1860
1860
1860
1860
1860
0FC0
0000
0000
ENDCHAR

STARTCHAR jisx0208_2356
ENCODING 9046
SWIDTH 960 0
DWIDTH 14 0
BBX 14 14 0 -2
BITMAP
0000
0000
3C78
1830
1830
0C60
0C60
06C0
06C0
06C0
0380
0380
0000
0000
ENDCHAR

STARTCHAR jisx0208_2357
ENCODING 9047
SWIDTH 960 0
DWIDTH 14 0
BBX 14 14 0 -2
BITMAP
0000
0000
7B78
3330
3330
3330
1560
1560
1560
0CC0
0CC0
0CC0
0000
0000
ENDCHAR

STARTCHAR jisx0208_2358
ENCODING 9048
SWIDTH 960 0
DWIDTH 14 0
BBX 14 14 0 -2
BITMAP
0000
0000
1EF0
0C60
06C0
06C0
0380
0380
06C0
06C0
0C60
1EF0
0000
0000
ENDCHAR

STARTCHAR jisx0208_2359
ENCODING 9049
SWIDTH 960 0
DWIDTH 14 0
BBX 14 14 0 -2
BITMAP
0000
0000
3CF0
1860
0CC0
0CC0
0580
0580
0300
0300
0300
0780
0000
0000
ENDCHAR

STARTCHAR jisx0208_235A
ENCODING 9050
SWIDTH 960 0
DWIDTH 14 0
BBX 14 14 0 -2
BITMAP
0000
0000
1FE0
1860
18C0
0180
0300
0300
0600
0C60
1860
1FE0
0000
0000
ENDCHAR

STARTCHAR jisx0208_2361
ENCODING 9057
SWIDTH 960 0
DWIDTH 14 0
BBX 14 14 0 -2
BITMAP
0000
0000
0000
0000
0000
07C0
0E60
0060
07E0
0C60
0CE0
0770
0000
0000
ENDCHAR

STARTCHAR jisx0208_2362
ENCODING 9058
SWIDTH 960 0
DWIDTH 14 0
BBX 14 14 0 -2
BITMAP
0000
0000
1C00
0C00
0C00
0BC0
0E60
0C60
0C60
0C60
0E60
1BC0
0000
0000
ENDCHAR

STARTCHAR jisx0208_2363
ENCODING 9059
SWIDTH 960 0
DWIDTH 14 0
BBX 14 14 0 -2
BITMAP
0000
0000
0000
0000
0000
07C0
0C60
0CE0
0C00
0C00
0C60
07C0
0000
0000
ENDCHAR

STARTCHAR jisx0208_2364
ENCODING 9060
SWIDTH 960 0
DWIDTH 14 0
BBX 14 14 0 -2
BITMAP
0000
0000
00E0
0060
0060
0760
0CE0
0C60
0C60
0C60
0CE0
0770
0000
0000
ENDCHAR

STARTCHAR jisx0208_2365
ENCODING 9061
SWIDTH 960 0
DWIDTH 14 0
BBX 14 14 0 -2
BITMAP
0000
0000
0000
0000
0000
07C0
0C60
0C60
0FE0
0C00
0C60
07C0
0000
0000
ENDCHAR

STARTCHAR jisx0208_2366
ENCODING 9062
SWIDTH 960 0
DWIDTH 14 0
BBX 14 14 0 -2
BITMAP
0000
0000
01E0
0360
0300
0FC0
0300
0300
0300
0300
0300
0780
0000
0000
ENDCHAR

STARTCHAR jisx0208_2367
ENCODING 9063
SWIDTH 960 0
DWIDTH 14 0
BBX 14 14 0 -2
BITMAP
0000
0000
0000
0000
0000
0770
0CB0
0CC0
0780
0C00
0FC0
1860
0FC0
0000
ENDCHAR

STARTCHAR jisx0208_2368
ENCODING 9064
SWIDTH 960 0
DWIDTH 14 0
BBX 14 14 0 -2
BITMAP
0000
0000
1C00
0C00
0C00
0BC0
0E60
0C60
0C60
0C60
0C60
1EF0
0000
0000
ENDCHAR

STARTCHAR jisx0208_2369
ENCODING 9065
SWIDTH 960 0
DWIDTH 14 0
BBX 14 14 0 -2
BITMAP
0000
0000
0300
0300
0000
0700
0300
0300
0300
0300
0300
0780
0000
0000
ENDCHAR

STARTCHAR jisx0208_236A
ENCODING 9066
SWIDTH 960 0
DWIDTH 14 0
BBX 14 14 0 -2
BITMAP
0000
0000
0180
0180
0000
0380
0180
0180
0180
0180
0D80
0D80
0700
0000
ENDCHAR

STARTCHAR jisx0208_236B
ENCODING 9067
SWIDTH 960 0
DWIDTH 14 0
BBX 14 14 0 -2
BITMAP
0000
0000
1C00
0C00
0C00
0BE0
0D80
0B00
0D80
0D80
0CC0
1DE0
0000
0000
ENDCHAR

STARTCHAR jisx0208_236C
ENCODING 9068
SWIDTH 960 0
DWIDTH 14 0
BBX 14 14 0 -2
BITMAP
0000
0000
0700
0300
0300
0300
0300
0300
0300
0300
0300
0780
0000
0000
ENDCHAR

STARTCHAR jisx0208_236D
ENCODING 9069
SWIDTH 960 0
DWIDTH 14 0
BBX 14 14 0 -2
BITMAP
0000
0000
0000
0000
0000
6EE0
3BB0
3330
3330
3330
3330
7778
0000
0000
ENDCHAR

STARTCHAR jisx0208_236E
ENCODING 9070
SWIDTH 960 0
DWIDTH 14 0
BBX 14 14 0 -2
BITMAP
0000
0000
0000
0000
0000
1BC0
0E60
0C60
0C60
0C60
0C60
1EF0
0000
0000
ENDCHAR

STARTCHAR jisx0208_236F
ENCODING 9071
SWIDTH 960 0
DWIDTH 14 0
BBX 14 14 0 -2
BITMAP
0000
0000
0000
0000
0000
07C0
0C60
0C60
0C60
0C60
0C60
07C0
0000
0000
ENDCHAR

STARTCHAR jisx0208_2370
ENCODING 9072
SWIDTH 960 0
DWIDTH 14 0
BBX 14 14 0 -2
BITMAP
0000
0000
0000
0000
0000
1BC0
0E60
0C60
0C60
0E60
0BC0
0C00
1E00
0000
ENDCHAR

STARTCHAR jisx0208_2371
ENCODING 9073
SWIDTH 960 0
DWIDTH 14 0
BBX 14 14 0 -2
BITMAP
0000
0000
0000
0000
0000
0760
0CE0
0C60
0C60
0CE0
0760
0060
00F0
0000
ENDCHAR

STARTCHAR jisx0208_2372
ENCODING 9074
SWIDTH 960 0
DWIDTH 14 0
BBX 14 14 0 -2
BITMAP
0000
0000
0000
0000
0000
0DC0
06C0
0600
0600
0600
0600
0F00
0000
0000
ENDCHAR

STARTCHAR jisx0208_2373
ENCODING 9075
SWIDTH 960 0
DWIDTH 14 0
BBX 14 14 0 -2
BITMAP
0000
0000
0000
0000
0000
0760
0CE0
0E60
0380
0CE0
0E60
0BC0
0000
0000
ENDCHAR

STARTCHAR jisx0208_2374
ENCODING 9076
SWIDTH 960 0
DWIDTH 14 0
BBX 14 14 0 -2
BITMAP
0000
0000
0300
0300
0300
0FC0
0300
0300
0300
0300
0360
01C0
0000
0000
ENDCHAR

STARTCHAR jisx0208_2375
ENCODING 9077
SWIDTH 960 0
DWIDTH 14 0
BBX 14 14 0 -2
BITMAP
0000
0000
0000
0000
0000
1CE0
0C60
0C60
0C60
0C60
0CE0
0770
0000
0000
ENDCHAR

STARTCHAR jisx0208_2376
ENCODING 9078
SWIDTH 960 0
DWIDTH 14 0
BBX 14 14 0 -2
BITMAP
0000
0000
0000
0000
0000
1EF0
0C60
0C60
06C0
06C0
0380
0380
0000
0000
ENDCHAR

STARTCHAR jisx0208_2377
ENCODING 9079
SWIDTH 960 0
DWIDTH 14 0
BBX 14 14 0 -2
BITMAP
0000
0000
0000
0000
0000
7B78
3330
3330
1560
1560
0CC0
0CC0
0000
0000
ENDCHAR

STARTCHAR jisx0208_2378
ENCODING 9080
SWIDTH 960 0
DWIDTH 14 0
BBX 14 14 0 -2
BITMAP
0000
0000
0000
0000
0000
1DE0
0CC0
0580
0300
0580
0CC0
1DE0
0000
0000
ENDCHAR

STARTCHAR jisx0208_2379
ENCODING 9081
SWIDTH 960 0
DWIDTH 14 0
BBX 14 14 0 -2
BITMAP
0000
0000
0000
0000
0000
1DE0
0CC0
0CC0
0580
0580
0300
1B00
0E00
0000
ENDCHAR

STARTCHAR jisx0208_237A
ENCODING 9082
SWIDTH 960 0
DWIDTH 14 0
BBX 14 14 0 -2
BITMAP
0000
0000
0000
0000
0000
0FC0
0CC0
0180
0300
0600
0CC0
0FC0
0000
0000
ENDCHAR

STARTCHAR jisx0208_2421
ENCODING 9249
SWIDTH 960 0
DWIDTH 14 0
BBX 14 14 0 -2
BITMAP
0000
0000
0000
0000
0300
0FC0
0600
07C0
0D60
15B0
1730
1E60
01C0
0000
ENDCHAR

STARTCHAR jisx0208_2422
ENCODING 9250
SWIDTH 960 0
DWIDTH 14 0
BBX 14 14 0 -2
BITMAP
0000
0E00
0600
3FC0
0C00
0FE0
1DB0
2D98
6B18
6618
6E30
78E0
0380
0000
ENDCHAR

STARTCHAR jisx0208_2423
ENCODING 9251
SWIDTH 960 0
DWIDTH 14 0
BBX 14 14 0 -2
BITMAP
0000
0000
0000
0000
0000
3800
18C0
1860
1830
1830
16F0
1C00
0C00
0000
ENDCHAR

STARTCHAR jisx0208_2424
ENCODING 9252
SWIDTH 960 0
DWIDTH 14 0
BBX 14 14 0 -2
BITMAP
0000
0000
0000
6000
3060
3030
6018
6018
6018
6C78
5818
3800
1800
0000
ENDCHAR

STARTCHAR jisx0208_2425
ENCODING 9253
SWIDTH 960 0
DWIDTH 14 0
BBX 14 14 0 -2
BITMAP
0000
0000
0000
0000
0600
03C0
0000
17C0
0C60
0060
0060
00C0
0780
0000
ENDCHAR

STARTCHAR jisx0208_2426
ENCODING 9254
SWIDTH 960 0
DWIDTH 14 0
BBX 14 14 0 -2
BITMAP
0000
0C00
07C0
0000
03C0
2E60
1830
0030
0030
0060
0060
01C0
0700
0000
ENDCHAR

STARTCHAR jisx0208_2427
ENCODING 9255
SWIDTH 960 0
DWIDTH 14 0
BBX 14 14 0 -2
BITMAP
0000
0000
0000
0000
0600
0380
0000
0FC0
0180
0300
0580
0D80
18F0
0000
ENDCHAR

STARTCHAR jisx0208_2428
ENCODING 9256
SWIDTH 960 0
DWIDTH 14 0
BBX 14 14 0 -2
BITMAP
0000
0600
03C0
0000
17E0
0CC0
0180
0300
0780
0D80
1980
3180
30F8
0000
ENDCHAR

STARTCHAR jisx0208_2429
ENCODING 9257
SWIDTH 960 0
DWIDTH 14 0
BBX 14 14 0 -2
BITMAP
0000
0000
0000
0000
1C00
0C00
3EE0
0C30
0FC0
3C60
2C60
1B60
0DC0
0000
ENDCHAR

STARTCHAR jisx0208_242A
ENCODING 9258
SWIDTH 960 0
DWIDTH 14 0
BBX 14 14 0 -2
BITMAP
0000
1C00
0C00
0C70
3F98
0C38
0C00
0BF0
0E18
5C18
6C18
1D98
0CF0
0000
ENDCHAR

STARTCHAR jisx0208_242B
ENCODING 9259
SWIDTH 960 0
DWIDTH 14 0
BBX 14 14 0 -2
BITMAP
0000
1800
0C00
0C60
6F30
7D98
198C
198C
31BC
318C
2B00
6700
6600
0000
ENDCHAR

STARTCHAR jisx0208_242C
ENCODING 9260
SWIDTH 960 0
DWIDTH 14 0
BBX 14 14 0 -2
BITMAP
0000
182C
0C2C
0C60
6F30
7D98
198C
198C
31BC
318C
2B00
6700
6600
0000
ENDCHAR

STARTCHAR jisx0208_242D
ENCODING 9261
SWIDTH 960 0
DWIDTH 14 0
BBX 14 14 0 -2
BITMAP
0000
0380
1970
0FC0
00C0
18B8
0FE0
0060
0FF0
1830
1800
1800
0FE0
0000
ENDCHAR

STARTCHAR jisx0208_242E
ENCODING 9262
SWIDTH 960 0
DWIDTH 14 0
BBX 14 14 0 -2
BITMAP
0000
03AC
196C
0FC0
00C0
18B8
0FE0
0060
0FF0
1830
1800
1800
0FE0
0000
ENDCHAR

STARTCHAR jisx0208_242F
ENCODING 9263
SWIDTH 960 0
DWIDTH 14 0
BBX 14 14 0 -2
BITMAP
0000
0300
0180
0300
0600
0C00
1800
0C00
0600
0300
0180
00C0
00C0
0000
ENDCHAR

STARTCHAR jisx0208_2430
ENCODING 9264
SWIDTH 960 0
DWIDTH 14 0
BBX 14 14 0 -2
BITMAP
0000
0300
0180
02B0
06B0
0C00
1800
0C00
0600
0300
0180
00C0
00C0
0000
ENDCHAR

STARTCHAR jisx0208_2431
ENCODING 9265
SWIDTH 960 0
DWIDTH 14 0
BBX 14 14 0 -2
BITMAP
0000
0000
60E0
3060
3060
67F8
6060
6060
5860
5860
3060
30C0
0380
0000
ENDCHAR

STARTCHAR jisx0208_2432
ENCODING 9266
SWIDTH 960 0
DWIDTH 14 0
BBX 14 14 0 -2
BITMAP
0000
002C
60EC
3060
3060
67F8
6060
6060
5860
5860
3060
30C0
0380
0000
ENDCHAR

STARTCHAR jisx0208_2433
ENCODING 9267
SWIDTH 960 0
DWIDTH 14 0
BBX 14 14 0 -2
BITMAP
0000
0000
1800
0FE0
0600
0C00
0000
0000
3000
3000
1800
0FF0
0000
0000
ENDCHAR

STARTCHAR jisx0208_2434
ENCODING 9268
SWIDTH 960 0
DWIDTH 14 0
BBX 14 14 0 -2
BITMAP
0000
002C
182C
0FE0
0600
0C00
0000
0000
3000
3000
1800
0FF0
0000
0000
ENDCHAR

STARTCHAR jisx0208_2435
ENCODING 9269
SWIDTH 960 0
DWIDTH 14 0
BBX 14 14 0 -2
BITMAP
0000
0380
0180
31B8
1FE0
00C0
00C0
0060
0FF0
1830
1800
1800
0FE0
0000
ENDCHAR

STARTCHAR jisx0208_2436
ENCODING 9270
SWIDTH 960 0
DWIDTH 14 0
BBX 14 14 0 -2
BITMAP
0000
03AC
01AC
31B8
1FE0
00C0
00C0
0060
0FF0
1830
1800
1800
0FE0
0000
ENDCHAR

STARTCHAR jisx0208_2437
ENCODING 9271
SWIDTH 960 0
DWIDTH 14 0
BBX 14 14 0 -2
BITMAP
0000
1800
0C00
0C00
0C00
0C00
1800
1800
1818
1818
1830
1860
0FC0
0000
ENDCHAR

STARTCHAR jisx0208_2438
ENCODING 9272
SWIDTH 960 0
DWIDTH 14 0
BBX 14 14 0 -2
BITMAP
0000
1800
0C00
0CB0
0CB0
0C00
1800
1800
1818
1818
1830
1860
0FC0
0000
ENDCHAR

STARTCHAR jisx0208_2439
ENCODING 9273
SWIDTH 960 0
DWIDTH 14 0
BBX 14 14 0 -2
BITMAP
0000
0380
0180
0180
5FF8
3180
0780
0D80
0D80
0780
0180
0300
0E00
0000
ENDCHAR

STARTCHAR jisx0208_243A
ENCODING 9274
SWIDTH 960 0
DWIDTH 14 0
BBX 14 14 0 -2
BITMAP
0000
03AC
01AC
0180
5FF8
3180
0780
0D80
0D80
0780
0180
0300
0E00
0000
ENDCHAR

STARTCHAR jisx0208_243B
ENCODING 9275
SWIDTH 960 0
DWIDTH 14 0
BBX 14 14 0 -2
BITMAP
0000
00E0
1C60
0C60
0C60
0FFC
7C60
0C60
0DE0
0CC0
0C00
0C00
07F0
0000
ENDCHAR

STARTCHAR jisx0208_243C
ENCODING 9276
SWIDTH 960 0
DWIDTH 14 0
BBX 14 14 0 -2
BITMAP
0000
00EC
1C6C
0C60
0C60
0FFC
7C60
0C60
0DE0
0CC0
0C00
0C00
07F0
0000
ENDCHAR

STARTCHAR jisx0208_243D
ENCODING 9277
SWIDTH 960 0
DWIDTH 14 0
BBX 14 14 0 -2
BITMAP
0000
0000
17E0
0D80
0300
0E00
1BF8
7D80
0300
0600
0600
0600
03E0
0000
ENDCHAR

STARTCHAR jisx0208_243E
ENCODING 9278
SWIDTH 960 0
DWIDTH 14 0
BBX 14 14 0 -2
BITMAP
0000
0000
17EC
0DAC
0300
0E00
1BF8
7D80
0300
0600
0600
0600
03E0
0000
ENDCHAR

STARTCHAR jisx0208_243F
ENCODING 9279
SWIDTH 960 0
DWIDTH 14 0
BBX 14 14 0 -2
BITMAP
0000
1800
0C00
0F00
7C00
1800
1BF0
1980
3000
3000
3600
6600
63F8
0000
ENDCHAR

STARTCHAR jisx0208_2440
ENCODING 9280
SWIDTH 960 0
DWIDTH 14 0
BBX 14 14 0 -2
BITMAP
0000
1800
0C2C
0F2C
7C00
1800
1BF0
1980
3000
3000
3600
6600
63F8
0000
ENDCHAR

STARTCHAR jisx0208_2441
ENCODING 9281
SWIDTH 960 0
DWIDTH 14 0
BBX 14 14 0 -2
BITMAP
0000
0E00
0600
06E0
3F80
0C00
0DF0
0F18
1C18
1818
0018
0070
03C0
0000
ENDCHAR

STARTCHAR jisx0208_2442
ENCODING 9282
SWIDTH 960 0
DWIDTH 14 0
BBX 14 14 0 -2
BITMAP
0000
0E2C
062C
06E0
3F80
0C00
0DF0
0F18
1C18
1818
0018
0070
03C0
0000
ENDCHAR

STARTCHAR jisx0208_2443
ENCODING 9283
SWIDTH 960 0
DWIDTH 14 0
BBX 14 14 0 -2
BITMAP
0000
0000
0000
0000
0000
0000
33E0
1E30
0030
0030
0060
03C0
0000
0000
ENDCHAR

STARTCHAR jisx0208_2444
ENCODING 9284
SWIDTH 960 0
DWIDTH 14 0
BBX 14 14 0 -2
BITMAP
0000
0000
0000
0000
67F0
3C18
0018
0018
0018
0018
0070
07C0
0000
0000
ENDCHAR

STARTCHAR jisx0208_2445
ENCODING 9285
SWIDTH 960 0
DWIDTH 14 0
BBX 14 14 0 -2
BITMAP
0000
002C
002C
0000
67F0
3C18
0018
0018
0018
0018
0070
07C0
0000
0000
ENDCHAR

STARTCHAR jisx0208_2446
ENCODING 9286
SWIDTH 960 0
DWIDTH 14 0
BBX 14 14 0 -2
BITMAP
0000
0000
0000
67FC
3D80
0300
0600
0600
0600
0600
0600
0300
01E0
0000
ENDCHAR

STARTCHAR jisx0208_2447
ENCODING 9287
SWIDTH 960 0
DWIDTH 14 0
BBX 14 14 0 -2
BITMAP
0000
0000
0000
67FC
3D80
032C
062C
0600
0600
0600
0600
0300
01E0
0000
ENDCHAR

STARTCHAR jisx0208_2448
ENCODING 9288
SWIDTH 960 0
DWIDTH 14 0
BBX 14 14 0 -2
BITMAP
0000
0C00
0600
0600
0600
0670
03C0
0E00
1800
3000
3000
1800
0FF0
0000
ENDCHAR

STARTCHAR jisx0208_2449
ENCODING 9289
SWIDTH 960 0
DWIDTH 14 0
BBX 14 14 0 -2
BITMAP
0000
0C2C
062C
0600
0600
0670
03C0
0E00
1800
3000
3000
1800
0FF0
0000
ENDCHAR

STARTCHAR jisx0208_244A
ENCODING 9290
SWIDTH 960 0
DWIDTH 14 0
BBX 14 14 0 -2
BITMAP
0000
1C00
0C00
0F00
7C70
1818
1878
3060
3060
63E0
6670
0658
03D8
0000
ENDCHAR

STARTCHAR jisx0208_244B
ENCODING 9291
SWIDTH 960 0
DWIDTH 14 0
BBX 14 14 0 -2
BITMAP
0000
0000
3000
1BF8
18C0
3180
3000
3000
2C00
2B00
3B00
19F8
1800
0000
ENDCHAR

STARTCHAR jisx0208_244C
ENCODING 9292
SWIDTH 960 0
DWIDTH 14 0
BBX 14 14 0 -2
BITMAP
0000
0380
0180
3980
17E0
1DB0
3B18
3B18
5B18
6ED8
6DB8
6DB8
38EC
0000
ENDCHAR

STARTCHAR jisx0208_244D
ENCODING 9293
SWIDTH 960 0
DWIDTH 14 0
BBX 14 14 0 -2
BITMAP
0000
3800
1800
19F0
7B18
1618
1C18
3818
38D8
59B8
79B8
18EC
1800
0000
ENDCHAR

STARTCHAR jisx0208_244E
ENCODING 9294
SWIDTH 960 0
DWIDTH 14 0
BBX 14 14 0 -2
BITMAP
0000
0000
0000
0FC0
1B60
3330
6318
6318
6618
6618
3630
1C60
01C0
0000
ENDCHAR

STARTCHAR jisx0208_244F
ENCODING 9295
SWIDTH 960 0
DWIDTH 14 0
BBX 14 14 0 -2
BITMAP
0000
0000
60E0
3060
37F8
6060
6060
6060
6060
5BE0
5670
3658
33D8
0000
ENDCHAR

STARTCHAR jisx0208_2450
ENCODING 9296
SWIDTH 960 0
DWIDTH 14 0
BBX 14 14 0 -2
BITMAP
0000
002C
60EC
3060
37F8
6060
6060
6060
6060
5BE0
5670
3658
33D8
0000
ENDCHAR

STARTCHAR jisx0208_2451
ENCODING 9297
SWIDTH 960 0
DWIDTH 14 0
BBX 14 14 0 -2
BITMAP
0000
0018
60EC
3058
37F8
6060
6060
6060
6060
5BE0
5670
3658
33D8
0000
ENDCHAR

STARTCHAR jisx0208_2452
ENCODING 9298
SWIDTH 960 0
DWIDTH 14 0
BBX 14 14 0 -2
BITMAP
0000
0000
6660
3C60
1860
3070
3058
606C
6060
60C0
60C0
3180
1F00
0000
ENDCHAR

STARTCHAR jisx0208_2453
ENCODING 9299
SWIDTH 960 0
DWIDTH 14 0
BBX 14 14 0 -2
BITMAP
0000
002C
666C
3C60
1870
3070
3058
606C
6060
60C0
60C0
3180
1F00
0000
ENDCHAR

STARTCHAR jisx0208_2454
ENCODING 9300
SWIDTH 960 0
DWIDTH 14 0
BBX 14 14 0 -2
BITMAP
0000
0018
666C
3C58
1870
3070
3058
606C
6060
60C0
60C0
3180
1F00
0000
ENDCHAR

STARTCHAR jisx0208_2455
ENCODING 9301
SWIDTH 960 0
DWIDTH 14 0
BBX 14 14 0 -2
BITMAP
0000
0000
0700
01C0
0300
0600
0600
0300
0170
6CD8
58DC
6CAC
0780
0000
ENDCHAR

STARTCHAR jisx0208_2456
ENCODING 9302
SWIDTH 960 0
DWIDTH 14 0
BBX 14 14 0 -2
BITMAP
0000
0000
072C
01AC
0300
0600
0600
0300
0170
6CD8
58DC
6CAC
0780
0000
ENDCHAR

STARTCHAR jisx0208_2457
ENCODING 9303
SWIDTH 960 0
DWIDTH 14 0
BBX 14 14 0 -2
BITMAP
0000
0000
0718
01AC
0318
0600
0600
0300
0170
6CD8
58DC
6CAC
0780
0000
ENDCHAR

STARTCHAR jisx0208_2458
ENCODING 9304
SWIDTH 960 0
DWIDTH 14 0
BBX 14 14 0 -2
BITMAP
0000
0000
0000
0000
0700
0D80
58C0
7070
0018
000C
0000
0000
0000
0000
ENDCHAR

STARTCHAR jisx0208_2459
ENCODING 9305
SWIDTH 960 0
DWIDTH 14 0
BBX 14 14 0 -2
BITMAP
0000
0000
0000
0058
0758
0D80
58C0
7070
0018
000C
0000
0000
0000
0000
ENDCHAR

STARTCHAR jisx0208_245A
ENCODING 9306
SWIDTH 960 0
DWIDTH 14 0
BBX 14 14 0 -2
BITMAP
0000
0000
0030
0058
0730
0D80
58C0
7070
0018
000C
0000
0000
0000
0000
ENDCHAR

STARTCHAR jisx0208_245B
ENCODING 9307
SWIDTH 960 0
DWIDTH 14 0
BBX 14 14 0 -2
BITMAP
0000
0000
6000
37F8
3060
6060
67F8
6060
6060
5BE0
5670
3658
33D8
0000
ENDCHAR

STARTCHAR jisx0208_245C
ENCODING 9308
SWIDTH 960 0
DWIDTH 14 0
BBX 14 14 0 -2
BITMAP
0000
002C
602C
37F0
3060
6060
67F8
6060
6060
5BE0
5670
3658
33D8
0000
ENDCHAR

STARTCHAR jisx0208_245D
ENCODING 9309
SWIDTH 960 0
DWIDTH 14 0
BBX 14 14 0 -2
BITMAP
0000
0018
602C
37F8
3060
6060
67F8
6060
6060
5BE0
5670
3658
33D8
0000
ENDCHAR

STARTCHAR jisx0208_245E
ENCODING 9310
SWIDTH 960 0
DWIDTH 14 0
BBX 14 14 0 -2
BITMAP
0000
0700
0300
0330
3FE0
0300
0330
3FE0
0300
0300
1F80
32E0
1E30
0000
ENDCHAR

STARTCHAR jisx0208_245F
ENCODING 9311
SWIDTH 960 0
DWIDTH 14 0
BBX 14 14 0 -2
BITMAP
0000
0000
1780
0D80
0180
0370
0330
1FB0
3670
6C38
6C6C
38C0
0380
0000
ENDCHAR

STARTCHAR jisx0208_2460
ENCODING 9312
SWIDTH 960 0
DWIDTH 14 0
BBX 14 14 0 -2
BITMAP
0000
1800
0C00
0C30
7F18
0C0C
3C3C
6C00
6C00
3830
1830
1838
0FF0
0000
ENDCHAR

STARTCHAR jisx0208_2461
ENCODING 9313
SWIDTH 960 0
DWIDTH 14 0
BBX 14 14 0 -2
BITMAP
0000
0380
0180
3980
1FE0
19B0
3998
6B18
6B18
6618
6F30
3860
01C0
0000
ENDCHAR

STARTCHAR jisx0208_2462
ENCODING 9314
SWIDTH 960 0
DWIDTH 14 0
BBX 14 14 0 -2
BITMAP
0000
0C00
0600
3600
1F80
0C00
2C60
1FB0
0C18
0C18
0C18
0C18
07F0
0000
ENDCHAR

STARTCHAR jisx0208_2463
ENCODING 9315
SWIDTH 960 0
DWIDTH 14 0
BBX 14 14 0 -2
BITMAP
0000
0000
0000
0000
0380
0CC0
0BE0
0E30
3630
06E0
0300
0300
0300
0000
ENDCHAR

STARTCHAR jisx0208_2464
ENCODING 9316
SWIDTH 960 0
DWIDTH 14 0
BBX 14 14 0 -2
BITMAP
0000
0380
1CC0
19F0
0F18
5C0C
6C0C
0598
06F0
0600
0300
0300
0300
0000
ENDCHAR

STARTCHAR jisx0208_2465
ENCODING 9317
SWIDTH 960 0
DWIDTH 14 0
BBX 14 14 0 -2
BITMAP
0000
0000
0000
0300
1D80
0BE0
15B0
1DB0
19B0
15B0
1BE0
1980
0300
0000
ENDCHAR

STARTCHAR jisx0208_2466
ENCODING 9318
SWIDTH 960 0
DWIDTH 14 0
BBX 14 14 0 -2
BITMAP
0000
0700
6180
37E0
2DB0
5998
7198
7198
6198
6D98
65B0
63E0
0F00
0000
ENDCHAR

STARTCHAR jisx0208_2467
ENCODING 9319
SWIDTH 960 0
DWIDTH 14 0
BBX 14 14 0 -2
BITMAP
0000
0000
0000
0000
0380
0180
01F0
0180
0180
0180
0F80
19E0
0F30
0000
ENDCHAR

STARTCHAR jisx0208_2468
ENCODING 9320
SWIDTH 960 0
DWIDTH 14 0
BBX 14 14 0 -2
BITMAP
0000
0700
0300
0300
0300
03F0
0300
0300
0300
1F00
33C0
3360
1E30
0000
ENDCHAR

STARTCHAR jisx0208_2469
ENCODING 9321
SWIDTH 960 0
DWIDTH 14 0
BBX 14 14 0 -2
BITMAP
0000
0C00
07C0
0E00
1800
1800
1BE0
1E30
3818
3018
0018
0070
07C0
0000
ENDCHAR

STARTCHAR jisx0208_246A
ENCODING 9322
SWIDTH 960 0
DWIDTH 14 0
BBX 14 14 0 -2
BITMAP
0000
1C00
0DC0
0B60
1630
1630
1C30
1C30
0C30
0C60
0060
00C0
0380
0000
ENDCHAR

STARTCHAR jisx0208_246B
ENCODING 9323
SWIDTH 960 0
DWIDTH 14 0
BBX 14 14 0 -2
BITMAP
0000
0000
0BE0
06C0
0180
0300
07E0
0C30
1818
3398
06D8
06B0
03E0
0000
ENDCHAR

STARTCHAR jisx0208_246C
ENCODING 9324
SWIDTH 960 0
DWIDTH 14 0
BBX 14 14 0 -2
BITMAP
0000
3800
1800
19E0
7B30
1630
1C30
1830
3830
5830
782C
1838
1800
0000
ENDCHAR

STARTCHAR jisx0208_246D
ENCODING 9325
SWIDTH 960 0
DWIDTH 14 0
BBX 14 14 0 -2
BITMAP
0000
0000
0BE0
06C0
0180
0300
07E0
0C30
1818
3018
0018
0030
07E0
0000
ENDCHAR

STARTCHAR jisx0208_246E
ENCODING 9326
SWIDTH 960 0
DWIDTH 14 0
BBX 14 14 0 -2
BITMAP
0000
0000
0000
0000
0C00
0C00
3BC0
0E60
0C30
1C30
2C30
1C60
0DC0
0000
ENDCHAR

STARTCHAR jisx0208_246F
ENCODING 9327
SWIDTH 960 0
DWIDTH 14 0
BBX 14 14 0 -2
BITMAP
0000
3800
1800
1800
7BE0
1630
1C18
3818
3818
5818
7830
19E0
1800
0000
ENDCHAR

STARTCHAR jisx0208_2470
ENCODING 9328
SWIDTH 960 0
DWIDTH 14 0
BBX 14 14 0 -2
BITMAP
0000
0000
1780
0D80
0300
0FE0
1B30
3618
6618
6C18
6DD8
3B70
01E0
0000
ENDCHAR

STARTCHAR jisx0208_2471
ENCODING 9329
SWIDTH 960 0
DWIDTH 14 0
BBX 14 14 0 -2
BITMAP
0000
0000
0FC0
0180
07C0
0C60
1B60
0560
07C0
0C00
1CF0
3598
632C
0000
ENDCHAR

STARTCHAR jisx0208_2472
ENCODING 9330
SWIDTH 960 0
DWIDTH 14 0
BBX 14 14 0 -2
BITMAP
0000
0E00
0600
3FE0
0C00
0F00
19B8
31E0
6780
0D80
0D80
0C00
07F0
0000
ENDCHAR

STARTCHAR jisx0208_2473
ENCODING 9331
SWIDTH 960 0
DWIDTH 14 0
BBX 14 14 0 -2
BITMAP
0000
0600
0300
0600
0600
0C00
0C00
1F00
1998
3198
3198
61B0
60E0
0000
ENDCHAR

STARTCHAR jisx0208_2521
ENCODING 9505
SWIDTH 960 0
DWIDTH 14 0
BBX 14 14 0 -2
BITMAP
0000
0000
0000
0000
3060
1FF0
0060
06C0
0380
0300
0300
0600
0C00
0000
ENDCHAR

STARTCHAR jisx0208_2522
ENCODING 9506
SWIDTH 960 0
DWIDTH 14 0
BBX 14 14 0 -2
BITMAP
0000
0000
6030
3FF8
0030
0060
07C0
0300
0300
0300
0600
0C00
1800
0000
ENDCHAR

STARTCHAR jisx0208_2523
ENCODING 9507
SWIDTH 960 0
DWIDTH 14 0
BBX 14 14 0 -2
BITMAP
0000
0000
0000
0000
00C0
0060
00C0
0180
0780
1D80
0180
0180
0180
0000
ENDCHAR

STARTCHAR jisx0208_2524
ENCODING 9508
SWIDTH 960 0
DWIDTH 14 0
BBX 14 14 0 -2
BITMAP
0000
0060
0030
0060
00C0
0180
03C0
0D80
3980
0180
0180
0180
0180
0000
ENDCHAR

STARTCHAR jisx0208_2525
ENCODING 9509
SWIDTH 960 0
DWIDTH 14 0
BBX 14 14 0 -2
BITMAP
0000
0000
0000
0000
0300
1B60
1FF0
1860
1860
1860
00C0
0180
0700
0000
ENDCHAR

STARTCHAR jisx0208_2526
ENCODING 9510
SWIDTH 960 0
DWIDTH 14 0
BBX 14 14 0 -2
BITMAP
0000
0700
0300
7330
3FF8
3030
3030
3030
3060
0060
00C0
0180
0700
0000
ENDCHAR

STARTCHAR jisx0208_2527
ENCODING 9511
SWIDTH 960 0
DWIDTH 14 0
BBX 14 14 0 -2
BITMAP
0000
0000
0000
0000
0000
18C0
0FE0
0300
0300
0300
3360
1FF0
0000
0000
ENDCHAR

STARTCHAR jisx0208_2528
ENCODING 9512
SWIDTH 960 0
DWIDTH 14 0
BBX 14 14 0 -2
BITMAP
0000
0000
0000
3030
1FF8
0300
0300
0300
0300
6318
3FFC
0000
0000
0000
ENDCHAR

STARTCHAR jisx0208_2529
ENCODING 9513
SWIDTH 960 0
DWIDTH 14 0
BBX 14 14 0 -2
BITMAP
0000
0000
0000
0000
01C0
00C0
1FF0
01C0
02C0
06C0
1CC0
03C0
0180
0000
ENDCHAR

STARTCHAR jisx0208_252A
ENCODING 9514
SWIDTH 960 0
DWIDTH 14 0
BBX 14 14 0 -2
BITMAP
0000
01C0
00C0
60D8
3FF8
01C0
02C0
06C0
0CC0
18C0
70C0
03C0
0180
0000
ENDCHAR

STARTCHAR jisx0208_252B
ENCODING 9515
SWIDTH 960 0
DWIDTH 14 0
BBX 14 14 0 -2
BITMAP
0000
0700
0300
6330
3FF8
0630
0630
0630
0C30
0C30
1960
30E0
60C0
0000
ENDCHAR

STARTCHAR jisx0208_252C
ENCODING 9516
SWIDTH 960 0
DWIDTH 14 0
BBX 14 14 0 -2
BITMAP
0000
072C
032C
6330
3FF8
0630
0630
0630
0C30
0C30
1960
30E0
60C0
0000
ENDCHAR

STARTCHAR jisx0208_252D
ENCODING 9517
SWIDTH 960 0
DWIDTH 14 0
BBX 14 14 0 -2
BITMAP
0000
0700
0300
63F0
3F00
0300
0300
63F8
3F80
0180
0180
0180
0180
0000
ENDCHAR

STARTCHAR jisx0208_252E
ENCODING 9518
SWIDTH 960 0
DWIDTH 14 0
BBX 14 14 0 -2
BITMAP
0000
072C
032C
63F0
3F00
0300
0300
63F8
3F80
0180
0180
0180
0180
0000
ENDCHAR

STARTCHAR jisx0208_252F
ENCODING 9519
SWIDTH 960 0
DWIDTH 14 0
BBX 14 14 0 -2
BITMAP
0000
0E00
0630
07F8
0C30
1830
3060
0060
00C0
0180
0300
0600
1C00
0000
ENDCHAR

STARTCHAR jisx0208_2530
ENCODING 9520
SWIDTH 960 0
DWIDTH 14 0
BBX 14 14 0 -2
BITMAP
0000
0E2C
062C
07F8
0C30
1830
3060
0060
00C0
0180
0300
0600
1C00
0000
ENDCHAR

STARTCHAR jisx0208_2531
ENCODING 9521
SWIDTH 960 0
DWIDTH 14 0
BBX 14 14 0 -2
BITMAP
0000
1C00
0C00
0C18
1FFC
30C0
60C0
00C0
0180
0180
0300
0600
1C00
0000
ENDCHAR

STARTCHAR jisx0208_2532
ENCODING 9522
SWIDTH 960 0
DWIDTH 14 0
BBX 14 14 0 -2
BITMAP
0000
1C2C
0C2C
0C00
1FFC
30C0
60C0
00C0
0180
0180
0300
0600
1C00
0000
ENDCHAR

STARTCHAR jisx0208_2533
ENCODING 9523
SWIDTH 960 0
DWIDTH 14 0
BBX 14 14 0 -2
BITMAP
0000
0000
0000
3030
1FF8
0030
0030
0030
0030
3030
1FF8
0000
0000
0000
ENDCHAR

STARTCHAR jisx0208_2534
ENCODING 9524
SWIDTH 960 0
DWIDTH 14 0
BBX 14 14 0 -2
BITMAP
0000
002C
002C
3000
1FF8
0030
0030
0030
0030
3030
1FF8
0000
0000
0000
ENDCHAR

STARTCHAR jisx0208_2535
ENCODING 9525
SWIDTH 960 0
DWIDTH 14 0
BBX 14 14 0 -2
BITMAP
0000
1CE0
0C60
6C58
3FFC
0C60
0C60
0C60
0C60
0060
00C0
0180
0700
0000
ENDCHAR

STARTCHAR jisx0208_2536
ENCODING 9526
SWIDTH 960 0
DWIDTH 14 0
BBX 14 14 0 -2
BITMAP
0000
1CEC
0C6C
6C60
3FFC
0C60
0C60
0C60
0C60
0060
00C0
0180
0700
0000
ENDCHAR

STARTCHAR jisx0208_2537
ENCODING 9527
SWIDTH 960 0
DWIDTH 14 0
BBX 14 14 0 -2
BITMAP
0000
0000
3800
0C00
0000
7018
1818
0030
0060
00C0
0180
3700
3C00
0000
ENDCHAR

STARTCHAR jisx0208_2538
ENCODING 9528
SWIDTH 960 0
DWIDTH 14 0
BBX 14 14 0 -2
BITMAP
0000
0058
3858
0C00
0000
7018
1818
0030
0060
00C0
0180
3700
3C00
0000
ENDCHAR

STARTCHAR jisx0208_2539
ENCODING 9529
SWIDTH 960 0
DWIDTH 14 0
BBX 14 14 0 -2
BITMAP
0000
0000
1860
0FF0
0060
0060
00C0
00C0
0160
0330
0E18
3818
0000
0000
ENDCHAR

STARTCHAR jisx0208_253A
ENCODING 9530
SWIDTH 960 0
DWIDTH 14 0
BBX 14 14 0 -2
BITMAP
0000
002C
182C
0FF0
0060
0060
00C0
00C0
0160
0330
0E18
3818
0000
0000
ENDCHAR

STARTCHAR jisx0208_253B
ENCODING 9531
SWIDTH 960 0
DWIDTH 14 0
BBX 14 14 0 -2
BITMAP
0000
1C00
0C00
0C18
6FFC
3C18
0C30
0C60
0CC0
0C00
0C30
07F8
0000
0000
ENDCHAR

STARTCHAR jisx0208_253C
ENCODING 9532
SWIDTH 960 0
DWIDTH 14 0
BBX 14 14 0 -2
BITMAP
0000
1C2C
0C2C
0C00
6FFC
3C18
0C30
0C60
0CC0
0C00
0C30
07F8
0000
0000
ENDCHAR

STARTCHAR jisx0208_253D
ENCODING 9533
SWIDTH 960 0
DWIDTH 14 0
BBX 14 14 0 -2
BITMAP
0000
0000
3038
1818
0C18
0C30
0030
0060
0060
00C0
0180
0300
0E00
0000
ENDCHAR

STARTCHAR jisx0208_253E
ENCODING 9534
SWIDTH 960 0
DWIDTH 14 0
BBX 14 14 0 -2
BITMAP
0000
002C
302C
1838
0C18
0C30
0030
0060
0060
00C0
0180
0300
0E00
0000
ENDCHAR

STARTCHAR jisx0208_253F
ENCODING 9535
SWIDTH 960 0
DWIDTH 14 0
BBX 14 14 0 -2
BITMAP
0000
0E00
0630
07F8
0C30
1830
3760
0160
00C0
0160
0300
0600
1C00
0000
ENDCHAR

STARTCHAR jisx0208_2540
ENCODING 9536
SWIDTH 960 0
DWIDTH 14 0
BBX 14 14 0 -2
BITMAP
0000
0E2C
062C
07F8
0C30
1830
3760
0160
00C0
0160
0300
0600
1C00
0000
ENDCHAR

STARTCHAR jisx0208_2541
ENCODING 9537
SWIDTH 960 0
DWIDTH 14 0
BBX 14 14 0 -2
BITMAP
0000
0060
01E0
3F00
0300
0330
7FF8
0300
0300
0300
0300
0600
1C00
0000
ENDCHAR

STARTCHAR jisx0208_2542
ENCODING 9538
SWIDTH 960 0
DWIDTH 14 0
BBX 14 14 0 -2
BITMAP
0000
0060
01E0
3F2C
032C
0300
7FF8
0300
0300
0300
0300
0600
1C00
0000
ENDCHAR

STARTCHAR jisx0208_2543
ENCODING 9539
SWIDTH 960 0
DWIDTH 14 0
BBX 14 14 0 -2
BITMAP
0000
0000
0000
0000
0600
3370
1B30
1830
0060
0060
00C0
0380
0E00
0000
ENDCHAR

STARTCHAR jisx0208_2544
ENCODING 9540
SWIDTH 960 0
DWIDTH 14 0
BBX 14 14 0 -2
BITMAP
0000
0000
0600
3338
1B18
1818
0030
0030
0060
00C0
0180
0300
0E00
0000
ENDCHAR

STARTCHAR jisx0208_2545
ENCODING 9541
SWIDTH 960 0
DWIDTH 14 0
BBX 14 14 0 -2
BITMAP
0000
002C
062C
3318
1B18
1818
0030
0030
0060
00C0
0180
0300
0E00
0000
ENDCHAR

STARTCHAR jisx0208_2546
ENCODING 9542
SWIDTH 960 0
DWIDTH 14 0
BBX 14 14 0 -2
BITMAP
0000
0000
1FE0
0000
0000
6030
3FF8
0300
0300
0300
0300
0600
1C00
0000
ENDCHAR

STARTCHAR jisx0208_2547
ENCODING 9543
SWIDTH 960 0
DWIDTH 14 0
BBX 14 14 0 -2
BITMAP
0000
002C
1FEC
0000
0000
6030
3FF8
0300
0300
0300
0300
0600
1C00
0000
ENDCHAR

STARTCHAR jisx0208_2548
ENCODING 9544
SWIDTH 960 0
DWIDTH 14 0
BBX 14 14 0 -2
BITMAP
0000
0E00
0600
0600
0600
0780
06C0
0660
0600
0600
0600
0E00
0600
0000
ENDCHAR

STARTCHAR jisx0208_2549
ENCODING 9545
SWIDTH 960 0
DWIDTH 14 0
BBX 14 14 0 -2
BITMAP
0000
0E00
0658
0658
0600
0780
06C0
0660
0600
0600
0600
0E00
0600
0000
ENDCHAR

STARTCHAR jisx0208_254A
ENCODING 9546
SWIDTH 960 0
DWIDTH 14 0
BBX 14 14 0 -2
BITMAP
0000
0700
0300
0300
6330
3FF8
0300
0300
0300
0300
0300
0600
1C00
0000
ENDCHAR

STARTCHAR jisx0208_254B
ENCODING 9547
SWIDTH 960 0
DWIDTH 14 0
BBX 14 14 0 -2
BITMAP
0000
0000
0000
18C0
0FE0
0000
0000
0000
0000
6030
3FF8
0000
0000
0000
ENDCHAR

STARTCHAR jisx0208_254C
ENCODING 9548
SWIDTH 960 0
DWIDTH 14 0
BBX 14 14 0 -2
BITMAP
0000
0000
1830
0FF8
0030
0030
0E60
0360
00C0
0160
0330
0E00
3800
0000
ENDCHAR

STARTCHAR jisx0208_254D
ENCODING 9549
SWIDTH 960 0
DWIDTH 14 0
BBX 14 14 0 -2
BITMAP
0000
0700
0180
0000
1FE0
0180
0300
06E0
1B30
7318
0300
0300
0300
0000
ENDCHAR

STARTCHAR jisx0208_254E
ENCODING 9550
SWIDTH 960 0
DWIDTH 14 0
BBX 14 14 0 -2
BITMAP
0000
0000
0030
0018
0030
0030
0060
00C0
0180
0300
0E00
3800
0000
0000
ENDCHAR

STARTCHAR jisx0208_254F
ENCODING 9551
SWIDTH 960 0
DWIDTH 14 0
BBX 14 14 0 -2
BITMAP
0000
0000
0000
1CC0
0C60
0C60
1830
1830
3018
3018
6018
0000
0000
0000
ENDCHAR

STARTCHAR jisx0208_2550
ENCODING 9552
SWIDTH 960 0
DWIDTH 14 0
BBX 14 14 0 -2
BITMAP
0000
002C
002C
1CC0
0C60
0C60
1830
1830
3018
3018
6018
0000
0000
0000
ENDCHAR

STARTCHAR jisx0208_2551
ENCODING 9553
SWIDTH 960 0
DWIDTH 14 0
BBX 14 14 0 -2
BITMAP
0000
0018
002C
1CD8
0C60
0C60
1830
1830
3018
3018
6018
0000
0000
0000
ENDCHAR

STARTCHAR jisx0208_2552
ENCODING 9554
SWIDTH 960 0
DWIDTH 14 0
BBX 14 14 0 -2
BITMAP
0000
3800
1800
1830
18F0
1F80
1800
1800
1800
1800
1830
0FF0
0000
0000
ENDCHAR

STARTCHAR jisx0208_2553
ENCODING 9555
SWIDTH 960 0
DWIDTH 14 0
BBX 14 14 0 -2
BITMAP
0000
382C
182C
1800
18F0
1F80
1800
1800
1800
1800
1830
0FF0
0000
0000
ENDCHAR

STARTCHAR jisx0208_2554
ENCODING 9556
SWIDTH 960 0
DWIDTH 14 0
BBX 14 14 0 -2
BITMAP
0000
3818
182C
1818
18F0
1F80
1800
1800
1800
1800
1830
0FF0
0000
0000
ENDCHAR

STARTCHAR jisx0208_2555
ENCODING 9557
SWIDTH 960 0
DWIDTH 14 0
BBX 14 14 0 -2
BITMAP
0000
0000
6030
3FF8
0030
0030
0060
0060
00C0
0180
0700
1C00
0000
0000
ENDCHAR

STARTCHAR jisx0208_2556
ENCODING 9558
SWIDTH 960 0
DWIDTH 14 0
BBX 14 14 0 -2
BITMAP
0000
002C
602C
3FF0
0030
0030
0060
0060
00C0
0180
0700
1C00
0000
0000
ENDCHAR

STARTCHAR jisx0208_2557
ENCODING 9559
SWIDTH 960 0
DWIDTH 14 0
BBX 14 14 0 -2
BITMAP
0000
0018
602C
3FF8
0030
0030
0060
0060
00C0
0180
0700
1C00
0000
0000
ENDCHAR

STARTCHAR jisx0208_2558
ENCODING 9560
SWIDTH 960 0
DWIDTH 14 0
BBX 14 14 0 -2
BITMAP
0000
0000
0000
0000
0700
0D80
58C0
7060
0030
0018
000C
0000
0000
0000
ENDCHAR

STARTCHAR jisx0208_2559
ENCODING 9561
SWIDTH 960 0
DWIDTH 14 0
BBX 14 14 0 -2
BITMAP
0000
0000
0000
0058
0758
0D80
58C0
7060
0030
0018
000C
0000
0000
0000
ENDCHAR

STARTCHAR jisx0208_255A
ENCODING 9562
SWIDTH 960 0
DWIDTH 14 0
BBX 14 14 0 -2
BITMAP
0000
0000
0030
0058
0730
0D80
58C0
7060
0030
0018
000C
0000
0000
0000
ENDCHAR

STARTCHAR jisx0208_255B
ENCODING 9563
SWIDTH 960 0
DWIDTH 14 0
BBX 14 14 0 -2
BITMAP
0000
0700
0300
6330
3FF8
0300
1B60
1B30
3318
6318
0B00
0700
0600
0000
ENDCHAR

STARTCHAR jisx0208_255C
ENCODING 9564
SWIDTH 960 0
DWIDTH 14 0
BBX 14 14 0 -2
BITMAP
0000
072C
032C
6300
3FF8
0300
1B60
1B30
3318
6318
0B00
0700
0600
0000
ENDCHAR

STARTCHAR jisx0208_255D
ENCODING 9565
SWIDTH 960 0
DWIDTH 14 0
BBX 14 14 0 -2
BITMAP
0000
0718
032C
6338
3FF8
0300
1B60
1B30
3318
6318
0B00
0700
0600
0000
ENDCHAR

STARTCHAR jisx0208_255E
ENCODING 9566
SWIDTH 960 0
DWIDTH 14 0
BBX 14 14 0 -2
BITMAP
0000
0000
3018
1FFC
0018
0030
0060
0CC0
0580
0300
0180
0180
0000
0000
ENDCHAR

STARTCHAR jisx0208_255F
ENCODING 9567
SWIDTH 960 0
DWIDTH 14 0
BBX 14 14 0 -2
BITMAP
0000
0000
0F80
00E0
0000
0000
0F80
00E0
0000
0000
1F00
01E0
0030
0000
ENDCHAR

STARTCHAR jisx0208_2560
ENCODING 9568
SWIDTH 960 0
DWIDTH 14 0
BBX 14 14 0 -2
BITMAP
0000
0600
0300
0300
0600
0600
0600
0CC0
0C60
1830
19F8
7F18
0018
0000
ENDCHAR

STARTCHAR jisx0208_2561
ENCODING 9569
SWIDTH 960 0
DWIDTH 14 0
BBX 14 14 0 -2
BITMAP
0000
0000
0070
0030
0030
0760
0160
00C0
0160
0330
0E00
3800
0000
0000
ENDCHAR

STARTCHAR jisx0208_2562
ENCODING 9570
SWIDTH 960 0
DWIDTH 14 0
BBX 14 14 0 -2
BITMAP
0000
0000
3FF0
0600
0600
0600
7FF8
0600
0600
0600
0630
03F0
0000
0000
ENDCHAR

STARTCHAR jisx0208_2563
ENCODING 9571
SWIDTH 960 0
DWIDTH 14 0
BBX 14 14 0 -2
BITMAP
0000
0000
0000
0000
0E00
0630
37F8
3E30
0660
02C0
0300
0300
0300
0000
ENDCHAR

STARTCHAR jisx0208_2564
ENCODING 9572
SWIDTH 960 0
DWIDTH 14 0
BBX 14 14 0 -2
BITMAP
0000
0E00
0600
0618
67FC
3E18
0630
0660
02C0
0300
0300
0300
0300
0000
ENDCHAR

STARTCHAR jisx0208_2565
ENCODING 9573
SWIDTH 960 0
DWIDTH 14 0
BBX 14 14 0 -2
BITMAP
0000
0000
0000
0000
0000
18C0
0FE0
00C0
00C0
00C0
30C0
1FF0
0000
0000
ENDCHAR

STARTCHAR jisx0208_2566
ENCODING 9574
SWIDTH 960 0
DWIDTH 14 0
BBX 14 14 0 -2
BITMAP
0000
0000
0000
1860
0FF0
0060
0060
0060
0060
6060
3FFC
0000
0000
0000
ENDCHAR

STARTCHAR jisx0208_2567
ENCODING 9575
SWIDTH 960 0
DWIDTH 14 0
BBX 14 14 0 -2
BITMAP
0000
0000
0000
0000
1860
0FF0
0060
1860
0FE0
0060
1860
0FF0
0000
0000
ENDCHAR

STARTCHAR jisx0208_2568
ENCODING 9576
SWIDTH 960 0
DWIDTH 14 0
BBX 14 14 0 -2
BITMAP
0000
0000
3060
1FF0
0060
0060
3060
1FE0
0060
0060
3060
1FF0
0000
0000
ENDCHAR

STARTCHAR jisx0208_2569
ENCODING 9577
SWIDTH 960 0
DWIDTH 14 0
BBX 14 14 0 -2
BITMAP
0000
0000
1FE0
0000
6030
3FF8
0030
0030
0060
0060
00C0
0380
0E00
0000
ENDCHAR

STARTCHAR jisx0208_256A
ENCODING 9578
SWIDTH 960 0
DWIDTH 14 0
BBX 14 14 0 -2
BITMAP
0000
00E0
1C60
0C60
0C60
0C60
0C60
0C60
0C60
00C0
00C0
0180
0700
0000
ENDCHAR

STARTCHAR jisx0208_256B
ENCODING 9579
SWIDTH 960 0
DWIDTH 14 0
BBX 14 14 0 -2
BITMAP
0000
0000
0380
1D80
0D80
0D80
0D80
0D8C
0D98
19B0
1960
31C0
6000
0000
ENDCHAR

STARTCHAR jisx0208_256C
ENCODING 9580
SWIDTH 960 0
DWIDTH 14 0
BBX 14 14 0 -2
BITMAP
0000
0000
3800
1800
1800
1800
1818
1830
1860
18C0
1B80
1E00
1800
0000
ENDCHAR

STARTCHAR jisx0208_256D
ENCODING 9581
SWIDTH 960 0
DWIDTH 14 0
BBX 14 14 0 -2
BITMAP
0000
0000
0000
3830
1FF8
1830
1830
1830
1830
1830
1FF8
1800
0000
0000
ENDCHAR

STARTCHAR jisx0208_256E
ENCODING 9582
SWIDTH 960 0
DWIDTH 14 0
BBX 14 14 0 -2
BITMAP
0000
0000
0000
0000
3860
1FF0
1860
1860
1860
00C0
00C0
0180
0700
0000
ENDCHAR

STARTCHAR jisx0208_256F
ENCODING 9583
SWIDTH 960 0
DWIDTH 14 0
BBX 14 14 0 -2
BITMAP
0000
0000
3830
1FF8
1830
1830
1830
1830
0060
0060
00C0
0180
0700
0000
ENDCHAR

STARTCHAR jisx0208_2570
ENCODING 9584
SWIDTH 960 0
DWIDTH 14 0
BBX 14 14 0 -2
BITMAP
0000
0380
0180
3180
1FF0
0D80
0D80
6D80
3FF8
0180
0180
0180
0180
0000
ENDCHAR

STARTCHAR jisx0208_2571
ENCODING 9585
SWIDTH 960 0
DWIDTH 14 0
BBX 14 14 0 -2
BITMAP
0000
0000
0000
3030
1FF8
0060
06C0
0380
0300
6318
3FFC
0000
0000
0000
ENDCHAR

STARTCHAR jisx0208_2572
ENCODING 9586
SWIDTH 960 0
DWIDTH 14 0
BBX 14 14 0 -2
BITMAP
0000
0000
3030
1FF8
0030
3030
1FF0
0030
0060
0060
00C0
0380
0E00
0000
ENDCHAR

STARTCHAR jisx0208_2573
ENCODING 9587
SWIDTH 960 0
DWIDTH 14 0
BBX 14 14 0 -2
BITMAP
0000
0000
3000
1800
0C00
0018
0018
0030
0060
00C0
0180
3700
3C00
0000
ENDCHAR

STARTCHAR jisx0208_2574
ENCODING 9588
SWIDTH 960 0
DWIDTH 14 0
BBX 14 14 0 -2
BITMAP
0000
072C
032C
7300
3FF8
3030
3030
3030
3060
0060
00C0
0180
0700
0000
ENDCHAR

STARTCHAR jisx0208_2575
ENCODING 9589
SWIDTH 960 0
DWIDTH 14 0
BBX 14 14 0 -2
BITMAP
0000
0000
0000
0000
0700
0330
1FF8
0330
0630
0630
0D60
18E0
00C0
0000
ENDCHAR

STARTCHAR jisx0208_2576
ENCODING 9590
SWIDTH 960 0
DWIDTH 14 0
BBX 14 14 0 -2
BITMAP
0000
0000
0000
0000
0E00
0600
0FF0
18C0
30C0
00C0
0180
0300
0E00
0000
ENDCHAR

STARTCHAR jisx0208_2621
ENCODING 9761
SWIDTH 960 0
DWIDTH 14 0
BBX 14 14 0 -2
BITMAP
0000
0000
0380
0380
06C0
06C0
06C0
0C60
0C60
1FF0
1830
3C78
0000
0000
ENDCHAR

STARTCHAR jisx0208_2622
ENCODING 9762
SWIDTH 960 0
DWIDTH 14 0
BBX 14 14 0 -2
BITMAP
0000
0000
1FC0
0C60
0C60
0C60
0FE0
0C30
0C30
0C30
0C30
1FE0
0000
0000
ENDCHAR

STARTCHAR jisx0208_2623
ENCODING 9763
SWIDTH 960 0
DWIDTH 14 0
BBX 14 14 0 -2
BITMAP
0000
0000
1FF0
0C30
0C30
0C00
0C00
0C00
0C00
0C00
0C00
1E00
0000
0000
ENDCHAR

STARTCHAR jisx0208_2624
ENCODING 9764
SWIDTH 960 0
DWIDTH 14 0
BBX 14 14 0 -2
BITMAP
0000
0000
0380
0380
06C0
06C0
06C0
0C60
0C60
1830
1830
3FF8
0000
0000
ENDCHAR

STARTCHAR jisx0208_2625
ENCODING 9765
SWIDTH 960 0
DWIDTH 14 0
BBX 14 14 0 -2
BITMAP
0000
0000
1FF0
0C30
0C30
0CC0
0FC0
0CC0
0C00
0C30
0C30
1FF0
0000
0000
ENDCHAR

STARTCHAR jisx0208_2626
ENCODING 9766
SWIDTH 960 0
DWIDTH 14 0
BBX 14 14 0 -2
BITMAP
0000
0000
1FE0
1860
18C0
0180
0300
0300
0600
0C60
1860
1FE0
0000
0000
ENDCHAR

STARTCHAR jisx0208_2627
ENCODING 9767
SWIDTH 960 0
DWIDTH 14 0
BBX 14 14 0 -2
BITMAP
0000
0000
3CF0
1860
1860
1860
1FE0
1860
1860
1860
1860
3CF0
0000
0000
ENDCHAR

STARTCHAR jisx0208_2628
ENCODING 9768
SWIDTH 960 0
DWIDTH 14 0
BBX 14 14 0 -2
BITMAP
0000
0000
07C0
0C60
1830
16B0
17B0
16B0
1830
1830
0C60
07C0
0000
0000
ENDCHAR

STARTCHAR jisx0208_2629
ENCODING 9769
SWIDTH 960 0
DWIDTH 14 0
BBX 14 14 0 -2
BITMAP
0000
0000
0780
0300
0300
0300
0300
0300
0300
0300
0300
0780
0000
0000
ENDCHAR

STARTCHAR jisx0208_262A
ENCODING 9770
SWIDTH 960 0
DWIDTH 14 0
BBX 14 14 0 -2
BITMAP
0000
0000
3DE0
18C0
1980
1B00
1700
1D80
1980
18C0
1860
3CF0
0000
0000
ENDCHAR

STARTCHAR jisx0208_262B
ENCODING 9771
SWIDTH 960 0
DWIDTH 14 0
BBX 14 14 0 -2
BITMAP
0000
0000
0380
0380
06C0
06C0
06C0
0C60
0C60
1830
1830
3C78
0000
0000
ENDCHAR

STARTCHAR jisx0208_262C
ENCODING 9772
SWIDTH 960 0
DWIDTH 14 0
BBX 14 14 0 -2
BITMAP
0000
0000
7878
3870
3870
2CB0
2CB0
35B0
35B0
35B0
3330
7B78
0000
0000
ENDCHAR

STARTCHAR jisx0208_262D
ENCODING 9773
SWIDTH 960 0
DWIDTH 14 0
BBX 14 14 0 -2
BITMAP
0000
0000
3CF0
1C60
1660
1660
1B60
1960
1960
18E0
18E0
3C60
0000
0000
ENDCHAR

STARTCHAR jisx0208_262E
ENCODING 9774
SWIDTH 960 0
DWIDTH 14 0
BBX 14 14 0 -2
BITMAP
0000
0000
1FF0
1830
0000
0C60
0FE0
0C60
0000
1830
1830
1FF0
0000
0000
ENDCHAR

STARTCHAR jisx0208_262F
ENCODING 9775
SWIDTH 960 0
DWIDTH 14 0
BBX 14 14 0 -2
BITMAP
0000
0000
07C0
0C60
1830
1830
1830
1830
1830
1830
0C60
07C0
0000
0000
ENDCHAR

STARTCHAR jisx0208_2630
ENCODING 9776
SWIDTH 960 0
DWIDTH 14 0
BBX 14 14 0 -2
BITMAP
0000
0000
3FF0
1860
1860
1860
1860
1860
1860
1860
1860
3CF0
0000
0000
ENDCHAR

STARTCHAR jisx0208_2631
ENCODING 9777
SWIDTH 960 0
DWIDTH 14 0
BBX 14 14 0 -2
BITMAP
0000
0000
1FC0
0C60
0C30
0C30
0C60
0FC0
0C00
0C00
0C00
1E00
0000
0000
ENDCHAR

STARTCHAR jisx0208_2632
ENCODING 9778
SWIDTH 960 0
DWIDTH 14 0
BBX 14 14 0 -2
BITMAP
0000
0000
1FF0
0C30
0630
0300
0180
0300
0600
0C30
1830
1FF0
0000
0000
ENDCHAR

STARTCHAR jisx0208_2633
ENCODING 9779
SWIDTH 960 0
DWIDTH 14 0
BBX 14 14 0 -2
BITMAP
0000
0000
3FF0
3330
3330
0300
0300
0300
0300
0300
0300
0780
0000
0000
ENDCHAR

STARTCHAR jisx0208_2634
ENCODING 9780
SWIDTH 960 0
DWIDTH 14 0
BBX 14 14 0 -2
BITMAP
0000
0000
1CE0
35B0
0300
0300
0300
0300
0300
0300
0300
0780
0000
0000
ENDCHAR

STARTCHAR jisx0208_2635
ENCODING 9781
SWIDTH 960 0
DWIDTH 14 0
BBX 14 14 0 -2
BITMAP
0000
0000
0780
0300
0FC0
1B60
3330
3330
1B60
0FC0
0300
0780
0000
0000
ENDCHAR

STARTCHAR jisx0208_2636
ENCODING 9782
SWIDTH 960 0
DWIDTH 14 0
BBX 14 14 0 -2
BITMAP
0000
0000
1EF0
0C60
06C0
06C0
0380
0380
06C0
06C0
0C60
1EF0
0000
0000
ENDCHAR

STARTCHAR jisx0208_2637
ENCODING 9783
SWIDTH 960 0
DWIDTH 14 0
BBX 14 14 0 -2
BITMAP
0000
0000
3770
1B60
1B60
1B60
1B60
1B60
1B60
0FC0
0300
0780
0000
0000
ENDCHAR

STARTCHAR jisx0208_2638
ENCODING 9784
SWIDTH 960 0
DWIDTH 14 0
BBX 14 14 0 -2
BITMAP
0000
0000
07C0
0C60
1830
1830
1830
1830
0C60
06C0
16B0
1EF0
0000
0000
ENDCHAR

STARTCHAR jisx0208_2641
ENCODING 9793
SWIDTH 960 0
DWIDTH 14 0
BBX 14 14 0 -2
BITMAP
0000
0000
0000
0000
0000
07B0
0CB0
18E0
18E0
18C0
19B0
0EE0
0000
0000
ENDCHAR

STARTCHAR jisx0208_2642
ENCODING 9794
SWIDTH 960 0
DWIDTH 14 0
BBX 14 14 0 -2
BITMAP
0000
0000
01E0
0330
0630
0630
05E0
0C30
0C30
0C30
1660
1BC0
3C00
0000
ENDCHAR

STARTCHAR jisx0208_2643
ENCODING 9795
SWIDTH 960 0
DWIDTH 14 0
BBX 14 14 0 -2
BITMAP
0000
0000
0000
0000
0000
0EF0
1B80
0300
0300
0300
0600
0600
0F00
0000
ENDCHAR

STARTCHAR jisx0208_2644
ENCODING 9796
SWIDTH 960 0
DWIDTH 14 0
BBX 14 14 0 -2
BITMAP
0000
0000
03E0
0670
0300
07C0
0C60
1860
1860
1860
18C0
0F80
0000
0000
ENDCHAR

STARTCHAR jisx0208_2645
ENCODING 9797
SWIDTH 960 0
DWIDTH 14 0
BBX 14 14 0 -2
BITMAP
0000
0000
0000
0000
0000
03E0
0660
0600
07C0
0C00
0C60
07C0
0000
0000
ENDCHAR

STARTCHAR jisx0208_2646
ENCODING 9798
SWIDTH 960 0
DWIDTH 14 0
BBX 14 14 0 -2
BITMAP
0000
0000
0660
07C0
0180
0300
0600
0C00
0C00
0C00
07C0
0060
07C0
0000
ENDCHAR

STARTCHAR jisx0208_2647
ENCODING 9799
SWIDTH 960 0
DWIDTH 14 0
BBX 14 14 0 -2
BITMAP
0000
0000
0000
0000
0000
0DC0
1760
0660
0660
0C60
0CC0
1EC0
01E0
0000
ENDCHAR

STARTCHAR jisx0208_2648
ENCODING 9800
SWIDTH 960 0
DWIDTH 14 0
BBX 14 14 0 -2
BITMAP
0000
0000
07C0
0C60
0C60
1860
1FE0
1860
1860
18C0
18C0
0F80
0000
0000
ENDCHAR

STARTCHAR jisx0208_2649
ENCODING 9801
SWIDTH 960 0
DWIDTH 14 0
BBX 14 14 0 -2
BITMAP
0000
0000
0000
0000
0000
0700
0300
0300
0600
0600
06C0
0780
0000
0000
ENDCHAR

STARTCHAR jisx0208_264A
ENCODING 9802
SWIDTH 960 0
DWIDTH 14 0
BBX 14 14 0 -2
BITMAP
0000
0000
0000
0000
0000
0E70
06B0
0580
0780
0D80
0DB0
1EE0
0000
0000
ENDCHAR

STARTCHAR jisx0208_264B
ENCODING 9803
SWIDTH 960 0
DWIDTH 14 0
BBX 14 14 0 -2
BITMAP
0000
0000
0380
06C0
00C0
00C0
01C0
02C0
02C0
06C0
0CB0
1EE0
0000
0000
ENDCHAR

STARTCHAR jisx0208_264C
ENCODING 9804
SWIDTH 960 0
DWIDTH 14 0
BBX 14 14 0 -2
BITMAP
0000
0000
0000
0000
0000
0C60
0C60
0C60
18C0
18C0
18B0
1F60
3800
0000
ENDCHAR

STARTCHAR jisx0208_264D
ENCODING 9805
SWIDTH 960 0
DWIDTH 14 0
BBX 14 14 0 -2
BITMAP
0000
0000
0000
0000
0000
18E0
0C60
0C60
06C0
0580
0700
0600
0000
0000
ENDCHAR

STARTCHAR jisx0208_264E
ENCODING 9806
SWIDTH 960 0
DWIDTH 14 0
BBX 14 14 0 -2
BITMAP
0000
0000
0300
03E0
0600
0600
03C0
0600
0C00
0C00
07C0
0060
03C0
0000
ENDCHAR

STARTCHAR jisx0208_264F
ENCODING 9807
SWIDTH 960 0
DWIDTH 14 0
BBX 14 14 0 -2
BITMAP
0000
0000
0000
0000
0000
07C0
0C60
1860
1860
1860
18C0
0F80
0000
0000
ENDCHAR

STARTCHAR jisx0208_2650
ENCODING 9808
SWIDTH 960 0
DWIDTH 14 0
BBX 14 14 0 -2
BITMAP
0000
0000
0000
0000
0000
0FF0
16C0
06C0
06C0
0D80
2D60
39C0
0000
0000
ENDCHAR

STARTCHAR jisx0208_2651
ENCODING 9809
SWIDTH 960 0
DWIDTH 14 0
BBX 14 14 0 -2
BITMAP
0000
0000
0000
0000
0000
01E0
0330
0630
0630
0630
0BE0
0C00
1E00
0000
ENDCHAR

STARTCHAR jisx0208_2652
ENCODING 9810
SWIDTH 960 0
DWIDTH 14 0
BBX 14 14 0 -2
BITMAP
0000
0000
0000
0000
0000
07F0
0C60
1860
1860
1860
18C0
0F80
0000
0000
ENDCHAR

STARTCHAR jisx0208_2653
ENCODING 9811
SWIDTH 960 0
DWIDTH 14 0
BBX 14 14 0 -2
BITMAP
0000
0000
0000
0000
0000
07E0
0B00
0300
0300
0600
06C0
0780
0000
0000
ENDCHAR

STARTCHAR jisx0208_2654
ENCODING 9812
SWIDTH 960 0
DWIDTH 14 0
BBX 14 14 0 -2
BITMAP
0000
0000
0000
0000
0000
18C0
0C60
0C60
0C60
1860
18C0
0F80
0000
0000
ENDCHAR

STARTCHAR jisx0208_2655
ENCODING 9813
SWIDTH 960 0
DWIDTH 14 0
BBX 14 14 0 -2
BITMAP
0000
0000
0000
0380
0180
07C0
0B60
1B60
1B60
1AC0
0F80
0600
0F00
0000
ENDCHAR

STARTCHAR jisx0208_2656
ENCODING 9814
SWIDTH 960 0
DWIDTH 14 0
BBX 14 14 0 -2
BITMAP
0000
0000
0000
0000
0000
0EF8
0B60
02C0
0380
0380
0580
0DB0
3EE0
0000
ENDCHAR

STARTCHAR jisx0208_2657
ENCODING 9815
SWIDTH 960 0
DWIDTH 14 0
BBX 14 14 0 -2
BITMAP
0000
0000
0000
0000
0000
0DB0
06B0
06B0
0DB0
0D60
07C0
0300
0780
0000
ENDCHAR

STARTCHAR jisx0208_2658
ENCODING 9816
SWIDTH 960 0
DWIDTH 14 0
BBX 14 14 0 -2
BITMAP
0000
0000
0000
0000
0000
0660
0C30
19B0
19B0
1B30
1B60
0DC0
0000
0000
ENDCHAR

STARTCHAR jisx0208_2721
ENCODING 10017
SWIDTH 960 0
DWIDTH 14 0
BBX 14 14 0 -2
BITMAP
0000
0000
0380
0380
06C0
06C0
06C0
0C60
0C60
1FF0
1830
3C78
0000
0000
ENDCHAR

STARTCHAR jisx0208_2722
ENCODING 10018
SWIDTH 960 0
DWIDTH 14 0
BBX 14 14 0 -2
BITMAP
0000
0000
1FE0
0C60
0C00
0C00
0FC0
0C60
0C30
0C30
0C60
1FC0
0000
0000
ENDCHAR

STARTCHAR jisx0208_2723
ENCODING 10019
SWIDTH 960 0
DWIDTH 14 0
BBX 14 14 0 -2
BITMAP
0000
0000
1FC0
0C60
0C60
0C60
0FE0
0C30
0C30
0C30
0C30
1FE0
0000
0000
ENDCHAR

STARTCHAR jisx0208_2724
ENCODING 10020
SWIDTH 960 0
DWIDTH 14 0
BBX 14 14 0 -2
BITMAP
0000
0000
1FF0
0C30
0C30
0C00
0C00
0C00
0C00
0C00
0C00
1E00
0000
0000
ENDCHAR

STARTCHAR jisx0208_2725
ENCODING 10021
SWIDTH 960 0
DWIDTH 14 0
BBX 14 14 0 -2
BITMAP
0000
0000
0FF0
0660
0660
0660
0660
0660
0660
0C60
0C60
3FF0
3030
0000
ENDCHAR

STARTCHAR jisx0208_2726
ENCODING 10022
SWIDTH 960 0
DWIDTH 14 0
BBX 14 14 0 -2
BITMAP
0000
0000
1FF0
0C30
0C30
0CC0
0FC0
0CC0
0C00
0C30
0C30
1FF0
0000
0000
ENDCHAR

STARTCHAR jisx0208_2727
ENCODING 10023
SWIDTH 960 0
DWIDTH 14 0
BBX 14 14 0 -2
BITMAP
0000
06C0
0000
1FF0
0C30
0C30
0CC0
0FC0
0CC0
0C30
0C30
1FF0
0000
0000
ENDCHAR

STARTCHAR jisx0208_2728
ENCODING 10024
SWIDTH 960 0
DWIDTH 14 0
BBX 14 14 0 -2
BITMAP
0000
0000
7778
3330
1B60
1B60
0FC0
1B60
1B60
3330
3330
7778
0000
0000
ENDCHAR

STARTCHAR jisx0208_2729
ENCODING 10025
SWIDTH 960 0
DWIDTH 14 0
BBX 14 14 0 -2
BITMAP
0000
0000
17C0
1C60
1860
0060
07C0
0060
1830
1830
0C60
07C0
0000
0000
ENDCHAR

STARTCHAR jisx0208_272A
ENCODING 10026
SWIDTH 960 0
DWIDTH 14 0
BBX 14 14 0 -2
BITMAP
0000
0000
3C70
18E0
18E0
1960
1B60
1B60
1660
1C60
1C60
38F0
0000
0000
ENDCHAR

STARTCHAR jisx0208_272B
ENCODING 10027
SWIDTH 960 0
DWIDTH 14 0
BBX 14 14 0 -2
BITMAP
0000
0DC0
0780
3CF0
18E0
1960
1B60
1B60
1660
1C60
1C60
38F0
0000
0000
ENDCHAR

STARTCHAR jisx0208_272C
ENCODING 10028
SWIDTH 960 0
DWIDTH 14 0
BBX 14 14 0 -2
BITMAP
0000
0000
3DF0
18C0
18C0
1980
1F00
1980
18C0
18C0
1860
3CF0
0000
0000
ENDCHAR

STARTCHAR jisx0208_272D
ENCODING 10029
SWIDTH 960 0
DWIDTH 14 0
BBX 14 14 0 -2
BITMAP
0000
0000
0FF0
0660
0660
0660
0660
0660
0660
0660
3660
1CF0
0000
0000
ENDCHAR

STARTCHAR jisx0208_272E
ENCODING 10030
SWIDTH 960 0
DWIDTH 14 0
BBX 14 14 0 -2
BITMAP
0000
0000
7878
3870
3870
2CB0
2CB0
35B0
35B0
35B0
3330
7B78
0000
0000
ENDCHAR

STARTCHAR jisx0208_272F
ENCODING 10031
SWIDTH 960 0
DWIDTH 14 0
BBX 14 14 0 -2
BITMAP
0000
0000
3CF0
1860
1860
1860
1FE0
1860
1860
1860
1860
3CF0
0000
0000
ENDCHAR

STARTCHAR jisx0208_2730
ENCODING 10032
SWIDTH 960 0
DWIDTH 14 0
BBX 14 14 0 -2
BITMAP
0000
0000
07C0
0C60
1830
1830
1830
1830
1830
1830
0C60
07C0
0000
0000
ENDCHAR

STARTCHAR jisx0208_2731
ENCODING 10033
SWIDTH 960 0
DWIDTH 14 0
BBX 14 14 0 -2
BITMAP
0000
0000
3FF0
1860
1860
1860
1860
1860
1860
1860
1860
3CF0
0000
0000
ENDCHAR

STARTCHAR jisx0208_2732
ENCODING 10034
SWIDTH 960 0
DWIDTH 14 0
BBX 14 14 0 -2
BITMAP
0000
0000
1FC0
0C60
0C30
0C30
0C60
0FC0
0C00
0C00
0C00
1E00
0000
0000
ENDCHAR

STARTCHAR jisx0208_2733
ENCODING 10035
SWIDTH 960 0
DWIDTH 14 0
BBX 14 14 0 -2
BITMAP
0000
0000
07B0
0C70
1830
1830
1800
1800
1800
1830
0C60
07C0
0000
0000
ENDCHAR

STARTCHAR jisx0208_2734
ENCODING 10036
SWIDTH 960 0
DWIDTH 14 0
BBX 14 14 0 -2
BITMAP
0000
0000
3FF0
3330
3330
0300
0300
0300
0300
0300
0300
0780
0000
0000
ENDCHAR

STARTCHAR jisx0208_2735
ENCODING 10037
SWIDTH 960 0
DWIDTH 14 0
BBX 14 14 0 -2
BITMAP
0000
0000
1EF0
0C60
0C60
06C0
06C0
0380
0380
0300
1B00
0E00
0000
0000
ENDCHAR

STARTCHAR jisx0208_2736
ENCODING 10038
SWIDTH 960 0
DWIDTH 14 0
BBX 14 14 0 -2
BITMAP
0000
0000
0780
0300
0FC0
1B60
3330
3330
1B60
0FC0
0300
0780
0000
0000
ENDCHAR

STARTCHAR jisx0208_2737
ENCODING 10039
SWIDTH 960 0
DWIDTH 14 0
BBX 14 14 0 -2
BITMAP
0000
0000
1EF0
0C60
06C0
06C0
0380
0380
06C0
06C0
0C60
1EF0
0000
0000
ENDCHAR

STARTCHAR jisx0208_2738
ENCODING 10040
SWIDTH 960 0
DWIDTH 14 0
BBX 14 14 0 -2
BITMAP
0000
0000
3CF0
1860
1860
1860
1860
1860
1860
1860
1860
3FF8
0018
0000
ENDCHAR

STARTCHAR jisx0208_2739
ENCODING 10041
SWIDTH 960 0
DWIDTH 14 0
BBX 14 14 0 -2
BITMAP
0000
0000
1EF0
0C60
0C60
0C60
0C60
0CE0
0760
0060
0060
00F0
0000
0000
ENDCHAR

STARTCHAR jisx0208_273A
ENCODING 10042
SWIDTH 960 0
DWIDTH 14 0
BBX 14 14 0 -2
BITMAP
0000
0000
7778
3330
3330
3330
3330
3330
3330
3330
3330
7FF8
0000
0000
ENDCHAR

STARTCHAR jisx0208_273B
ENCODING 10043
SWIDTH 960 0
DWIDTH 14 0
BBX 14 14 0 -2
BITMAP
0000
0000
7778
3330
3330
3330
3330
3330
3330
3330
3330
7FF8
0018
0000
ENDCHAR

STARTCHAR jisx0208_273C
ENCODING 10044
SWIDTH 960 0
DWIDTH 14 0
BBX 14 14 0 -2
BITMAP
0000
0000
3E00
2C00
2C00
0C00
0FE0
0C30
0C30
0C30
0C30
1FE0
0000
0000
ENDCHAR

STARTCHAR jisx0208_273D
ENCODING 10045
SWIDTH 960 0
DWIDTH 14 0
BBX 14 14 0 -2
BITMAP
0000
0000
7878
3030
3030
3030
3F30
31B0
31B0
31B0
31B0
7F78
0000
0000
ENDCHAR

STARTCHAR jisx0208_273E
ENCODING 10046
SWIDTH 960 0
DWIDTH 14 0
BBX 14 14 0 -2
BITMAP
0000
0000
1E00
0C00
0C00
0C00
0FE0
0C30
0C30
0C30
0C30
1FE0
0000
0000
ENDCHAR

STARTCHAR jisx0208_273F
ENCODING 10047
SWIDTH 960 0
DWIDTH 14 0
BBX 14 14 0 -2
BITMAP
0000
0000
17C0
1C60
1830
1830
07F0
0030
0030
1830
0C60
07C0
0000
0000
ENDCHAR

STARTCHAR jisx0208_2740
ENCODING 10048
SWIDTH 960 0
DWIDTH 14 0
BBX 14 14 0 -2
BITMAP
0000
0000
79E0
3330
3618
3618
3E18
3618
3618
3618
3330
79E0
0000
0000
ENDCHAR

STARTCHAR jisx0208_2741
ENCODING 10049
SWIDTH 960 0
DWIDTH 14 0
BBX 14 14 0 -2
BITMAP
0000
0000
07F0
0C60
1860
1860
0C60
07E0
0C60
0C60
2C60
1CF0
0000
0000
ENDCHAR

STARTCHAR jisx0208_2751
ENCODING 10065
SWIDTH 960 0
DWIDTH 14 0
BBX 14 14 0 -2
BITMAP
0000
0000
0000
0000
0000
07C0
0E60
0060
07E0
0C60
0CE0
0770
0000
0000
ENDCHAR

STARTCHAR jisx0208_2752
ENCODING 10066
SWIDTH 960 0
DWIDTH 14 0
BBX 14 14 0 -2
BITMAP
0000
0000
0760
0CC0
0C00
0FC0
0C60
0C60
0C60
0C60
0C60
07C0
0000
0000
ENDCHAR

STARTCHAR jisx0208_2753
ENCODING 10067
SWIDTH 960 0
DWIDTH 14 0
BBX 14 14 0 -2
BITMAP
0000
0000
0000
0000
0000
1F80
0CC0
0CC0
0FC0
0C60
0C60
1FC0
0000
0000
ENDCHAR

STARTCHAR jisx0208_2754
ENCODING 10068
SWIDTH 960 0
DWIDTH 14 0
BBX 14 14 0 -2
BITMAP
0000
0000
0000
0000
0000
0FE0
0660
0600
0600
0600
0600
0F00
0000
0000
ENDCHAR

STARTCHAR jisx0208_2755
ENCODING 10069
SWIDTH 960 0
DWIDTH 14 0
BBX 14 14 0 -2
BITMAP
0000
0000
0000
0000
0000
0FE0
06C0
06C0
06C0
06C0
0CC0
1FE0
1860
0000
ENDCHAR

STARTCHAR jisx0208_2756
ENCODING 10070
SWIDTH 960 0
DWIDTH 14 0
BBX 14 14 0 -2
BITMAP
0000
0000
0000
0000
0000
07C0
0C60
0C60
0FE0
0C00
0C60
07C0
0000
0000
ENDCHAR

STARTCHAR jisx0208_2757
ENCODING 10071
SWIDTH 960 0
DWIDTH 14 0
BBX 14 14 0 -2
BITMAP
0000
0000
0000
06C0
0000
07C0
0C60
0C60
0FE0
0C00
0C60
07C0
0000
0000
ENDCHAR

STARTCHAR jisx0208_2758
ENCODING 10072
SWIDTH 960 0
DWIDTH 14 0
BBX 14 14 0 -2
BITMAP
0000
0000
0000
0000
0000
3AF0
1B60
0AC0
0FC0
0AC0
1B60
3AF0
0000
0000
ENDCHAR

STARTCHAR jisx0208_2759
ENCODING 10073
SWIDTH 960 0
DWIDTH 14 0
BBX 14 14 0 -2
BITMAP
0000
0000
0000
0000
0000
0BC0
0E60
0C60
03C0
0060
0C60
07C0
0000
0000
ENDCHAR

STARTCHAR jisx0208_275A
ENCODING 10074
SWIDTH 960 0
DWIDTH 14 0
BBX 14 14 0 -2
BITMAP
0000
0000
0000
0000
0000
1E70
0CE0
0D60
0D60
0B60
0E60
1CF0
0000
0000
ENDCHAR

STARTCHAR jisx0208_275B
ENCODING 10075
SWIDTH 960 0
DWIDTH 14 0
BBX 14 14 0 -2
BITMAP
0000
0000
0000
06C0
0380
1E70
0CE0
0D60
0D60
0B60
0E60
1CF0
0000
0000
ENDCHAR

STARTCHAR jisx0208_275C
ENCODING 10076
SWIDTH 960 0
DWIDTH 14 0
BBX 14 14 0 -2
BITMAP
0000
0000
0000
0000
0000
1DE0
0CC0
0D80
0F00
0D80
0CC0
1DE0
0000
0000
ENDCHAR

STARTCHAR jisx0208_275D
ENCODING 10077
SWIDTH 960 0
DWIDTH 14 0
BBX 14 14 0 -2
BITMAP
0000
0000
0000
0000
0000
07F0
0360
0360
0360
0360
1B60
0EF0
0000
0000
ENDCHAR

STARTCHAR jisx0208_275E
ENCODING 10078
SWIDTH 960 0
DWIDTH 14 0
BBX 14 14 0 -2
BITMAP
0000
0000
0000
0000
0000
3870
1CE0
1CE0
1560
1560
1B60
3AF0
0000
0000
ENDCHAR

STARTCHAR jisx0208_275F
ENCODING 10079
SWIDTH 960 0
DWIDTH 14 0
BBX 14 14 0 -2
BITMAP
0000
0000
0000
0000
0000
1EF0
0C60
0C60
0FE0
0C60
0C60
1EF0
0000
0000
ENDCHAR

STARTCHAR jisx0208_2760
ENCODING 10080
SWIDTH 960 0
DWIDTH 14 0
BBX 14 14 0 -2
BITMAP
0000
0000
0000
0000
0000
07C0
0C60
0C60
0C60
0C60
0C60
07C0
0000
0000
ENDCHAR

STARTCHAR jisx0208_2761
ENCODING 10081
SWIDTH 960 0
DWIDTH 14 0
BBX 14 14 0 -2
BITMAP
0000
0000
0000
0000
0000
1FF0
0C60
0C60
0C60
0C60
0C60
1EF0
0000
0000
ENDCHAR

STARTCHAR jisx0208_2762
ENCODING 10082
SWIDTH 960 0
DWIDTH 14 0
BBX 14 14 0 -2
BITMAP
0000
0000
0000
0000
0000
1BC0
0E60
0C60
0C60
0E60
0BC0
0C00
1E00
0000
ENDCHAR

STARTCHAR jisx0208_2763
ENCODING 10083
SWIDTH 960 0
DWIDTH 14 0
BBX 14 14 0 -2
BITMAP
0000
0000
0000
0000
0000
07C0
0CE0
0C00
0C00
0C00
0C60
07C0
0000
0000
ENDCHAR

STARTCHAR jisx0208_2764
ENCODING 10084
SWIDTH 960 0
DWIDTH 14 0
BBX 14 14 0 -2
BITMAP
0000
0000
0000
0000
0000
1FE0
1B60
0300
0300
0300
0300
0780
0000
0000
ENDCHAR

STARTCHAR jisx0208_2765
ENCODING 10085
SWIDTH 960 0
DWIDTH 14 0
BBX 14 14 0 -2
BITMAP
0000
0000
0000
0000
0000
1DE0
0CC0
0CC0
0580
0580
0300
1B00
0E00
0000
ENDCHAR

STARTCHAR jisx0208_2766
ENCODING 10086
SWIDTH 960 0
DWIDTH 14 0
BBX 14 14 0 -2
BITMAP
0000
0000
0700
0300
0300
1AE0
37B0
3330
3330
37B0
1AE0
0300
0780
0000
ENDCHAR

STARTCHAR jisx0208_2767
ENCODING 10087
SWIDTH 960 0
DWIDTH 14 0
BBX 14 14 0 -2
BITMAP
0000
0000
0000
0000
0000
1DE0
0CC0
0580
0300
0580
0CC0
1DE0
0000
0000
ENDCHAR

STARTCHAR jisx0208_2768
ENCODING 10088
SWIDTH 960 0
DWIDTH 14 0
BBX 14 14 0 -2
BITMAP
0000
0000
0000
0000
0000
1EF0
0C60
0C60
0C60
0C60
0C60
1FF0
0030
0000
ENDCHAR

STARTCHAR jisx0208_2769
ENCODING 10089
SWIDTH 960 0
DWIDTH 14 0
BBX 14 14 0 -2
BITMAP
0000
0000
0000
0000
0000
1DE0
0CC0
0CC0
0CC0
07C0
00C0
01E0
0000
0000
ENDCHAR

STARTCHAR jisx0208_276A
ENCODING 10090
SWIDTH 960 0
DWIDTH 14 0
BBX 14 14 0 -2
BITMAP
0000
0000
0000
0000
0000
3770
1B60
1B60
1B60
1B60
1B60
3FF0
0000
0000
ENDCHAR

STARTCHAR jisx0208_276B
ENCODING 10091
SWIDTH 960 0
DWIDTH 14 0
BBX 14 14 0 -2
BITMAP
0000
0000
0000
0000
0000
3770
1B60
1B60
1B60
1B60
1B60
3FF0
0030
0000
ENDCHAR

STARTCHAR jisx0208_276C
ENCODING 10092
SWIDTH 960 0
DWIDTH 14 0
BBX 14 14 0 -2
BITMAP
0000
0000
0000
0000
0000
1F00
1600
07E0
0630
0630
0630
0FE0
0000
0000
ENDCHAR

STARTCHAR jisx0208_276D
ENCODING 10093
SWIDTH 960 0
DWIDTH 14 0
BBX 14 14 0 -2
BITMAP
0000
0000
0000
0000
0000
3CF0
1860
1F60
1960
1960
1960
3EF0
0000
0000
ENDCHAR

STARTCHAR jisx0208_276E
ENCODING 10094
SWIDTH 960 0
DWIDTH 14 0
BBX 14 14 0 -2
BITMAP
0000
0000
0000
0000
0000
1E00
0C00
0FC0
0C60
0C60
0C60
1FC0
0000
0000
ENDCHAR

STARTCHAR jisx0208_276F
ENCODING 10095
SWIDTH 960 0
DWIDTH 14 0
BBX 14 14 0 -2
BITMAP
0000
0000
0000
0000
0000
07C0
0E60
0060
07E0
0060
0C60
07C0
0000
0000
ENDCHAR

STARTCHAR jisx0208_2770
ENCODING 10096
SWIDTH 960 0
DWIDTH 14 0
BBX 14 14 0 -2
BITMAP
0000
0000
0000
0000
0000
3DE0
1B30
1B30
1F30
1B30
1B30
3DE0
0000
0000
ENDCHAR

STARTCHAR jisx0208_2771
ENCODING 10097
SWIDTH 960 0
DWIDTH 14 0
BBX 14 14 0 -2
BITMAP
0000
0000
0000
0000
0000
07F0
0C60
0C60
07E0
0660
1660
0CF0
0000
0000
ENDCHAR

STARTCHAR jisx0208_2821
ENCODING 10273
SWIDTH 960 0
DWIDTH 14 0
BBX 14 14 0 -2
BITMAP
0000
0000
0000
0000
0000
0000
FFFC
0000
0000
0000
0000
0000
0000
0000
ENDCHAR

STARTCHAR jisx0208_2822
ENCODING 10274
SWIDTH 960 0
DWIDTH 14 0
BBX 14 14 0 -2
BITMAP
0300
0300
0300
0300
0300
0300
0300
0300
0300
0300
0300
0300
0300
0300
ENDCHAR

STARTCHAR jisx0208_2823
ENCODING 10275
SWIDTH 960 0
DWIDTH 14 0
BBX 14 14 0 -2
BITMAP
0000
0000
0000
0000
0000
0000
03FC
0300
0300
0300
0300
0300
0300
0300
ENDCHAR

STARTCHAR jisx0208_2824
ENCODING 10276
SWIDTH 960 0
DWIDTH 14 0
BBX 14 14 0 -2
BITMAP
0000
0000
0000
0000
0000
0000
FF00
0300
0300
0300
0300
0300
0300
0300
ENDCHAR

STARTCHAR jisx0208_2825
ENCODING 10277
SWIDTH 960 0
DWIDTH 14 0
BBX 14 14 0 -2
BITMAP
0300
0300
0300
0300
0300
0300
FF00
0000
0000
0000
0000
0000
0000
0000
ENDCHAR

STARTCHAR jisx0208_2826
ENCODING 10278
SWIDTH 960 0
DWIDTH 14 0
BBX 14 14 0 -2
BITMAP
0300
0300
0300
0300
0300
0300
03FC
0000
0000
0000
0000
0000
0000
0000
ENDCHAR

STARTCHAR jisx0208_2827
ENCODING 10279
SWIDTH 960 0
DWIDTH 14 0
BBX 14 14 0 -2
BITMAP
0300
0300
0300
0300
0300
0300
03FC
0300
0300
0300
0300
0300
0300
0300
ENDCHAR

STARTCHAR jisx0208_2828
ENCODING 10280
SWIDTH 960 0
DWIDTH 14 0
BBX 14 14 0 -2
BITMAP
0000
0000
0000
0000
0000
0000
FFFC
0300
0300
0300
0300
0300
0300
0300
ENDCHAR

STARTCHAR jisx0208_2829
ENCODING 10281
SWIDTH 960 0
DWIDTH 14 0
BBX 14 14 0 -2
BITMAP
0300
0300
0300
0300
0300
0300
FF00
0300
0300
0300
0300
0300
0300
0300
ENDCHAR

STARTCHAR jisx0208_282A
ENCODING 10282
SWIDTH 960 0
DWIDTH 14 0
BBX 14 14 0 -2
BITMAP
0300
0300
0300
0300
0300
0300
FFFC
0000
0000
0000
0000
0000
0000
0000
ENDCHAR

STARTCHAR jisx0208_282B
ENCODING 10283
SWIDTH 960 0
DWIDTH 14 0
BBX 14 14 0 -2
BITMAP
0300
0300
0300
0300
0300
0300
FFFC
0300
0300
0300
0300
0300
0300
0300
ENDCHAR

STARTCHAR jisx0208_282C
ENCODING 10284
SWIDTH 960 0
DWIDTH 14 0
BBX 14 14 0 -2
BITMAP
0000
0000
0000
0000
0000
0000
FFFC
FFFC
0000
0000
0000
0000
0000
0000
ENDCHAR

STARTCHAR jisx0208_282D
ENCODING 10285
SWIDTH 960 0
DWIDTH 14 0
BBX 14 14 0 -2
BITMAP
0380
0380
0380
0380
0380
0380
0380
0380
0380
0380
0380
0380
0380
0380
ENDCHAR

STARTCHAR jisx0208_282E
ENCODING 10286
SWIDTH 960 0
DWIDTH 14 0
BBX 14 14 0 -2
BITMAP
0000
0000
0000
0000
0000
0000
03FC
03FC
0380
0380
0380
0380
0380
0380
ENDCHAR

STARTCHAR jisx0208_282F
ENCODING 10287
SWIDTH 960 0
DWIDTH 14 0
BBX 14 14 0 -2
BITMAP
0000
0000
0000
0000
0000
0000
FF80
FF80
0380
0380
0380
0380
0380
0380
ENDCHAR

STARTCHAR jisx0208_2830
ENCODING 10288
SWIDTH 960 0
DWIDTH 14 0
BBX 14 14 0 -2
BITMAP
0380
0380
0380
0380
0380
0380
FF80
FF80
0000
0000
0000
0000
0000
0000
ENDCHAR

STARTCHAR jisx0208_2831
ENCODING 10289
SWIDTH 960 0
DWIDTH 14 0
BBX 14 14 0 -2
BITMAP
0380
0380
0380
0380
0380
0380
03FC
03FC
0000
0000
0000
0000
0000
0000
ENDCHAR

STARTCHAR jisx0208_2832
ENCODING 10290
SWIDTH 960 0
DWIDTH 14 0
BBX 14 14 0 -2
BITMAP
0380
0380
0380
0380
0380
0380
03FC
03FC
0380
0380
0380
0380
0380
0380
ENDCHAR

STARTCHAR jisx0208_2833
ENCODING 10291
SWIDTH 960 0
DWIDTH 14 0
BBX 14 14 0 -2
BITMAP
0000
0000
0000
0000
0000
0000
FFFC
FFFC
0380
0380
0380
0380
0380
0380
ENDCHAR

STARTCHAR jisx0208_2834
ENCODING 10292
SWIDTH 960 0
DWIDTH 14 0
BBX 14 14 0 -2
BITMAP
0380
0380
0380
0380
0380
0380
FF80
FF80
0380
0380
0380
0380
0380
0380
ENDCHAR

STARTCHAR jisx0208_2835
ENCODING 10293
SWIDTH 960 0
DWIDTH 14 0
BBX 14 14 0 -2
BITMAP
0380
0380
0380
0380
0380
0380
FFFC
FFFC
0000
0000
0000
0000
0000
0000
ENDCHAR

STARTCHAR jisx0208_2836
ENCODING 10294
SWIDTH 960 0
DWIDTH 14 0
BBX 14 14 0 -2
BITMAP
0380
0380
0380
0380
0380
0380
FFFC
FFFC
0380
0380
0380
0380
0380
0380
ENDCHAR

STARTCHAR jisx0208_2837
ENCODING 10295
SWIDTH 960 0
DWIDTH 14 0
BBX 14 14 0 -2
BITMAP
0380
0380
0380
0380
0380
0380
03FC
0380
0380
0380
0380
0380
0380
0380
ENDCHAR

STARTCHAR jisx0208_2838
ENCODING 10296
SWIDTH 960 0
DWIDTH 14 0
BBX 14 14 0 -2
BITMAP
0000
0000
0000
0000
0000
0000
FFFC
FFFC
0300
0300
0300
0300
0300
0300
ENDCHAR

STARTCHAR jisx0208_2839
ENCODING 10297
SWIDTH 960 0
DWIDTH 14 0
BBX 14 14 0 -2
BITMAP
0380
0380
0380
0380
0380
0380
FF80
0380
0380
0380
0380
0380
0380
0380
ENDCHAR

STARTCHAR jisx0208_283A
ENCODING 10298
SWIDTH 960 0
DWIDTH 14 0
BBX 14 14 0 -2
BITMAP
0300
0300
0300
0300
0300
0300
FFFC
FFFC
0000
0000
0000
0000
0000
0000
ENDCHAR

STARTCHAR jisx0208_283B
ENCODING 10299
SWIDTH 960 0
DWIDTH 14 0
BBX 14 14 0 -2
BITMAP
0300
0300
0300
0300
0300
0300
FFFC
FFFC
0300
0300
0300
0300
0300
0300
ENDCHAR

STARTCHAR jisx0208_283C
ENCODING 10300
SWIDTH 960 0
DWIDTH 14 0
BBX 14 14 0 -2
BITMAP
0300
0300
0300
0300
0300
0300
03FC
03FC
0300
0300
0300
0300
0300
0300
ENDCHAR

STARTCHAR jisx0208_283D
ENCODING 10301
SWIDTH 960 0
DWIDTH 14 0
BBX 14 14 0 -2
BITMAP
0000
0000
0000
0000
0000
0000
FFFC
0380
0380
0380
0380
0380
0380
0380
ENDCHAR

STARTCHAR jisx0208_283E
ENCODING 10302
SWIDTH 960 0
DWIDTH 14 0
BBX 14 14 0 -2
BITMAP
0300
0300
0300
0300
0300
0300
FF00
FF00
0300
0300
0300
0300
0300
0300
ENDCHAR

STARTCHAR jisx0208_283F
ENCODING 10303
SWIDTH 960 0
DWIDTH 14 0
BBX 14 14 0 -2
BITMAP
0380
0380
0380
0380
0380
0380
FFFC
0000
0000
0000
0000
0000
0000
0000
ENDCHAR

STARTCHAR jisx0208_2840
ENCODING 10304
SWIDTH 960 0
DWIDTH 14 0
BBX 14 14 0 -2
BITMAP
0380
0380
0380
0380
0380
0380
FFFC
0380
0380
0380
0380
0380
0380
0380
ENDCHAR

STARTCHAR jisx0208_2D21
ENCODING 11553
SWIDTH 960 0
DWIDTH 14 0
BBX 14 14 0 -2
BITMAP
0000
1FC0
7070
6330
CF18
C318
C318
C318
C318
C318
6330
7070
1FC0
0000
ENDCHAR

STARTCHAR jisx0208_2D22
ENCODING 11554
SWIDTH 960 0
DWIDTH 14 0
BBX 14 14 0 -2
BITMAP
0000
1FC0
7070
6FB0
D8D8
D8D8
C0D8
C398
CE18
D818
5FB0
7070
1FC0
0000
ENDCHAR

STARTCHAR jisx0208_2D23
ENCODING 11555
SWIDTH 960 0
DWIDTH 14 0
BBX 14 14 0 -2
BITMAP
0000
1FC0
7070
6FB0
D8D8
C0D8
CF98
C0D8
C0D8
D8D8
6FB0
7070
1FC0
0000
ENDCHAR

STARTCHAR jisx0208_2D24
ENCODING 11556
SWIDTH 960 0
DWIDTH 14 0
BBX 14 14 0 -2
BITMAP
0000
1FC0
7070
61B0
C398
C598
CD98
D998
BFD8
C198
61B0
7070
1FC0
0000
ENDCHAR

STARTCHAR jisx0208_2D25
ENCODING 11557
SWIDTH 960 0
DWIDTH 14 0
BBX 14 14 0 -2
BITMAP
0000
1FC0
7070
5FB0
D818
D818
DF98
D8D8
C0D8
D8D8
6FB0
7070
1FC0
0000
ENDCHAR

STARTCHAR jisx0208_2D26
ENCODING 11558
SWIDTH 960 0
DWIDTH 14 0
BBX 14 14 0 -2
BITMAP
0000
1FC0
7070
6FB0
D8D8
D818
DF98
D8D8
D8D8
D8D8
6FB0
7070
1FC0
0000
ENDCHAR

STARTCHAR jisx0208_2D27
ENCODING 11559
SWIDTH 960 0
DWIDTH 14 0
BBX 14 14 0 -2
BITMAP
0000
1FC0
7070
5FB0
C0D8
C198
C198
C318
C318
C318
6330
7070
1FC0
0000
ENDCHAR

STARTCHAR jisx0208_2D28
ENCODING 11560
SWIDTH 960 0
DWIDTH 14 0
BBX 14 14 0 -2
BITMAP
0000
1FC0
7070
6FB0
D8D8
D8D8
CF98
D8D8
D8D8
D8D8
6FB0
7070
1FC0
0000
ENDCHAR

STARTCHAR jisx0208_2D29
ENCODING 11561
SWIDTH 960 0
DWIDTH 14 0
BBX 14 14 0 -2
BITMAP
0000
1FC0
7070
6FB0
D8D8
D8D8
D8D8
CFD8
C0D8
D8D8
6FB0
7070
1FC0
0000
ENDCHAR

STARTCHAR jisx0208_2D2A
ENCODING 11562
SWIDTH 960 0
DWIDTH 14 0
BBX 14 14 0 -2
BITMAP
0000
1FC0
7070
5BB0
B658
D658
D658
D658
D658
D658
5BB0
7070
1FC0
0000
ENDCHAR

STARTCHAR jisx0208_2D2B
ENCODING 11563
SWIDTH 960 0
DWIDTH 14 0
BBX 14 14 0 -2
BITMAP
0000
1FC0
7070
58B0
B9D8
D8D8
D8D8
D8D8
D8D8
D8D8
58B0
7070
1FC0
0000
ENDCHAR

STARTCHAR jisx0208_2D2C
ENCODING 11564
SWIDTH 960 0
DWIDTH 14 0
BBX 14 14 0 -2
BITMAP
0000
1FC0
7070
5BB0
B658
D658
D8D8
D998
DB18
D618
57F0
7070
1FC0
0000
ENDCHAR

STARTCHAR jisx0208_2D2D
ENCODING 11565
SWIDTH 960 0
DWIDTH 14 0
BBX 14 14 0 -2
BITMAP
0000
1FC0
7070
5BB0
B658
D858
DBD8
D858
D658
D658
5BB0
7070
1FC0
0000
ENDCHAR

STARTCHAR jisx0208_2D2E
ENCODING 11566
SWIDTH 960 0
DWIDTH 14 0
BBX 14 14 0 -2
BITMAP
0000
1FC0
7070
58B0
B9D8
DAD8
DAD8
D6D8
DFD8
D8D8
58B0
7070
1FC0
0000
ENDCHAR

STARTCHAR jisx0208_2D2F
ENCODING 11567
SWIDTH 960 0
DWIDTH 14 0
BBX 14 14 0 -2
BITMAP
0000
1FC0
7070
57F0
B618
D618
D7D8
D658
D858
D658
5BB0
7070
1FC0
0000
ENDCHAR

STARTCHAR jisx0208_2D30
ENCODING 11568
SWIDTH 960 0
DWIDTH 14 0
BBX 14 14 0 -2
BITMAP
0000
1FC0
7070
5BB0
B658
D618
D7D8
D658
D658
D658
5BB0
7070
1FC0
0000
ENDCHAR

STARTCHAR jisx0208_2D31
ENCODING 11569
SWIDTH 960 0
DWIDTH 14 0
BBX 14 14 0 -2
BITMAP
0000
1FC0
7070
57F0
B858
D8D8
D8D8
D998
D998
D998
59B0
7070
1FC0
0000
ENDCHAR

STARTCHAR jisx0208_2D32
ENCODING 11570
SWIDTH 960 0
DWIDTH 14 0
BBX 14 14 0 -2
BITMAP
0000
1FC0
7070
5BB0
B658
D658
DBD8
D658
D658
D658
5BB0
7070
1FC0
0000
ENDCHAR

STARTCHAR jisx0208_2D33
ENCODING 11571
SWIDTH 960 0
DWIDTH 14 0
BBX 14 14 0 -2
BITMAP
0000
1FC0
7070
5BB0
B658
D658
D658
DBD8
D858
D658
5BB0
7070
1FC0
0000
ENDCHAR

STARTCHAR jisx0208_2D34
ENCODING 11572
SWIDTH 960 0
DWIDTH 14 0
BBX 14 14 0 -2
BITMAP
0000
1FC0
7070
5DB0
B758
B758
C758
CB58
DB58
B358
7DB0
7070
1FC0
0000
ENDCHAR

STARTCHAR jisx0208_2D35
ENCODING 11573
SWIDTH 960 0
DWIDTH 14 0
BBX 14 14 0 -2
BITMAP
0000
0000
0600
0600
0600
0600
0600
0600
0600
0600
0600
0600
0000
0000
ENDCHAR

STARTCHAR jisx0208_2D36
ENCODING 11574
SWIDTH 960 0
DWIDTH 14 0
BBX 14 14 0 -2
BITMAP
0000
0000
1980
1980
1980
1980
1980
1980
1980
1980
1980
1980
0000
0000
ENDCHAR

STARTCHAR jisx0208_2D37
ENCODING 11575
SWIDTH 960 0
DWIDTH 14 0
BBX 14 14 0 -2
BITMAP
0000
0000
36C0
36C0
36C0
36C0
36C0
36C0
36C0
36C0
36C0
36C0
0000
0000
ENDCHAR

STARTCHAR jisx0208_2D38
ENCODING 11576
SWIDTH 960 0
DWIDTH 14 0
BBX 14 14 0 -2
BITMAP
0000
0000
6C30
6C30
6C30
6660
6660
6660
62C0
62C0
6180
6180
0000
0000
ENDCHAR

STARTCHAR jisx0208_2D39
ENCODING 11577
SWIDTH 960 0
DWIDTH 14 0
BBX 14 14 0 -2
BITMAP
0000
0000
3060
3060
18C0
18C0
18C0
0D80
0D80
0700
0700
0700
0000
0000
ENDCHAR

STARTCHAR jisx0208_2D3A
ENCODING 11578
SWIDTH 960 0
DWIDTH 14 0
BBX 14 14 0 -2
BITMAP
0000
0000
61B0
61B0
61B0
3330
3330
3330
1630
1630
0C30
0C30
0000
0000
ENDCHAR

STARTCHAR jisx0208_2D3B
ENCODING 11579
SWIDTH 960 0
DWIDTH 14 0
BBX 14 14 0 -2
BITMAP
0000
0000
C2B0
C2B0
66B0
66B0
66B0
2CB0
2CB0
2CB0
18B0
18B0
0000
0000
ENDCHAR

STARTCHAR jisx0208_2D3C
ENCODING 11580
SWIDTH 960 0
DWIDTH 14 0
BBX 14 14 0 -2
BITMAP
0000
0000
CAB0
CAB0
CAB0
5AB0
5AB0
5AB0
5AB0
32B0
32B0
32B0
0000
0000
ENDCHAR

STARTCHAR jisx0208_2D3D
ENCODING 11581
SWIDTH 960 0
DWIDTH 14 0
BBX 14 14 0 -2
BITMAP
0000
0000
6630
6360
6360
61C0
61C0
61C0
6360
6360
6630
6630
0000
0000
ENDCHAR

STARTCHAR jisx0208_2D3E
ENCODING 11582
SWIDTH 960 0
DWIDTH 14 0
BBX 14 14 0 -2
BITMAP
0000
0000
30C0
1980
1980
0B00
0600
0B00
0B00
1980
30C0
30C0
0000
0000
ENDCHAR

STARTCHAR jisx0208_2D40
ENCODING 11584
SWIDTH 960 0
DWIDTH 14 0
BBX 14 14 0 -2
BITMAP
0000
7000
1800
7000
1800
F000
1C00
0198
0198
0198
0018
0030
00E0
0000
ENDCHAR

STARTCHAR jisx0208_2D41
ENCODING 11585
SWIDTH 960 0
DWIDTH 14 0
BBX 14 14 0 -2
BITMAP
0000
3000
FC00
3000
FE00
1800
1800
0000
01F8
0198
0198
0198
01F8
0000
ENDCHAR

STARTCHAR jisx0208_2D42
ENCODING 11586
SWIDTH 960 0
DWIDTH 14 0
BBX 14 14 0 -2
BITMAP
0000
6180
7EC0
E618
6C30
6060
7DC0
0000
7C00
1800
FE00
1800
7000
0000
ENDCHAR

STARTCHAR jisx0208_2D43
ENCODING 11587
SWIDTH 960 0
DWIDTH 14 0
BBX 14 14 0 -2
BITMAP
0000
0C00
6C00
1800
2DF8
E000
0000
3060
3160
3960
2D58
3170
3360
0000
ENDCHAR

STARTCHAR jisx0208_2D44
ENCODING 11588
SWIDTH 960 0
DWIDTH 14 0
BBX 14 14 0 -2
BITMAP
0000
36F0
7C00
CDF8
1818
3030
E0E0
3000
3000
3000
6C00
6E00
F600
0000
ENDCHAR

STARTCHAR jisx0208_2D45
ENCODING 11589
SWIDTH 960 0
DWIDTH 14 0
BBX 14 14 0 -2
BITMAP
0000
6000
6000
7000
5800
6000
6000
0180
00C0
0018
0030
0060
01C0
0000
ENDCHAR

STARTCHAR jisx0208_2D46
ENCODING 11590
SWIDTH 960 0
DWIDTH 14 0
BBX 14 14 0 -2
BITMAP
0000
FE00
0600
2C00
31F8
3000
6000
1800
5800
5800
5600
5C00
D800
0000
ENDCHAR

STARTCHAR jisx0208_2D47
ENCODING 11591
SWIDTH 960 0
DWIDTH 14 0
BBX 14 14 0 -2
BITMAP
0000
0060
30F8
5998
CC30
0660
01C0
6060
7960
D960
5758
3170
E360
0000
ENDCHAR

STARTCHAR jisx0208_2D48
ENCODING 11592
SWIDTH 960 0
DWIDTH 14 0
BBX 14 14 0 -2
BITMAP
0000
6C00
6C00
6D58
0C18
0C30
38E0
3060
3160
3960
2D58
3170
3360
0000
ENDCHAR

STARTCHAR jisx0208_2D49
ENCODING 11593
SWIDTH 960 0
DWIDTH 14 0
BBX 14 14 0 -2
BITMAP
0000
FC00
CC00
0D58
1818
7030
00E0
3000
3000
3800
2C00
3000
3000
0000
ENDCHAR

STARTCHAR jisx0208_2D4A
ENCODING 11594
SWIDTH 960 0
DWIDTH 14 0
BBX 14 14 0 -2
BITMAP
0000
3000
FDF8
3598
3598
6598
CDF8
6C00
6C00
6C00
6DF8
0C00
3800
0000
ENDCHAR

STARTCHAR jisx0208_2D4B
ENCODING 11595
SWIDTH 960 0
DWIDTH 14 0
BBX 14 14 0 -2
BITMAP
0000
5600
6000
7000
5800
6000
6000
0060
0160
0160
0158
0170
0360
0000
ENDCHAR

STARTCHAR jisx0208_2D4C
ENCODING 11596
SWIDTH 960 0
DWIDTH 14 0
BBX 14 14 0 -2
BITMAP
0000
6180
7EC0
E618
6C30
6060
7DC0
3000
3000
3800
2C00
3000
3000
0000
ENDCHAR

STARTCHAR jisx0208_2D4D
ENCODING 11597
SWIDTH 960 0
DWIDTH 14 0
BBX 14 14 0 -2
BITMAP
0000
5700
5700
6C00
CDF8
CC00
0000
6660
7560
D970
5958
6160
7760
0000
ENDCHAR

STARTCHAR jisx0208_2D4E
ENCODING 11598
SWIDTH 960 0
DWIDTH 14 0
BBX 14 14 0 -2
BITMAP
0000
71B0
19B0
71B0
19B0
F030
1CE0
0060
5D60
5960
6F58
CD70
CB60
0000
ENDCHAR

STARTCHAR jisx0208_2D4F
ENCODING 11599
SWIDTH 960 0
DWIDTH 14 0
BBX 14 14 0 -2
BITMAP
0000
0E00
2E00
5800
CDF8
0600
0000
6E00
0000
E600
0C00
1800
F000
0000
ENDCHAR

STARTCHAR jisx0208_2D50
ENCODING 11600
SWIDTH 960 0
DWIDTH 14 0
BBX 14 14 0 -2
BITMAP
0000
0000
0000
0000
0000
DB60
AAB0
AAB0
AAB0
AAB0
AAB0
AAB0
0000
0000
ENDCHAR

STARTCHAR jisx0208_2D51
ENCODING 11601
SWIDTH 960 0
DWIDTH 14 0
BBX 14 14 0 -2
BITMAP
0000
0000
0000
0000
0000
3B60
6AB0
62B0
62B0
62B0
6AB0
3AB0
0000
0000
ENDCHAR

STARTCHAR jisx0208_2D52
ENCODING 11602
SWIDTH 960 0
DWIDTH 14 0
BBX 14 14 0 -2
BITMAP
0000
0000
6000
6000
6000
6B60
5AB0
72B0
5AB0
5AB0
6AB0
6AB0
0000
0000
ENDCHAR

STARTCHAR jisx0208_2D53
ENCODING 11603
SWIDTH 960 0
DWIDTH 14 0
BBX 14 14 0 -2
BITMAP
0000
0000
0000
0000
0000
6CF0
55B0
55B0
55B0
56F0
5630
55B0
00E0
0000
ENDCHAR

STARTCHAR jisx0208_2D54
ENCODING 11604
SWIDTH 960 0
DWIDTH 14 0
BBX 14 14 0 -2
BITMAP
0000
0000
6000
6000
6000
6CF0
59B0
71B0
59B0
58F0
6C30
6DB0
00E0
0000
ENDCHAR

STARTCHAR jisx0208_2D55
ENCODING 11605
SWIDTH 960 0
DWIDTH 14 0
BBX 14 14 0 -2
BITMAP
0000
0000
0000
0000
0000
38E0
6DB0
6180
6180
6DB0
6DB0
38E0
0000
0000
ENDCHAR

STARTCHAR jisx0208_2D56
ENCODING 11606
SWIDTH 960 0
DWIDTH 14 0
BBX 14 14 0 -2
BITMAP
0000
0038
0058
0030
0078
5DC0
7760
6660
6660
6660
6660
6660
0000
0000
ENDCHAR

STARTCHAR jisx0208_2D5F
ENCODING 11615
SWIDTH 960 0
DWIDTH 14 0
BBX 14 14 0 -2
BITMAP
0000
FC58
3060
ABF8
AB60
AB58
33D8
FAD8
32F0
32F0
3360
3658
36B8
0000
ENDCHAR

STARTCHAR jisx0208_2D60
ENCODING 11616
SWIDTH 960 0
DWIDTH 14 0
BBX 14 14 0 -2
BITMAP
0000
00B0
00B0
0160
0000
0000
0000
0000
0000
0000
0000
0000
0000
0000
ENDCHAR

STARTCHAR jisx0208_2D61
ENCODING 11617
SWIDTH 960 0
DWIDTH 14 0
BBX 14 14 0 -2
BITMAP
0000
0000
0000
0000
0000
0000
0000
0000
0000
0000
2C00
2C00
5800
0000
ENDCHAR

STARTCHAR jisx0208_2D62
ENCODING 11618
SWIDTH 960 0
DWIDTH 14 0
BBX 14 14 0 -2
BITMAP
0000
0000
CC00
CC00
EC00
EDC0
AB60
AB60
DB60
DB60
CB58
CDD8
0000
0000
ENDCHAR

STARTCHAR jisx0208_2D63
ENCODING 11619
SWIDTH 960 0
DWIDTH 14 0
BBX 14 14 0 -2
BITMAP
0000
0000
DB60
B2C0
B2C0
E380
E380
E380
B2C0
B2C0
D758
D758
0000
0000
ENDCHAR

STARTCHAR jisx0208_2D64
ENCODING 11620
SWIDTH 960 0
DWIDTH 14 0
BBX 14 14 0 -2
BITMAP
0000
0000
FF60
3660
3660
3660
3760
3660
3660
3660
3660
3778
0000
0000
ENDCHAR

STARTCHAR jisx0208_2D65
ENCODING 11621
SWIDTH 960 0
DWIDTH 14 0
BBX 14 14 0 -2
BITMAP
0000
1FC0
7070
6630
C618
C7D8
C618
C618
C618
FFF8
6030
7070
1FC0
0000
ENDCHAR

STARTCHAR jisx0208_2D66
ENCODING 11622
SWIDTH 960 0
DWIDTH 14 0
BBX 14 14 0 -2
BITMAP
0000
1FC0
7670
6630
BFD8
B658
B658
B658
BFD8
C618
6630
7670
1FC0
0000
ENDCHAR

STARTCHAR jisx0208_2D67
ENCODING 11623
SWIDTH 960 0
DWIDTH 14 0
BBX 14 14 0 -2
BITMAP
0000
1FC0
7070
6030
BFD8
C618
C798
C6D8
C618
C618
6630
7670
1FC0
0000
ENDCHAR

STARTCHAR jisx0208_2D68
ENCODING 11624
SWIDTH 960 0
DWIDTH 14 0
BBX 14 14 0 -2
BITMAP
0000
1FC0
7670
6630
BFD8
CC18
CFD8
DB18
B318
C318
5FF0
7070
1FC0
0000
ENDCHAR

STARTCHAR jisx0208_2D69
ENCODING 11625
SWIDTH 960 0
DWIDTH 14 0
BBX 14 14 0 -2
BITMAP
0000
1FC0
7670
6630
FFD8
CC18
DFD8
DCD8
ACD8
CCD8
6FB0
7070
1FC0
0000
ENDCHAR

STARTCHAR jisx0208_2D6A
ENCODING 11626
SWIDTH 960 0
DWIDTH 14 0
BBX 14 14 0 -2
BITMAP
0000
3060
55B0
57F0
FD98
D998
BFF8
B598
DBD8
D558
5DB0
59B0
3060
0000
ENDCHAR

STARTCHAR jisx0208_2D6B
ENCODING 11627
SWIDTH 960 0
DWIDTH 14 0
BBX 14 14 0 -2
BITMAP
0000
3660
6630
7FF0
CC18
DFD8
DCD8
AFD8
CCD8
CFD8
6CB0
6DB0
3060
0000
ENDCHAR

STARTCHAR jisx0208_2D6C
ENCODING 11628
SWIDTH 960 0
DWIDTH 14 0
BBX 14 14 0 -2
BITMAP
0000
3060
5B30
5AB0
DB58
BFD8
BB18
DB18
DB58
D958
5970
58F0
3060
0000
ENDCHAR

STARTCHAR jisx0208_2D6D
ENCODING 11629
SWIDTH 960 0
DWIDTH 14 0
BBX 14 14 0 -2
BITMAP
0000
3B60
ED60
ACD8
BED8
EAB8
ADD8
BC00
AAF8
EAD8
2AD8
6AD8
5AF8
0000
ENDCHAR

STARTCHAR jisx0208_2D6E
ENCODING 11630
SWIDTH 960 0
DWIDTH 14 0
BBX 14 14 0 -2
BITMAP
0000
1800
19F8
1860
FF60
1860
1960
2D78
2D60
2D60
6560
6560
C3F8
0000
ENDCHAR

STARTCHAR jisx0208_2D6F
ENCODING 11631
SWIDTH 960 0
DWIDTH 14 0
BBX 14 14 0 -2
BITMAP
0000
3EC0
F778
B558
B558
B7D8
ED58
B3D8
BF58
B558
F558
1578
1D80
0000
ENDCHAR

STARTCHAR jisx0208_2D70
ENCODING 11632
SWIDTH 960 0
DWIDTH 14 0
BBX 14 14 0 -2
BITMAP
0000
0000
0000
3800
0000
7FE0
0000
0000
7FE0
0000
01C0
0000
0000
0000
ENDCHAR

STARTCHAR jisx0208_2D71
ENCODING 11633
SWIDTH 960 0
DWIDTH 14 0
BBX 14 14 0 -2
BITMAP
0000
0000
0000
7FE0
0000
0000
7FE0
0000
0000
7FE0
0000
0000
0000
0000
ENDCHAR

STARTCHAR jisx0208_2D72
ENCODING 11634
SWIDTH 960 0
DWIDTH 14 0
BBX 14 14 0 -2
BITMAP
0000
0700
0D80
0C00
0C00
0600
0600
0600
0300
0300
0300
1B00
0E00
0000
ENDCHAR

STARTCHAR jisx0208_2D73
ENCODING 11635
SWIDTH 960 0
DWIDTH 14 0
BBX 14 14 0 -2
BITMAP
0000
0700
0D80
0C00
0F00
1580
1580
1580
0F00
0300
0300
1B00
0E00
0000
ENDCHAR

STARTCHAR jisx0208_2D74
ENCODING 11636
SWIDTH 960 0
DWIDTH 14 0
BBX 14 14 0 -2
BITMAP
0000
0000
3FC0
1800
0C00
0600
0300
0300
0600
0C00
1800
3FC0
0000
0000
ENDCHAR

STARTCHAR jisx0208_2D75
ENCODING 11637
SWIDTH 960 0
DWIDTH 14 0
BBX 14 14 0 -2
BITMAP
0000
03F8
0300
0300
0600
0600
0600
0C00
2C00
6C00
D800
1800
0000
0000
ENDCHAR

STARTCHAR jisx0208_2D76
ENCODING 11638
SWIDTH 960 0
DWIDTH 14 0
BBX 14 14 0 -2
BITMAP
0000
0000
0600
0600
0600
0600
0600
0600
0600
0600
7FE0
0000
0000
0000
ENDCHAR

STARTCHAR jisx0208_2D77
ENCODING 11639
SWIDTH 960 0
DWIDTH 14 0
BBX 14 14 0 -2
BITMAP
0000
0000
0060
00C0
0180
0300
0600
0C00
1800
3000
7FE0
0000
0000
0000
ENDCHAR

STARTCHAR jisx0208_2D78
ENCODING 11640
SWIDTH 960 0
DWIDTH 14 0
BBX 14 14 0 -2
BITMAP
0000
0000
3000
3000
3000
3000
3000
3000
3000
3000
3FF0
0000
0000
0000
ENDCHAR

STARTCHAR jisx0208_2D79
ENCODING 11641
SWIDTH 960 0
DWIDTH 14 0
BBX 14 14 0 -2
BITMAP
0000
0000
0060
00E0
0160
0360
0660
0C60
1860
3060
7FE0
0000
0000
0000
ENDCHAR

STARTCHAR jisx0208_2D7A
ENCODING 11642
SWIDTH 960 0
DWIDTH 14 0
BBX 14 14 0 -2
BITMAP
0000
0000
0000
6060
6060
0000
0000
0000
0000
0600
0600
0000
0000
0000
ENDCHAR

STARTCHAR jisx0208_2D7B
ENCODING 11643
SWIDTH 960 0
DWIDTH 14 0
BBX 14 14 0 -2
BITMAP
0000
0000
0F00
1980
30C0
30C0
30C0
30C0
30C0
30C0
30C0
0000
0000
0000
ENDCHAR

STARTCHAR jisx0208_2D7C
ENCODING 11644
SWIDTH 960 0
DWIDTH 14 0
BBX 14 14 0 -2
BITMAP
0000
0000
30C0
30C0
30C0
30C0
30C0
30C0
30C0
1980
0F00
0000
0000
0000
ENDCHAR

STARTCHAR jisx0208_3021
ENCODING 12321
SWIDTH 960 0
DWIDTH 14 0
BBX 14 14 0 -2
BITMAP
0000
7FFC
06C0
06C0
3FF8
36D8
36D8
36D8
3FF8
06C0
06C0
06C0
7FFC
0000
ENDCHAR

STARTCHAR jisx0208_3022
ENCODING 12322
SWIDTH 960 0
DWIDTH 14 0
BBX 14 14 0 -2
BITMAP
0000
0FFC
7960
5960
57F8
5558
5558
5558
57F8
7960
0160
0160
0FFC
0000
ENDCHAR

STARTCHAR jisx0208_3023
ENCODING 12323
SWIDTH 960 0
DWIDTH 14 0
BBX 14 14 0 -2
BITMAP
0000
3060
3060
7DF8
2C60
2C60
2BFC
6C60
6C60
7BFC
1860
2C60
63FC
0000
ENDCHAR

STARTCHAR jisx0208_3024
ENCODING 12324
SWIDTH 960 0
DWIDTH 14 0
BBX 14 14 0 -2
BITMAP
0000
0000
7BFC
6C18
5818
73D8
5AD8
6AD8
6BD8
5818
6018
6018
6078
0000
ENDCHAR

STARTCHAR jisx0208_3025
ENCODING 12325
SWIDTH 960 0
DWIDTH 14 0
BBX 14 14 0 -2
BITMAP
0000
0300
7FFC
0000
1FF0
1830
1FF0
0380
0598
1CB0
6C60
0F30
3C1C
0000
ENDCHAR

STARTCHAR jisx0208_3026
ENCODING 12326
SWIDTH 960 0
DWIDTH 14 0
BBX 14 14 0 -2
BITMAP
0000
3FF8
1B60
7FFC
6DAC
2CD8
37EC
6600
0FE0
3660
62C0
07E0
3C3C
0000
ENDCHAR

STARTCHAR jisx0208_3027
ENCODING 12327
SWIDTH 960 0
DWIDTH 14 0
BBX 14 14 0 -2
BITMAP
0000
18C0
18D8
1998
7BEC
1800
1980
1BF8
7860
1BFC
1860
18B0
3B9C
0000
ENDCHAR

STARTCHAR jisx0208_3028
ENCODING 12328
SWIDTH 960 0
DWIDTH 14 0
BBX 14 14 0 -2
BITMAP
0000
3060
30B0
7D98
2B0C
2DF0
2C00
6C00
6BF8
7B18
1B18
2B18
63F8
0000
ENDCHAR

STARTCHAR jisx0208_3029
ENCODING 12329
SWIDTH 960 0
DWIDTH 14 0
BBX 14 14 0 -2
BITMAP
0000
31F0
17B0
00E0
07BC
00C0
77F8
1BF0
18C0
17F8
18C0
2C00
67FC
0000
ENDCHAR

STARTCHAR jisx0208_302A
ENCODING 12330
SWIDTH 960 0
DWIDTH 14 0
BBX 14 14 0 -2
BITMAP
0000
0C60
7FFC
0C60
1F60
36D8
1C70
6FDC
0300
1FF0
0580
1CE0
703C
0000
ENDCHAR

STARTCHAR jisx0208_302B
ENCODING 12331
SWIDTH 960 0
DWIDTH 14 0
BBX 14 14 0 -2
BITMAP
0000
0C60
7FFC
0C60
0000
7FFC
06C0
3FF8
36D8
2CD8
38F8
3018
3FF8
0000
ENDCHAR

STARTCHAR jisx0208_302C
ENCODING 12332
SWIDTH 960 0
DWIDTH 14 0
BBX 14 14 0 -2
BITMAP
0000
0CF0
79B0
1860
7DF8
1958
3DF8
3660
5BFC
5B6C
1BFC
1860
187C
0000
ENDCHAR

STARTCHAR jisx0208_302D
ENCODING 12333
SWIDTH 960 0
DWIDTH 14 0
BBX 14 14 0 -2
BITMAP
0000
7FFC
06C0
3FF8
36D8
3FF8
06C0
7FFC
0000
0B00
2D98
2C6C
67E0
0000
ENDCHAR

STARTCHAR jisx0208_302E
ENCODING 12334
SWIDTH 960 0
DWIDTH 14 0
BBX 14 14 0 -2
BITMAP
0000
1BFC
1B0C
7BFC
1B00
1BFC
1B60
7AD8
1AEC
1B30
1AFC
1630
35FC
0000
ENDCHAR

STARTCHAR jisx0208_302F
ENCODING 12335
SWIDTH 960 0
DWIDTH 14 0
BBX 14 14 0 -2
BITMAP
0000
37FC
160C
07FC
6600
37FC
06D8
0598
15EC
1660
35F8
2C60
6BFC
0000
ENDCHAR

STARTCHAR jisx0208_3030
ENCODING 12336
SWIDTH 960 0
DWIDTH 14 0
BBX 14 14 0 -2
BITMAP
0000
3000
31F8
3198
7D98
2D98
2DF8
2D98
2D98
2D98
2DF8
6C0C
67FC
0000
ENDCHAR

STARTCHAR jisx0208_3031
ENCODING 12337
SWIDTH 960 0
DWIDTH 14 0
BBX 14 14 0 -2
BITMAP
0000
0C60
7FFC
0600
1FE0
0C60
7FFC
1830
3FFC
30C0
7FFC
00C0
00C0
0000
ENDCHAR

STARTCHAR jisx0208_3032
ENCODING 12338
SWIDTH 960 0
DWIDTH 14 0
BBX 14 14 0 -2
BITMAP
0000
0C60
7FFC
0C60
7FFC
0000
3FF8
3018
3FF8
3000
3000
6000
6000
0000
ENDCHAR

STARTCHAR jisx0208_3033
ENCODING 12339
SWIDTH 960 0
DWIDTH 14 0
BBX 14 14 0 -2
BITMAP
0000
3C60
6CD8
19EC
7E60
55FC
7EB0
5558
56CC
7E30
00EC
5618
56F0
0000
ENDCHAR

STARTCHAR jisx0208_3034
ENCODING 12340
SWIDTH 960 0
DWIDTH 14 0
BBX 14 14 0 -2
BITMAP
0000
1860
1BFC
7D98
18D8
18B0
3BFC
3660
5860
1BFC
1860
1860
1860
0000
ENDCHAR

STARTCHAR jisx0208_3035
ENCODING 12341
SWIDTH 960 0
DWIDTH 14 0
BBX 14 14 0 -2
BITMAP
0000
0000
3FFC
3000
30C0
30C0
30C0
37F8
30C0
30C0
30C0
60C0
6FFC
0000
ENDCHAR

STARTCHAR jisx0208_3036
ENCODING 12342
SWIDTH 960 0
DWIDTH 14 0
BBX 14 14 0 -2
BITMAP
0000
1860
7EB0
1998
7F2C
65B0
7EB0
65B0
7EB0
183C
7DF0
1830
1830
0000
ENDCHAR

STARTCHAR jisx0208_3037
ENCODING 12343
SWIDTH 960 0
DWIDTH 14 0
BBX 14 14 0 -2
BITMAP
0000
17F0
1B30
7B30
1B60
1B78
1B18
7B18
1BB0
1AB0
1B60
16B0
359C
0000
ENDCHAR

STARTCHAR jisx0208_3038
ENCODING 12344
SWIDTH 960 0
DWIDTH 14 0
BBX 14 14 0 -2
BITMAP
0000
0300
7FFC
600C
580C
18F8
3ED8
32D8
56D8
0EB8
0CC0
18CC
707C
0000
ENDCHAR

STARTCHAR jisx0208_3039
ENCODING 12345
SWIDTH 960 0
DWIDTH 14 0
BBX 14 14 0 -2
BITMAP
0000
31F8
3198
7D98
2D98
2DF8
2D98
6D98
6DF8
7998
1D98
3198
63FC
0000
ENDCHAR

STARTCHAR jisx0208_303A
ENCODING 12346
SWIDTH 960 0
DWIDTH 14 0
BBX 14 14 0 -2
BITMAP
0000
1830
1830
7EFC
56C0
56C0
56C0
56C0
7EC0
18C0
16C0
1EC0
737C
0000
ENDCHAR

STARTCHAR jisx0208_303B
ENCODING 12347
SWIDTH 960 0
DWIDTH 14 0
BBX 14 14 0 -2
BITMAP
0000
1C60
3660
5AD8
3ED8
35FC
3E0C
3600
3EF8
30D8
36D8
3ED8
72F8
0000
ENDCHAR

STARTCHAR jisx0208_303C
ENCODING 12348
SWIDTH 960 0
DWIDTH 14 0
BBX 14 14 0 -2
BITMAP
0000
1980
3180
6DFC
3B0C
19EC
35AC
7DEC
19AC
55AC
55EC
580C
1838
0000
ENDCHAR

STARTCHAR jisx0208_303D
ENCODING 12349
SWIDTH 960 0
DWIDTH 14 0
BBX 14 14 0 -2
BITMAP
0000
1860
31F8
6C60
3BFC
18B0
359C
7EC0
18F8
5598
56B0
5870
1BDC
0000
ENDCHAR

STARTCHAR jisx0208_303E
ENCODING 12350
SWIDTH 960 0
DWIDTH 14 0
BBX 14 14 0 -2
BITMAP
0000
3C30
6C30
1830
7E3C
5630
7E30
56FC
56CC
7ECC
00CC
56CC
56FC
0000
ENDCHAR

STARTCHAR jisx0208_303F
ENCODING 12351
SWIDTH 960 0
DWIDTH 14 0
BBX 14 14 0 -2
BITMAP
0000
00B0
00D8
7FFC
00C0
3ED8
36D8
36B0
3EB0
0060
0EEC
79AC
071C
0000
ENDCHAR

STARTCHAR jisx0208_3040
ENCODING 12352
SWIDTH 960 0
DWIDTH 14 0
BBX 14 14 0 -2
BITMAP
0000
7FFC
06C0
3FF8
36D8
36D8
3FF8
1B30
0B60
7FFC
06C0
1B70
731C
0000
ENDCHAR

STARTCHAR jisx0208_3041
ENCODING 12353
SWIDTH 960 0
DWIDTH 14 0
BBX 14 14 0 -2
BITMAP
0000
1860
18B0
7D98
060C
0DF8
1600
3C00
55F8
1998
1998
1998
19F8
0000
ENDCHAR

STARTCHAR jisx0208_3042
ENCODING 12354
SWIDTH 960 0
DWIDTH 14 0
BBX 14 14 0 -2
BITMAP
0000
0300
7FFC
600C
660C
0600
7FFC
0C60
0C60
1EC0
03C0
0770
3C18
0000
ENDCHAR

STARTCHAR jisx0208_3043
ENCODING 12355
SWIDTH 960 0
DWIDTH 14 0
BBX 14 14 0 -2
BITMAP
0000
0180
3FFC
3300
3FFC
35B0
2FF8
3DAC
2FF0
2DB0
2FF0
618C
60FC
0000
ENDCHAR

STARTCHAR jisx0208_3044
ENCODING 12356
SWIDTH 960 0
DWIDTH 14 0
BBX 14 14 0 -2
BITMAP
0000
1860
1BFC
7B0C
18C0
18C0
1BFC
7998
1998
1BB0
1870
18D8
3B8C
0000
ENDCHAR

STARTCHAR jisx0208_3045
ENCODING 12357
SWIDTH 960 0
DWIDTH 14 0
BBX 14 14 0 -2
BITMAP
0000
0060
7BFC
6D98
6CB0
6BFC
7C00
6DF8
6D98
6DF8
7D98
0198
01F8
0000
ENDCHAR

STARTCHAR jisx0208_3046
ENCODING 12358
SWIDTH 960 0
DWIDTH 14 0
BBX 14 14 0 -2
BITMAP
0000
0300
7FFC
660C
3FF8
0C60
07E0
7B38
0300
7FFC
06C0
1B70
731C
0000
ENDCHAR

STARTCHAR jisx0208_3047
ENCODING 12359
SWIDTH 960 0
DWIDTH 14 0
BBX 14 14 0 -2
BITMAP
0000
7EFC
7EFC
66CC
7EFC
630C
6FEC
66CC
6FEC
66CC
67CC
66CC
67DC
0000
ENDCHAR

STARTCHAR jisx0208_3048
ENCODING 12360
SWIDTH 960 0
DWIDTH 14 0
BBX 14 14 0 -2
BITMAP
0000
2C60
7DFC
2D8C
3C60
1860
7DFC
56D8
7ED8
19D8
7E70
1858
19CC
0000
ENDCHAR

STARTCHAR jisx0208_3049
ENCODING 12361
SWIDTH 960 0
DWIDTH 14 0
BBX 14 14 0 -2
BITMAP
0000
0300
7FFC
0780
0AC0
1B70
731C
0000
1FF0
1830
1830
1830
1FF0
0000
ENDCHAR

STARTCHAR jisx0208_304A
ENCODING 12362
SWIDTH 960 0
DWIDTH 14 0
BBX 14 14 0 -2
BITMAP
0000
1818
1818
1B18
1998
1998
1818
1818
1830
1730
1C58
70CC
038C
0000
ENDCHAR

STARTCHAR jisx0208_304B
ENCODING 12363
SWIDTH 960 0
DWIDTH 14 0
BBX 14 14 0 -2
BITMAP
0000
0BF8
0CD8
18D8
17FC
38D8
58D8
1BF8
18C0
18C0
18C0
1980
1B00
0000
ENDCHAR

STARTCHAR jisx0208_304C
ENCODING 12364
SWIDTH 960 0
DWIDTH 14 0
BBX 14 14 0 -2
BITMAP
0000
0C60
0C60
1BFC
1800
3B18
5998
1998
1998
19B0
19B0
1830
1BFC
0000
ENDCHAR

STARTCHAR jisx0208_304D
ENCODING 12365
SWIDTH 960 0
DWIDTH 14 0
BBX 14 14 0 -2
BITMAP
0000
0C60
0C60
17FC
18C0
3960
5B6C
1758
1B30
1B30
1B30
1BD8
170C
0000
ENDCHAR

STARTCHAR jisx0208_304E
ENCODING 12366
SWIDTH 960 0
DWIDTH 14 0
BBX 14 14 0 -2
BITMAP
0000
0CC0
0BF8
1998
17FC
3B18
5BF8
1860
1BF8
1B60
17FC
1860
1860
0000
ENDCHAR

STARTCHAR jisx0208_304F
ENCODING 12367
SWIDTH 960 0
DWIDTH 14 0
BBX 14 14 0 -2
BITMAP
0000
7FF8
6018
6CD8
5FD8
6CD8
6CD8
5FD8
6CD8
6CD8
58D8
6018
7FF8
0000
ENDCHAR

STARTCHAR jisx0208_3050
ENCODING 12368
SWIDTH 960 0
DWIDTH 14 0
BBX 14 14 0 -2
BITMAP
0000
0300
7FFC
0300
3FF8
0318
3FF8
3300
3FFC
058C
0CDC
1870
701C
0000
ENDCHAR

STARTCHAR jisx0208_3051
ENCODING 12369
SWIDTH 960 0
DWIDTH 14 0
BBX 14 14 0 -2
BITMAP
0000
1FE0
0300
7FFC
06C0
1B70
731C
0600
7FFC
0C60
1CC0
07E0
3C38
0000
ENDCHAR

STARTCHAR jisx0208_3052
ENCODING 12370
SWIDTH 960 0
DWIDTH 14 0
BBX 14 14 0 -2
BITMAP
0000
0058
006C
3FF8
3060
3F60
2C6C
3F58
2B58
2B30
3B2C
665C
5ACC
0000
ENDCHAR

STARTCHAR jisx0208_3053
ENCODING 12371
SWIDTH 960 0
DWIDTH 14 0
BBX 14 14 0 -2
BITMAP
0000
3F98
3198
3F98
30FC
2F18
3018
3F58
3658
3598
3598
6618
6E38
0000
ENDCHAR

STARTCHAR jisx0208_3054
ENCODING 12372
SWIDTH 960 0
DWIDTH 14 0
BBX 14 14 0 -2
BITMAP
0000
18D8
18D8
1DFC
57B0
59B0
59FC
19B0
19B0
19FC
19B0
19B0
19FC
0000
ENDCHAR

STARTCHAR jisx0208_3055
ENCODING 12373
SWIDTH 960 0
DWIDTH 14 0
BBX 14 14 0 -2
BITMAP
0000
0300
3FF8
0C60
7FFC
1830
1FF0
1830
1FF0
0300
2D98
2C6C
67E0
0000
ENDCHAR

STARTCHAR jisx0208_3056
ENCODING 12374
SWIDTH 960 0
DWIDTH 14 0
BBX 14 14 0 -2
BITMAP
0000
3F98
3198
3FFC
3018
3F58
6658
3598
2DB8
0300
2D98
2C6C
67E0
0000
ENDCHAR

STARTCHAR jisx0208_3057
ENCODING 12375
SWIDTH 960 0
DWIDTH 14 0
BBX 14 14 0 -2
BITMAP
0000
1FF0
1830
1FF0
1830
1FF0
0C00
1FFC
366C
66CC
0CCC
198C
0338
0000
ENDCHAR

STARTCHAR jisx0208_3058
ENCODING 12376
SWIDTH 960 0
DWIDTH 14 0
BBX 14 14 0 -2
BITMAP
0000
1860
19F8
7E60
18B0
1D98
37FC
3818
5BD8
5AD8
1AD8
1BD8
1838
0000
ENDCHAR

STARTCHAR jisx0208_3059
ENCODING 12377
SWIDTH 960 0
DWIDTH 14 0
BBX 14 14 0 -2
BITMAP
0000
3300
1B00
0600
7FE0
0C60
0FF0
1830
1FFC
300C
616C
158C
3638
0000
ENDCHAR

STARTCHAR jisx0208_305A
ENCODING 12378
SWIDTH 960 0
DWIDTH 14 0
BBX 14 14 0 -2
BITMAP
0000
3FF8
3318
3FF8
3318
3FF8
0000
7FFC
1980
18DC
1870
1E30
781C
0000
ENDCHAR

STARTCHAR jisx0208_305B
ENCODING 12379
SWIDTH 960 0
DWIDTH 14 0
BBX 14 14 0 -2
BITMAP
0000
3FF8
3318
3FF8
3318
3FF8
0C60
3FF8
0C60
7FFC
0000
1C70
701C
0000
ENDCHAR

STARTCHAR jisx0208_305C
ENCODING 12380
SWIDTH 960 0
DWIDTH 14 0
BBX 14 14 0 -2
BITMAP
0000
0CC0
78FC
19CC
7B58
1830
3DE0
367C
58CC
596C
1838
1830
19E0
0000
ENDCHAR

STARTCHAR jisx0208_305D
ENCODING 12381
SWIDTH 960 0
DWIDTH 14 0
BBX 14 14 0 -2
BITMAP
0000
18D8
30D8
6DFC
3BB0
19B0
35FC
7DB0
19B0
55FC
55B0
59B0
19FC
0000
ENDCHAR

STARTCHAR jisx0208_305E
ENCODING 12382
SWIDTH 960 0
DWIDTH 14 0
BBX 14 14 0 -2
BITMAP
0000
18C0
31F8
6CD8
3BFC
1998
35F8
7E30
19F8
55B0
57FC
5830
1830
0000
ENDCHAR

STARTCHAR jisx0208_305F
ENCODING 12383
SWIDTH 960 0
DWIDTH 14 0
BBX 14 14 0 -2
BITMAP
0000
7FF8
6318
7FF8
6318
7FF8
3030
3FF0
3030
3FF0
3030
3030
3070
0000
ENDCHAR

STARTCHAR jisx0208_3060
ENCODING 12384
SWIDTH 960 0
DWIDTH 14 0
BBX 14 14 0 -2
BITMAP
0000
0C60
7FFC
1FE0
0300
7FFC
0AC0
7B7C
0600
7FFC
0CC0
0FC0
7C78
0000
ENDCHAR

STARTCHAR jisx0208_3061
ENCODING 12385
SWIDTH 960 0
DWIDTH 14 0
BBX 14 14 0 -2
BITMAP
0000
0300
0300
7FFC
0300
0580
0D8C
1CD8
6CB0
0C60
0C30
0F18
3C0C
0000
ENDCHAR

STARTCHAR jisx0208_3062
ENCODING 12386
SWIDTH 960 0
DWIDTH 14 0
BBX 14 14 0 -2
BITMAP
0000
3BFC
036C
7BFC
036C
7BFC
0198
7DF8
0198
7DF8
6D98
6D98
7DB8
0000
ENDCHAR

STARTCHAR jisx0208_3063
ENCODING 12387
SWIDTH 960 0
DWIDTH 14 0
BBX 14 14 0 -2
BITMAP
0000
30C0
1BF8
0198
07FC
0318
7BF8
1860
1BF8
1B60
17FC
2C60
67FC
0000
ENDCHAR

STARTCHAR jisx0208_3064
ENCODING 12388
SWIDTH 960 0
DWIDTH 14 0
BBX 14 14 0 -2
BITMAP
0000
30C0
1BF8
02D8
07FC
0318
7BF8
1B18
1BF8
19B0
171C
2C00
67FC
0000
ENDCHAR

STARTCHAR jisx0208_3065
ENCODING 12389
SWIDTH 960 0
DWIDTH 14 0
BBX 14 14 0 -2
BITMAP
0000
7FF8
6000
6600
67F0
6D80
6180
5FF8
62C0
6660
5C38
6000
7FFC
0000
ENDCHAR

STARTCHAR jisx0208_3066
ENCODING 12390
SWIDTH 960 0
DWIDTH 14 0
BBX 14 14 0 -2
BITMAP
0000
0C60
0C60
0C60
3FF8
0C60
0C60
0C60
7FFC
0C60
0C60
1860
3060
0000
ENDCHAR

STARTCHAR jisx0208_3067
ENCODING 12391
SWIDTH 960 0
DWIDTH 14 0
BBX 14 14 0 -2
BITMAP
0000
0300
0300
7FFC
0600
0CC0
1D98
0730
0E60
38C0
0360
0E30
3818
0000
ENDCHAR

STARTCHAR jisx0208_3068
ENCODING 12392
SWIDTH 960 0
DWIDTH 14 0
BBX 14 14 0 -2
BITMAP
0000
182C
1830
1BFC
7E30
1830
1BB0
1AAC
1BB8
1C30
73AC
065C
01CC
0000
ENDCHAR

STARTCHAR jisx0208_3069
ENCODING 12393
SWIDTH 960 0
DWIDTH 14 0
BBX 14 14 0 -2
BITMAP
0000
0300
7FFC
0C30
3FD8
0000
1FF0
1830
1FF0
1830
1FF0
1830
1870
0000
ENDCHAR

STARTCHAR jisx0208_306A
ENCODING 12394
SWIDTH 960 0
DWIDTH 14 0
BBX 14 14 0 -2
BITMAP
0000
0C00
7F7C
186C
1858
3F70
7358
3F6C
336C
3F6C
3378
3360
3760
0000
ENDCHAR

STARTCHAR jisx0208_306B
ENCODING 12395
SWIDTH 960 0
DWIDTH 14 0
BBX 14 14 0 -2
BITMAP
0000
02D8
7EB0
32D8
35AC
37BC
3CD8
6FFC
6B60
2B6C
3BB8
02BC
066C
0000
ENDCHAR

STARTCHAR jisx0208_306C
ENCODING 12396
SWIDTH 960 0
DWIDTH 14 0
BBX 14 14 0 -2
BITMAP
0000
0000
0000
0000
0000
0000
7FFC
0000
0000
0000
0000
0000
0000
0000
ENDCHAR

STARTCHAR jisx0208_306D
ENCODING 12397
SWIDTH 960 0
DWIDTH 14 0
BBX 14 14 0 -2
BITMAP
0000
0300
7FFC
0300
3FF8
0000
7FFC
6C0C
6C6C
0FC0
0C00
0C18
07F8
0000
ENDCHAR

STARTCHAR jisx0208_306E
ENCODING 12398
SWIDTH 960 0
DWIDTH 14 0
BBX 14 14 0 -2
BITMAP
0000
3318
19B0
07FC
6330
3330
0618
0C0C
17F8
1558
3558
3558
6FFC
0000
ENDCHAR

STARTCHAR jisx0208_306F
ENCODING 12399
SWIDTH 960 0
DWIDTH 14 0
BBX 14 14 0 -2
BITMAP
0000
31F0
1B30
0660
07F8
06D8
76D8
17F8
1960
1B6C
167C
2C00
67FC
0000
ENDCHAR

STARTCHAR jisx0208_3070
ENCODING 12400
SWIDTH 960 0
DWIDTH 14 0
BBX 14 14 0 -2
BITMAP
0000
0E3C
79E0
196C
7EAC
1B00
1AFC
36CC
3ACC
5AFC
5ACC
1ACC
1AFC
0000
ENDCHAR

STARTCHAR jisx0208_3071
ENCODING 12401
SWIDTH 960 0
DWIDTH 14 0
BBX 14 14 0 -2
BITMAP
0000
0C60
7FFC
0C60
0180
7180
1BFC
036C
0660
18B0
18B0
3198
630C
0000
ENDCHAR

STARTCHAR jisx0208_3072
ENCODING 12402
SWIDTH 960 0
DWIDTH 14 0
BBX 14 14 0 -2
BITMAP
0000
0CC0
7FFC
0CC0
0000
3FF8
0300
0300
7FFC
0300
0300
0300
0700
0000
ENDCHAR

STARTCHAR jisx0208_3073
ENCODING 12403
SWIDTH 960 0
DWIDTH 14 0
BBX 14 14 0 -2
BITMAP
0000
3BBC
6CCC
18CC
7FBC
5730
7FBC
56CC
7EAC
01DC
56AC
56CC
5598
0000
ENDCHAR

STARTCHAR jisx0208_3074
ENCODING 12404
SWIDTH 960 0
DWIDTH 14 0
BBX 14 14 0 -2
BITMAP
0000
0300
0630
0C38
3FEC
06C0
06C0
06C0
06C0
0CC0
0CCC
18CC
707C
0000
ENDCHAR

STARTCHAR jisx0208_3075
ENCODING 12405
SWIDTH 960 0
DWIDTH 14 0
BBX 14 14 0 -2
BITMAP
0000
0600
1DFC
718C
618C
618C
7D8C
618C
618C
618C
7DBC
0180
0180
0000
ENDCHAR

STARTCHAR jisx0208_3076
ENCODING 12406
SWIDTH 960 0
DWIDTH 14 0
BBX 14 14 0 -2
BITMAP
0000
03FC
7B6C
6B6C
6B6C
6BFC
6B6C
6B6C
6AAC
7ADC
038C
030C
03FC
0000
ENDCHAR

STARTCHAR jisx0208_3077
ENCODING 12407
SWIDTH 960 0
DWIDTH 14 0
BBX 14 14 0 -2
BITMAP
0000
1FF0
1830
1830
3FF8
3018
3FF8
3018
3FF8
3018
3FF8
1830
701C
0000
ENDCHAR

STARTCHAR jisx0208_3078
ENCODING 12408
SWIDTH 960 0
DWIDTH 14 0
BBX 14 14 0 -2
BITMAP
0000
7FF8
6018
6318
6318
5FD8
6318
6598
6598
6CD8
5858
6018
7FF8
0000
ENDCHAR

STARTCHAR jisx0208_3079
ENCODING 12409
SWIDTH 960 0
DWIDTH 14 0
BBX 14 14 0 -2
BITMAP
0000
33FC
330C
7B6C
2B6C
2BFC
2B6C
6B6C
6AAC
1ADC
1B8C
2B0C
63FC
0000
ENDCHAR

STARTCHAR jisx0208_307A
ENCODING 12410
SWIDTH 960 0
DWIDTH 14 0
BBX 14 14 0 -2
BITMAP
0000
3F18
0318
0318
3F18
3018
3018
3F18
0318
0318
0318
0318
1E18
0000
ENDCHAR

STARTCHAR jisx0208_307B
ENCODING 12411
SWIDTH 960 0
DWIDTH 14 0
BBX 14 14 0 -2
BITMAP
0000
1CC0
36C0
6DFC
3D6C
3760
3E60
3660
3EB0
30B0
3598
3D98
730C
0000
ENDCHAR

STARTCHAR jisx0208_307C
ENCODING 12412
SWIDTH 960 0
DWIDTH 14 0
BBX 14 14 0 -2
BITMAP
0000
3038
1BE0
06CC
6358
3000
0078
03C0
18C0
17FC
30C0
30C0
63F8
0000
ENDCHAR

STARTCHAR jisx0208_307D
ENCODING 12413
SWIDTH 960 0
DWIDTH 14 0
BBX 14 14 0 -2
BITMAP
0000
3630
2DB0
3730
35B0
2DB0
2EB0
2CB0
2FB0
2CB0
2FB0
6CAC
6DBC
0000
ENDCHAR

STARTCHAR jisx0208_307E
ENCODING 12414
SWIDTH 960 0
DWIDTH 14 0
BBX 14 14 0 -2
BITMAP
0000
06C0
7FFC
06C0
3EF0
3598
2AEC
2C30
35F8
3600
3DFC
30D8
31EC
0000
ENDCHAR

STARTCHAR jisx0208_3121
ENCODING 12577
SWIDTH 960 0
DWIDTH 14 0
BBX 14 14 0 -2
BITMAP
0000
7C60
6BFC
5B0C
7000
59F8
6C00
6BFC
6CB0
6CB0
78B0
61AC
633C
0000
ENDCHAR

STARTCHAR jisx0208_3122
ENCODING 12578
SWIDTH 960 0
DWIDTH 14 0
BBX 14 14 0 -2
BITMAP
0000
7CE0
6DB0
5BF8
760C
5BF0
6C30
6BFC
6C00
7BFC
6180
6338
67EC
0000
ENDCHAR

STARTCHAR jisx0208_3123
ENCODING 12579
SWIDTH 960 0
DWIDTH 14 0
BBX 14 14 0 -2
BITMAP
0000
7C70
6BCC
5958
73F8
5818
6BF8
6C18
6BF8
6CC0
7858
658C
6DF0
0000
ENDCHAR

STARTCHAR jisx0208_3124
ENCODING 12580
SWIDTH 960 0
DWIDTH 14 0
BBX 14 14 0 -2
BITMAP
0000
18F8
7ED8
2DFC
2D8C
7DFC
018C
7DFC
658C
7DFC
6600
7ED8
018C
0000
ENDCHAR

STARTCHAR jisx0208_3125
ENCODING 12581
SWIDTH 960 0
DWIDTH 14 0
BBX 14 14 0 -2
BITMAP
0000
0030
0030
7C30
6BFC
6C30
6B30
6DB0
6DB0
6C30
7C30
0030
00F0
0000
ENDCHAR

STARTCHAR jisx0208_3126
ENCODING 12582
SWIDTH 960 0
DWIDTH 14 0
BBX 14 14 0 -2
BITMAP
0000
0300
0300
0300
7FFC
0600
0600
0C00
0FF8
1618
7618
0618
07F8
0000
ENDCHAR

STARTCHAR jisx0208_3127
ENCODING 12583
SWIDTH 960 0
DWIDTH 14 0
BBX 14 14 0 -2
BITMAP
0000
0300
7FFC
600C
600C
1FF0
0300
0300
7FFC
0300
0300
0300
0F00
0000
ENDCHAR

STARTCHAR jisx0208_3128
ENCODING 12584
SWIDTH 960 0
DWIDTH 14 0
BBX 14 14 0 -2
BITMAP
0000
0300
1FF0
1830
1FF0
1800
1FFC
1800
1FFC
000C
2DAC
36CC
6638
0000
ENDCHAR

STARTCHAR jisx0208_3129
ENCODING 12585
SWIDTH 960 0
DWIDTH 14 0
BBX 14 14 0 -2
BITMAP
0000
7EFC
030C
030C
32CC
1B6C
030C
0B2C
1B6C
72CC
030C
030C
0E38
0000
ENDCHAR

STARTCHAR jisx0208_312A
ENCODING 12586
SWIDTH 960 0
DWIDTH 14 0
BBX 14 14 0 -2
BITMAP
0000
33FC
1860
1860
0060
03FC
7860
1860
1860
1860
18E0
2C00
67FC
0000
ENDCHAR

STARTCHAR jisx0208_312B
ENCODING 12587
SWIDTH 960 0
DWIDTH 14 0
BBX 14 14 0 -2
BITMAP
0000
7FFC
0300
0300
7FFC
630C
5ACC
6B6C
630C
5ACC
6B6C
630C
633C
0000
ENDCHAR

STARTCHAR jisx0208_312C
ENCODING 12588
SWIDTH 960 0
DWIDTH 14 0
BBX 14 14 0 -2
BITMAP
0000
0600
3CFC
32CC
32CC
32CC
32CC
32CC
2ECC
36CC
66B8
0CC0
38C0
0000
ENDCHAR

STARTCHAR jisx0208_312D
ENCODING 12589
SWIDTH 960 0
DWIDTH 14 0
BBX 14 14 0 -2
BITMAP
0000
6C60
2DF8
7D98
15F8
7D98
59FC
7D80
15FC
360C
5CAC
1ACC
1618
0000
ENDCHAR

STARTCHAR jisx0208_312E
ENCODING 12590
SWIDTH 960 0
DWIDTH 14 0
BBX 14 14 0 -2
BITMAP
0000
0300
7FFC
66CC
1CF0
19F8
7D98
19F8
7D98
19F8
2CB0
36AC
63BC
0000
ENDCHAR

STARTCHAR jisx0208_312F
ENCODING 12591
SWIDTH 960 0
DWIDTH 14 0
BBX 14 14 0 -2
BITMAP
0000
3FF0
0330
0330
0330
0330
7FFC
0660
0660
0660
0660
0660
7FFC
0000
ENDCHAR

STARTCHAR jisx0208_3130
ENCODING 12592
SWIDTH 960 0
DWIDTH 14 0
BBX 14 14 0 -2
BITMAP
0000
00D8
7ED8
19FC
1BB0
31B0
3DFC
75B0
75B0
35FC
35B0
3DB0
01FC
0000
ENDCHAR

STARTCHAR jisx0208_3131
ENCODING 12593
SWIDTH 960 0
DWIDTH 14 0
BBX 14 14 0 -2
BITMAP
0000
0300
0E00
38F8
3018
3018
3018
3EF8
3018
3018
3018
3018
3FF8
0000
ENDCHAR

STARTCHAR jisx0208_3132
ENCODING 12594
SWIDTH 960 0
DWIDTH 14 0
BBX 14 14 0 -2
BITMAP
0000
33F8
1B18
02F8
62D8
37FC
060C
05EC
15AC
15AC
35EC
360C
661C
0000
ENDCHAR

STARTCHAR jisx0208_3133
ENCODING 12595
SWIDTH 960 0
DWIDTH 14 0
BBX 14 14 0 -2
BITMAP
0000
00F0
78C0
57FC
56CC
57F8
56CC
567C
7600
06B0
0AAC
0CB0
17FC
0000
ENDCHAR

STARTCHAR jisx0208_3134
ENCODING 12596
SWIDTH 960 0
DWIDTH 14 0
BBX 14 14 0 -2
BITMAP
0000
03F8
7B18
6B18
6BF8
6B18
6BF8
6B18
7B18
03F8
0000
01B8
070C
0000
ENDCHAR

STARTCHAR jisx0208_3135
ENCODING 12597
SWIDTH 960 0
DWIDTH 14 0
BBX 14 14 0 -2
BITMAP
0000
1AD8
7D7C
3ABC
5558
3FF8
36D8
3FF8
3330
3EFC
3F30
36B0
3B70
0000
ENDCHAR

STARTCHAR jisx0208_3136
ENCODING 12598
SWIDTH 960 0
DWIDTH 14 0
BBX 14 14 0 -2
BITMAP
0000
0C60
7FFC
0C60
3F98
3198
3FFC
3018
3F58
3658
5598
5598
0E38
0000
ENDCHAR

STARTCHAR jisx0208_3137
ENCODING 12599
SWIDTH 960 0
DWIDTH 14 0
BBX 14 14 0 -2
BITMAP
0000
3DF8
6D98
19F8
7D98
57FC
7EAC
57FC
5600
7DFC
00D8
5670
55DC
0000
ENDCHAR

STARTCHAR jisx0208_3138
ENCODING 12600
SWIDTH 960 0
DWIDTH 14 0
BBX 14 14 0 -2
BITMAP
0000
30C0
30CC
7BF8
2CB0
2BFC
2C60
6CC0
6DDC
7AF0
1CC0
36CC
607C
0000
ENDCHAR

STARTCHAR jisx0208_3139
ENCODING 12601
SWIDTH 960 0
DWIDTH 14 0
BBX 14 14 0 -2
BITMAP
0000
3FFC
3000
2FFC
2D58
2F58
2D58
2FFC
2C30
2C70
2B70
6EAC
5DBC
0000
ENDCHAR

STARTCHAR jisx0208_313A
ENCODING 12602
SWIDTH 960 0
DWIDTH 14 0
BBX 14 14 0 -2
BITMAP
0000
30B0
18D8
0FFC
60C0
37F8
06D8
07F8
16D8
17F8
36D8
36D8
66B8
0000
ENDCHAR

STARTCHAR jisx0208_313B
ENCODING 12603
SWIDTH 960 0
DWIDTH 14 0
BBX 14 14 0 -2
BITMAP
0000
0070
3FC0
3360
3360
3360
3360
3330
3330
32B0
33D8
6758
5C6C
0000
ENDCHAR

STARTCHAR jisx0208_313C
ENCODING 12604
SWIDTH 960 0
DWIDTH 14 0
BBX 14 14 0 -2
BITMAP
0000
7EFC
66CC
7EFC
66CC
7EFC
600C
6FCC
630C
6FCC
630C
5FEC
601C
0000
ENDCHAR

STARTCHAR jisx0208_313D
ENCODING 12605
SWIDTH 960 0
DWIDTH 14 0
BBX 14 14 0 -2
BITMAP
0000
0330
77FC
5960
57F8
5558
57F8
5618
57F8
7830
0FFC
0330
0070
0000
ENDCHAR

STARTCHAR jisx0208_313E
ENCODING 12606
SWIDTH 960 0
DWIDTH 14 0
BBX 14 14 0 -2
BITMAP
0000
0000
3FF8
0000
0000
0000
7FFC
0600
0600
0C30
0C18
19EC
3F0C
0000
ENDCHAR

STARTCHAR jisx0208_313F
ENCODING 12607
SWIDTH 960 0
DWIDTH 14 0
BBX 14 14 0 -2
BITMAP
0000
37FC
16CC
03F8
02D8
03F8
7AD8
1BF8
18C0
17FC
18C0
2CC0
67FC
0000
ENDCHAR

STARTCHAR jisx0208_3140
ENCODING 12608
SWIDTH 960 0
DWIDTH 14 0
BBX 14 14 0 -2
BITMAP
0000
3FF8
0300
7FFC
5B6C
5B6C
0000
3FF8
0000
7FFC
0630
0CF0
3F98
0000
ENDCHAR

STARTCHAR jisx0208_3141
ENCODING 12609
SWIDTH 960 0
DWIDTH 14 0
BBX 14 14 0 -2
BITMAP
0000
06C0
7FFC
06C0
0C1C
1BF0
1860
3860
57FC
1860
1860
1860
1BFC
0000
ENDCHAR

STARTCHAR jisx0208_3142
ENCODING 12610
SWIDTH 960 0
DWIDTH 14 0
BBX 14 14 0 -2
BITMAP
0000
1C00
35FC
6AD8
3ED8
36F8
3ED8
36F8
3ED8
30DC
35F8
3E18
7318
0000
ENDCHAR

STARTCHAR jisx0208_3143
ENCODING 12611
SWIDTH 960 0
DWIDTH 14 0
BBX 14 14 0 -2
BITMAP
0000
1E00
18FC
7ECC
62CC
1CCC
5B6C
3658
7F58
3630
3E58
36D8
3D8C
0000
ENDCHAR

STARTCHAR jisx0208_3144
ENCODING 12612
SWIDTH 960 0
DWIDTH 14 0
BBX 14 14 0 -2
BITMAP
0000
3318
19B0
7FFC
600C
6FEC
0C60
0FE0
0300
1FF0
1830
1830
1FF0
0000
ENDCHAR

STARTCHAR jisx0208_3145
ENCODING 12613
SWIDTH 960 0
DWIDTH 14 0
BBX 14 14 0 -2
BITMAP
0000
3EF8
36D8
3EF8
36D8
3EF8
32D8
660C
7FFC
0C60
1EC0
03E0
3E38
0000
ENDCHAR

STARTCHAR jisx0208_3146
ENCODING 12614
SWIDTH 960 0
DWIDTH 14 0
BBX 14 14 0 -2
BITMAP
0000
3F18
3330
3EE0
3300
3F0C
0C18
7F70
3300
3F0C
0C18
2B30
6CE0
0000
ENDCHAR

STARTCHAR jisx0208_3147
ENCODING 12615
SWIDTH 960 0
DWIDTH 14 0
BBX 14 14 0 -2
BITMAP
0000
00C0
7CC0
6BF8
6AD8
6AD8
7AD8
6FFC
6CC0
6D60
7DB0
0318
060C
0000
ENDCHAR

STARTCHAR jisx0208_3148
ENCODING 12616
SWIDTH 960 0
DWIDTH 14 0
BBX 14 14 0 -2
BITMAP
0000
0300
0300
3FF0
3330
3FF0
3330
3FF0
0330
0160
01CC
076C
3C1C
0000
ENDCHAR

STARTCHAR jisx0208_3149
ENCODING 12617
SWIDTH 960 0
DWIDTH 14 0
BBX 14 14 0 -2
BITMAP
0000
3318
19B0
7FFC
600C
630C
0300
3FF8
0780
0AC0
3B70
631C
0300
0000
ENDCHAR

STARTCHAR jisx0208_314A
ENCODING 12618
SWIDTH 960 0
DWIDTH 14 0
BBX 14 14 0 -2
BITMAP
0000
0F00
0000
0F00
0300
0318
7BB0
0AE0
1AC0
1B60
3330
631C
0F00
0000
ENDCHAR

STARTCHAR jisx0208_314B
ENCODING 12619
SWIDTH 960 0
DWIDTH 14 0
BBX 14 14 0 -2
BITMAP
0000
33C0
1800
07C0
60CC
30D8
0EF0
02B0
32B0
36D8
36D8
6CCC
61C0
0000
ENDCHAR

STARTCHAR jisx0208_314C
ENCODING 12620
SWIDTH 960 0
DWIDTH 14 0
BBX 14 14 0 -2
BITMAP
0000
30C0
18C0
07F8
66D8
37F8
06D8
07F8
1860
1858
3070
31AC
671C
0000
ENDCHAR

STARTCHAR jisx0208_314D
ENCODING 12621
SWIDTH 960 0
DWIDTH 14 0
BBX 14 14 0 -2
BITMAP
0000
01B0
7BFC
31B0
30C0
7BF8
32D8
32D8
37FC
3CC0
7160
0330
061C
0000
ENDCHAR

STARTCHAR jisx0208_314E
ENCODING 12622
SWIDTH 960 0
DWIDTH 14 0
BBX 14 14 0 -2
BITMAP
0000
3FF0
0C30
0F60
1978
1B18
3618
6B70
0000
3FF8
36D8
36D8
7FFC
0000
ENDCHAR

STARTCHAR jisx0208_314F
ENCODING 12623
SWIDTH 960 0
DWIDTH 14 0
BBX 14 14 0 -2
BITMAP
0000
6DFC
7860
65FC
3D8C
01FC
3D8C
19FC
7D8C
1DFC
3600
58D8
198C
0000
ENDCHAR

STARTCHAR jisx0208_3150
ENCODING 12624
SWIDTH 960 0
DWIDTH 14 0
BBX 14 14 0 -2
BITMAP
0000
6DFC
7860
65FC
3D8C
01FC
7D8C
01FC
7D8C
19FC
5600
56D8
198C
0000
ENDCHAR

STARTCHAR jisx0208_3151
ENCODING 12625
SWIDTH 960 0
DWIDTH 14 0
BBX 14 14 0 -2
BITMAP
0000
0C60
7FFC
0C60
0300
1FF0
1B30
1B30
7FFC
0580
0CC0
1870
701C
0000
ENDCHAR

STARTCHAR jisx0208_3152
ENCODING 12626
SWIDTH 960 0
DWIDTH 14 0
BBX 14 14 0 -2
BITMAP
0000
1B00
37BC
62C0
1AC0
2FFC
76D8
37D8
3198
37D8
3598
2FD8
31B8
0000
ENDCHAR

STARTCHAR jisx0208_3153
ENCODING 12627
SWIDTH 960 0
DWIDTH 14 0
BBX 14 14 0 -2
BITMAP
0000
78F0
0000
7DE0
0060
786C
0758
7970
0170
7B58
5B58
566C
78E0
0000
ENDCHAR

STARTCHAR jisx0208_3154
ENCODING 12628
SWIDTH 960 0
DWIDTH 14 0
BBX 14 14 0 -2
BITMAP
0000
1D98
36D8
32B0
61F8
3D98
1998
7DF8
18B0
56B0
55B0
1DAC
733C
0000
ENDCHAR

STARTCHAR jisx0208_3155
ENCODING 12629
SWIDTH 960 0
DWIDTH 14 0
BBX 14 14 0 -2
BITMAP
0000
30C0
17FC
0360
637C
366C
06EC
0EB8
35D8
3670
3660
66B0
659C
0000
ENDCHAR

STARTCHAR jisx0208_3156
ENCODING 12630
SWIDTH 960 0
DWIDTH 14 0
BBX 14 14 0 -2
BITMAP
0000
00C0
1FFC
1800
5BF0
3B2C
163C
3800
57F8
1B18
3170
31E0
6F3C
0000
ENDCHAR

STARTCHAR jisx0208_3157
ENCODING 12631
SWIDTH 960 0
DWIDTH 14 0
BBX 14 14 0 -2
BITMAP
0000
1830
0C60
06C0
7FFC
0C60
1830
3018
5FEC
15B0
15B0
15B0
7FFC
0000
ENDCHAR

STARTCHAR jisx0208_3158
ENCODING 12632
SWIDTH 960 0
DWIDTH 14 0
BBX 14 14 0 -2
BITMAP
0000
3EFC
2CCC
3ECC
2CCC
3EFC
2CB0
3EB0
02B0
1AD8
72D8
058C
1D8C
0000
ENDCHAR

STARTCHAR jisx0208_3159
ENCODING 12633
SWIDTH 960 0
DWIDTH 14 0
BBX 14 14 0 -2
BITMAP
0000
1B18
19B0
1BF8
5718
5B18
5B18
1BF8
1960
1960
1B60
1B6C
163C
0000
ENDCHAR

STARTCHAR jisx0208_315A
ENCODING 12634
SWIDTH 960 0
DWIDTH 14 0
BBX 14 14 0 -2
BITMAP
0000
3BF8
0318
7BF8
0318
7BF8
0180
7BFC
070C
7BEC
6B0C
6DEC
7C38
0000
ENDCHAR

STARTCHAR jisx0208_315B
ENCODING 12635
SWIDTH 960 0
DWIDTH 14 0
BBX 14 14 0 -2
BITMAP
0000
0C2C
0C30
3EFC
0CB0
7EAC
0CDC
0ED8
2CD8
2DAC
2C6C
5C00
67FC
0000
ENDCHAR

STARTCHAR jisx0208_315C
ENCODING 12636
SWIDTH 960 0
DWIDTH 14 0
BBX 14 14 0 -2
BITMAP
0000
7EFC
7EFC
66CC
7EFC
6CCC
658C
6FCC
6CCC
6FCC
658C
6D6C
58DC
0000
ENDCHAR

STARTCHAR jisx0208_315D
ENCODING 12637
SWIDTH 960 0
DWIDTH 14 0
BBX 14 14 0 -2
BITMAP
0000
1BFC
18C0
7DF8
1998
1DF8
35F8
3998
59F8
5998
1AB0
18F0
1B9C
0000
ENDCHAR

STARTCHAR jisx0208_315E
ENCODING 12638
SWIDTH 960 0
DWIDTH 14 0
BBX 14 14 0 -2
BITMAP
0000
3FFC
2FB0
2DAC
2FB0
30FC
2FB0
2DB0
2FB8
2D58
2F58
6D6C
6DCC
0000
ENDCHAR

STARTCHAR jisx0208_315F
ENCODING 12639
SWIDTH 960 0
DWIDTH 14 0
BBX 14 14 0 -2
BITMAP
0000
7FF8
6318
6318
6318
6318
7FF8
6018
6018
6018
6018
6018
6038
0000
ENDCHAR

STARTCHAR jisx0208_3160
ENCODING 12640
SWIDTH 960 0
DWIDTH 14 0
BBX 14 14 0 -2
BITMAP
0000
7FF8
6318
6FD8
6318
5FD8
6CD8
6FD8
6758
6AD8
5B58
6018
7FF8
0000
ENDCHAR

STARTCHAR jisx0208_3161
ENCODING 12641
SWIDTH 960 0
DWIDTH 14 0
BBX 14 14 0 -2
BITMAP
0000
37FC
3600
36F8
76F8
36D8
36F8
36C0
35FC
36D8
6670
06D8
07FC
0000
ENDCHAR

STARTCHAR jisx0208_3162
ENCODING 12642
SWIDTH 960 0
DWIDTH 14 0
BBX 14 14 0 -2
BITMAP
0000
0300
7FFC
06C0
0B60
3B38
5FEC
1B60
1FE0
1B60
1FE0
030C
01FC
0000
ENDCHAR

STARTCHAR jisx0208_3163
ENCODING 12643
SWIDTH 960 0
DWIDTH 14 0
BBX 14 14 0 -2
BITMAP
0000
0300
7FFC
6C6C
0FE0
0C60
0FE0
0600
7FFC
0C60
1EC0
03F0
3E18
0000
ENDCHAR

STARTCHAR jisx0208_3164
ENCODING 12644
SWIDTH 960 0
DWIDTH 14 0
BBX 14 14 0 -2
BITMAP
0000
7C1C
0BF0
1860
3060
7D7C
0D60
2D60
2D60
5BFC
1800
2E00
63FC
0000
ENDCHAR

STARTCHAR jisx0208_3165
ENCODING 12645
SWIDTH 960 0
DWIDTH 14 0
BBX 14 14 0 -2
BITMAP
0000
1800
1EFC
32CC
56DC
0CC0
18CC
707C
0180
0CD8
2C0C
2C30
67F0
0000
ENDCHAR

STARTCHAR jisx0208_3166
ENCODING 12646
SWIDTH 960 0
DWIDTH 14 0
BBX 14 14 0 -2
BITMAP
0000
18C0
1BF8
7DB0
1B18
18CC
1BF8
7AD8
1BF8
1AD8
1BF8
18CC
387C
0000
ENDCHAR

STARTCHAR jisx0208_3167
ENCODING 12647
SWIDTH 960 0
DWIDTH 14 0
BBX 14 14 0 -2
BITMAP
0000
181C
1BF0
7ACC
1800
1BF8
1CC0
77FC
1980
19F8
1AD8
1670
39DC
0000
ENDCHAR

STARTCHAR jisx0208_3168
ENCODING 12648
SWIDTH 960 0
DWIDTH 14 0
BBX 14 14 0 -2
BITMAP
0000
31B0
19B0
0318
6318
360C
0000
03F8
1B18
1B18
3318
3318
63F8
0000
ENDCHAR

STARTCHAR jisx0208_3169
ENCODING 12649
SWIDTH 960 0
DWIDTH 14 0
BBX 14 14 0 -2
BITMAP
0000
30C0
17FC
060C
63F8
30C0
03F8
02D8
1BF8
1AD8
33F8
31B0
671C
0000
ENDCHAR

STARTCHAR jisx0208_316A
ENCODING 12650
SWIDTH 960 0
DWIDTH 14 0
BBX 14 14 0 -2
BITMAP
0000
0300
3330
6360
0580
1CE0
7338
0300
3330
6360
0580
1CE0
7038
0000
ENDCHAR

STARTCHAR jisx0208_316B
ENCODING 12651
SWIDTH 960 0
DWIDTH 14 0
BBX 14 14 0 -2
BITMAP
0000
1860
18FC
558C
5618
5C30
1AFC
1ACC
1ACC
2AFC
36CC
62CC
62FC
0000
ENDCHAR

STARTCHAR jisx0208_316C
ENCODING 12652
SWIDTH 960 0
DWIDTH 14 0
BBX 14 14 0 -2
BITMAP
0000
1BFC
18B0
57FC
5AAC
5AAC
1BFC
1860
1860
2BFC
3660
3060
63FC
0000
ENDCHAR

STARTCHAR jisx0208_316D
ENCODING 12653
SWIDTH 960 0
DWIDTH 14 0
BBX 14 14 0 -2
BITMAP
0000
06C0
7FFC
06C0
17B0
783C
17B0
36AC
57BC
0000
36D8
336C
636C
0000
ENDCHAR

STARTCHAR jisx0208_316E
ENCODING 12654
SWIDTH 960 0
DWIDTH 14 0
BBX 14 14 0 -2
BITMAP
0000
6CC0
3BF8
18C0
37FC
5B18
1B18
1BF8
396C
5B58
15B0
19D8
770C
0000
ENDCHAR

STARTCHAR jisx0208_316F
ENCODING 12655
SWIDTH 960 0
DWIDTH 14 0
BBX 14 14 0 -2
BITMAP
0000
19F8
3018
6DF8
3818
1BFC
3660
7DAC
1878
55B8
566C
59B0
1860
0000
ENDCHAR

STARTCHAR jisx0208_3170
ENCODING 12656
SWIDTH 960 0
DWIDTH 14 0
BBX 14 14 0 -2
BITMAP
0000
1C60
7F78
5AD8
7FB0
5AFC
7EAC
00AC
7EFC
36C0
3EC0
2CCC
7F7C
0000
ENDCHAR

STARTCHAR jisx0208_3171
ENCODING 12657
SWIDTH 960 0
DWIDTH 14 0
BBX 14 14 0 -2
BITMAP
0000
0C60
7FFC
0C60
1800
18F8
1ED8
32D8
76D8
16B8
0CC0
18CC
707C
0000
ENDCHAR

STARTCHAR jisx0208_3172
ENCODING 12658
SWIDTH 960 0
DWIDTH 14 0
BBX 14 14 0 -2
BITMAP
0000
0C60
7FFC
0C60
3FF8
3318
3FD8
2CD8
2FD8
3758
2AD8
3B58
3FF8
0000
ENDCHAR

STARTCHAR jisx0208_3173
ENCODING 12659
SWIDTH 960 0
DWIDTH 14 0
BBX 14 14 0 -2
BITMAP
0000
3060
19F8
0060
03FC
0198
7998
19F8
18EC
1978
1B5C
2C60
67FC
0000
ENDCHAR

STARTCHAR jisx0208_3174
ENCODING 12660
SWIDTH 960 0
DWIDTH 14 0
BBX 14 14 0 -2
BITMAP
0000
1CD8
36D8
60D8
7D8C
198C
1800
7DFC
198C
558C
558C
1D8C
71FC
0000
ENDCHAR

STARTCHAR jisx0208_3175
ENCODING 12661
SWIDTH 960 0
DWIDTH 14 0
BBX 14 14 0 -2
BITMAP
0000
1EF8
3AD8
6EB8
1CCC
737C
1FE0
1860
1FF8
1800
1FFC
300C
6AD8
0000
ENDCHAR

STARTCHAR jisx0208_3176
ENCODING 12662
SWIDTH 960 0
DWIDTH 14 0
BBX 14 14 0 -2
BITMAP
0000
1980
19FC
1B00
7DF8
1998
1998
19F8
1800
1BFC
72AC
02AC
07FC
0000
ENDCHAR

STARTCHAR jisx0208_3177
ENCODING 12663
SWIDTH 960 0
DWIDTH 14 0
BBX 14 14 0 -2
BITMAP
0000
1860
18B0
7EB0
1998
1B0C
1E60
1630
3600
3600
36C0
6670
5C18
0000
ENDCHAR

STARTCHAR jisx0208_3178
ENCODING 12664
SWIDTH 960 0
DWIDTH 14 0
BBX 14 14 0 -2
BITMAP
0000
37F8
1980
0180
6FFC
3180
0300
03F8
1818
1818
3018
3030
61E0
0000
ENDCHAR

STARTCHAR jisx0208_3179
ENCODING 12665
SWIDTH 960 0
DWIDTH 14 0
BBX 14 14 0 -2
BITMAP
0000
1BFC
1B6C
5BFC
7B6C
5BFC
1860
7DFC
186C
16CC
1CCC
718C
0338
0000
ENDCHAR

STARTCHAR jisx0208_317A
ENCODING 12666
SWIDTH 960 0
DWIDTH 14 0
BBX 14 14 0 -2
BITMAP
0000
0000
7EFC
66CC
66CC
66CC
67CC
600C
600C
600C
600C
600C
7FFC
0000
ENDCHAR

STARTCHAR jisx0208_317B
ENCODING 12667
SWIDTH 960 0
DWIDTH 14 0
BBX 14 14 0 -2
BITMAP
0000
0300
0300
1FF0
1B30
1B30
1B30
1B30
7FFC
0580
0CC0
1870
701C
0000
ENDCHAR

STARTCHAR jisx0208_317C
ENCODING 12668
SWIDTH 960 0
DWIDTH 14 0
BBX 14 14 0 -2
BITMAP
0000
0300
3FF0
2AB0
3330
3FF0
37B0
2AB0
3330
7FFC
0580
1CE0
703C
0000
ENDCHAR

STARTCHAR jisx0208_317D
ENCODING 12669
SWIDTH 960 0
DWIDTH 14 0
BBX 14 14 0 -2
BITMAP
0000
18C0
3060
6000
0BFC
1860
3860
5860
1BFC
1860
1860
1860
1BFC
0000
ENDCHAR

STARTCHAR jisx0208_317E
ENCODING 12670
SWIDTH 960 0
DWIDTH 14 0
BBX 14 14 0 -2
BITMAP
0000
0180
3FFC
3000
30C0
3360
3360
3300
2B18
2B0C
5B0C
6330
01F0
0000
ENDCHAR

STARTCHAR jisx0208_3221
ENCODING 12833
SWIDTH 960 0
DWIDTH 14 0
BBX 14 14 0 -2
BITMAP
0000
1800
1BFC
7B6C
1B6C
1BFC
1B6C
1B6C
7BFC
1860
1860
1860
3860
0000
ENDCHAR

STARTCHAR jisx0208_3222
ENCODING 12834
SWIDTH 960 0
DWIDTH 14 0
BBX 14 14 0 -2
BITMAP
0000
0000
7BFC
6C60
6C60
6C60
7C60
6DF8
6C60
6C60
7C60
0060
07FC
0000
ENDCHAR

STARTCHAR jisx0208_3223
ENCODING 12835
SWIDTH 960 0
DWIDTH 14 0
BBX 14 14 0 -2
BITMAP
0000
19B0
1BF8
7DB0
17FC
18C0
3BF8
36D8
5BF8
5AD8
1BF8
19B0
171C
0000
ENDCHAR

STARTCHAR jisx0208_3224
ENCODING 12836
SWIDTH 960 0
DWIDTH 14 0
BBX 14 14 0 -2
BITMAP
0000
7EC0
60C0
66FC
556C
6B58
6C60
5660
56B0
70B0
60D8
7D98
030C
0000
ENDCHAR

STARTCHAR jisx0208_3225
ENCODING 12837
SWIDTH 960 0
DWIDTH 14 0
BBX 14 14 0 -2
BITMAP
0000
7EF0
60B0
66B0
56AC
6DBC
6C00
55F8
5598
70B0
6060
7EB0
039C
0000
ENDCHAR

STARTCHAR jisx0208_3226
ENCODING 12838
SWIDTH 960 0
DWIDTH 14 0
BBX 14 14 0 -2
BITMAP
0000
0000
7FF8
0300
0300
0300
0300
3FF0
0300
0300
0300
0300
7FF8
0000
ENDCHAR

STARTCHAR jisx0208_3227
ENCODING 12839
SWIDTH 960 0
DWIDTH 14 0
BBX 14 14 0 -2
BITMAP
0000
0C60
1830
731C
0660
1FB0
0000
7EFC
32CC
1B6C
0B2C
1B6C
36DC
0000
ENDCHAR

STARTCHAR jisx0208_3228
ENCODING 12840
SWIDTH 960 0
DWIDTH 14 0
BBX 14 14 0 -2
BITMAP
0000
1860
1BFC
7B0C
0AAC
1B0C
16AC
3B0C
5660
1BFC
1860
18B0
1B9C
0000
ENDCHAR

STARTCHAR jisx0208_3229
ENCODING 12841
SWIDTH 960 0
DWIDTH 14 0
BBX 14 14 0 -2
BITMAP
0000
1B18
0DB0
7FFC
618C
0FE0
0C60
0FF8
0C00
0FFC
300C
2DAC
66D8
0000
ENDCHAR

STARTCHAR jisx0208_322A
ENCODING 12842
SWIDTH 960 0
DWIDTH 14 0
BBX 14 14 0 -2
BITMAP
0000
0060
7DF8
6198
65F8
5598
6DFC
6D80
55FC
700C
62AC
7ACC
0638
0000
ENDCHAR

STARTCHAR jisx0208_322B
ENCODING 12843
SWIDTH 960 0
DWIDTH 14 0
BBX 14 14 0 -2
BITMAP
0000
0C60
3FF8
0C60
7FFC
0300
1FF0
1B30
1FF0
1B30
1FF0
0C60
3838
0000
ENDCHAR

STARTCHAR jisx0208_322C
ENCODING 12844
SWIDTH 960 0
DWIDTH 14 0
BBX 14 14 0 -2
BITMAP
0000
7FF8
6018
6CD8
66D8
6598
5FD8
6318
5B58
5B58
5FD8
6018
6038
0000
ENDCHAR

STARTCHAR jisx0208_322D
ENCODING 12845
SWIDTH 960 0
DWIDTH 14 0
BBX 14 14 0 -2
BITMAP
0000
30C0
18C0
07FC
66CC
36CC
06CC
06CC
17FC
18C0
30C0
30C0
60C0
0000
ENDCHAR

STARTCHAR jisx0208_322E
ENCODING 12846
SWIDTH 960 0
DWIDTH 14 0
BBX 14 14 0 -2
BITMAP
0000
0CC0
7FFC
0CC0
2C60
1860
396C
6B58
1C60
2CB0
6CB0
0D98
3B0C
0000
ENDCHAR

STARTCHAR jisx0208_322F
ENCODING 12847
SWIDTH 960 0
DWIDTH 14 0
BBX 14 14 0 -2
BITMAP
0000
0C60
0FFC
19B0
17FC
3B18
5BF8
1B18
1BF8
1800
1958
158C
16F0
0000
ENDCHAR

STARTCHAR jisx0208_3230
ENCODING 12848
SWIDTH 960 0
DWIDTH 14 0
BBX 14 14 0 -2
BITMAP
0000
3FF8
3018
3FF8
3000
3FFC
3360
3630
2FD8
3180
2FF8
6180
5FFC
0000
ENDCHAR

STARTCHAR jisx0208_3231
ENCODING 12849
SWIDTH 960 0
DWIDTH 14 0
BBX 14 14 0 -2
BITMAP
0000
18C0
17FC
1DB0
57FC
5B18
5BF8
1B18
1BF8
1800
1958
158C
16F0
0000
ENDCHAR

STARTCHAR jisx0208_3232
ENCODING 12850
SWIDTH 960 0
DWIDTH 14 0
BBX 14 14 0 -2
BITMAP
0000
3C60
2BFC
2CB0
3BFC
2D98
2DF8
3D98
2DF8
2C00
2CAC
6AD8
5B78
0000
ENDCHAR

STARTCHAR jisx0208_3233
ENCODING 12851
SWIDTH 960 0
DWIDTH 14 0
BBX 14 14 0 -2
BITMAP
0000
1BF8
1830
7EE0
1BFC
1B6C
3BFC
376C
5BFC
5B6C
1B6C
1B6C
1B5C
0000
ENDCHAR

STARTCHAR jisx0208_3234
ENCODING 12852
SWIDTH 960 0
DWIDTH 14 0
BBX 14 14 0 -2
BITMAP
0000
1860
5860
7E60
5860
1BFC
1860
1E60
7860
1860
1860
1860
1BFC
0000
ENDCHAR

STARTCHAR jisx0208_3235
ENCODING 12853
SWIDTH 960 0
DWIDTH 14 0
BBX 14 14 0 -2
BITMAP
0000
0000
3FF0
0060
00C0
0180
0300
0E00
1800
3000
6018
6018
3FF8
0000
ENDCHAR

STARTCHAR jisx0208_3236
ENCODING 12854
SWIDTH 960 0
DWIDTH 14 0
BBX 14 14 0 -2
BITMAP
0000
0CC0
17FC
1960
3330
6EDC
37F8
36D8
37F8
36D8
37F8
30CC
307C
0000
ENDCHAR

STARTCHAR jisx0208_3237
ENCODING 12855
SWIDTH 960 0
DWIDTH 14 0
BBX 14 14 0 -2
BITMAP
0000
3000
3EFC
6CCC
0CCC
7ECC
0CCC
0ECC
2CCC
2CCC
2EB8
7CC0
00C0
0000
ENDCHAR

STARTCHAR jisx0208_3238
ENCODING 12856
SWIDTH 960 0
DWIDTH 14 0
BBX 14 14 0 -2
BITMAP
0000
3FF8
3318
2FD8
3398
36D8
2C58
3FF8
0000
0D98
2CCC
2C2C
67F0
0000
ENDCHAR

STARTCHAR jisx0208_3239
ENCODING 12857
SWIDTH 960 0
DWIDTH 14 0
BBX 14 14 0 -2
BITMAP
0000
37F8
1618
07F8
6618
3618
07F8
0000
17F8
1558
3558
3558
6FFC
0000
ENDCHAR

STARTCHAR jisx0208_323A
ENCODING 12858
SWIDTH 960 0
DWIDTH 14 0
BBX 14 14 0 -2
BITMAP
0000
0C38
7BEC
1958
7BF8
1818
3BF8
3C18
5BF8
5800
1958
158C
16F0
0000
ENDCHAR

STARTCHAR jisx0208_323B
ENCODING 12859
SWIDTH 960 0
DWIDTH 14 0
BBX 14 14 0 -2
BITMAP
0000
0300
3FF8
0C60
06C0
7FFC
0000
1FF0
1830
1FF0
1830
1830
1FF0
0000
ENDCHAR

STARTCHAR jisx0208_323C
ENCODING 12860
SWIDTH 960 0
DWIDTH 14 0
BBX 14 14 0 -2
BITMAP
0000
0000
7FFC
0300
0300
03C0
0370
0300
0300
0300
0300
0300
0300
0000
ENDCHAR

STARTCHAR jisx0208_323D
ENCODING 12861
SWIDTH 960 0
DWIDTH 14 0
BBX 14 14 0 -2
BITMAP
0000
0D80
1980
1980
398C
59B8
19E0
1980
1980
1980
1980
198C
18FC
0000
ENDCHAR

STARTCHAR jisx0208_323E
ENCODING 12862
SWIDTH 960 0
DWIDTH 14 0
BBX 14 14 0 -2
BITMAP
0000
0C00
1BFC
1B00
3B00
5BFC
1ACC
1ACC
1AD8
1B58
1B70
16D8
158C
0000
ENDCHAR

STARTCHAR jisx0208_323F
ENCODING 12863
SWIDTH 960 0
DWIDTH 14 0
BBX 14 14 0 -2
BITMAP
0000
1800
17FC
3018
3018
77D8
36D8
36D8
36D8
37D8
3018
3018
3038
0000
ENDCHAR

STARTCHAR jisx0208_3240
ENCODING 12864
SWIDTH 960 0
DWIDTH 14 0
BBX 14 14 0 -2
BITMAP
0000
1600
1600
367C
2F6C
756C
356C
356C
356C
356C
356C
2D6C
2B7C
0000
ENDCHAR

STARTCHAR jisx0208_3241
ENCODING 12865
SWIDTH 960 0
DWIDTH 14 0
BBX 14 14 0 -2
BITMAP
0000
0BFC
0CB0
18B0
18B0
3BFC
5AAC
1AAC
1AAC
1AAC
1AAC
1AAC
1BFC
0000
ENDCHAR

STARTCHAR jisx0208_3242
ENCODING 12866
SWIDTH 960 0
DWIDTH 14 0
BBX 14 14 0 -2
BITMAP
0000
0C60
0C60
19FC
1860
3860
5BFC
1860
1860
19FC
1860
1860
1BFC
0000
ENDCHAR

STARTCHAR jisx0208_3243
ENCODING 12867
SWIDTH 960 0
DWIDTH 14 0
BBX 14 14 0 -2
BITMAP
0000
1800
1800
7F7C
1B6C
1B6C
1B6C
1B6C
336C
336C
336C
636C
6E7C
0000
ENDCHAR

STARTCHAR jisx0208_3244
ENCODING 12868
SWIDTH 960 0
DWIDTH 14 0
BBX 14 14 0 -2
BITMAP
0000
0000
7FFC
0030
0030
3F30
3330
3330
3330
3F30
0030
0030
0070
0000
ENDCHAR

STARTCHAR jisx0208_3245
ENCODING 12869
SWIDTH 960 0
DWIDTH 14 0
BBX 14 14 0 -2
BITMAP
0000
0300
7FFC
0300
3FF8
1830
1FF0
06C0
7FFC
0C00
7EFC
1ACC
76FC
0000
ENDCHAR

STARTCHAR jisx0208_3246
ENCODING 12870
SWIDTH 960 0
DWIDTH 14 0
BBX 14 14 0 -2
BITMAP
0000
7FFC
0300
1FF0
1830
1FF0
1830
1FF0
1830
1FF0
3660
07C0
7C7C
0000
ENDCHAR

STARTCHAR jisx0208_3247
ENCODING 12871
SWIDTH 960 0
DWIDTH 14 0
BBX 14 14 0 -2
BITMAP
0000
30C0
33FC
7B0C
2BF0
2CC0
2B6C
6CD8
6B70
78D8
1958
2B6C
61C0
0000
ENDCHAR

STARTCHAR jisx0208_3248
ENCODING 12872
SWIDTH 960 0
DWIDTH 14 0
BBX 14 14 0 -2
BITMAP
0000
0300
7FFC
600C
1FF0
0380
0D98
3BB0
0EE0
39B0
06D8
3CCC
0380
0000
ENDCHAR

STARTCHAR jisx0208_3249
ENCODING 12873
SWIDTH 960 0
DWIDTH 14 0
BBX 14 14 0 -2
BITMAP
0000
0300
7FFC
630C
0FE0
0C60
0FE0
0C60
7FFC
1830
2FD8
666C
0DC0
0000
ENDCHAR

STARTCHAR jisx0208_324A
ENCODING 12874
SWIDTH 960 0
DWIDTH 14 0
BBX 14 14 0 -2
BITMAP
0000
0E30
79B0
18B0
1830
7DB0
18B0
3C30
363C
59F0
1830
1830
1830
0000
ENDCHAR

STARTCHAR jisx0208_324B
ENCODING 12875
SWIDTH 960 0
DWIDTH 14 0
BBX 14 14 0 -2
BITMAP
0000
07BC
76CC
56CC
57BC
5600
767C
576C
566C
57AC
7618
0638
066C
0000
ENDCHAR

STARTCHAR jisx0208_324C
ENCODING 12876
SWIDTH 960 0
DWIDTH 14 0
BBX 14 14 0 -2
BITMAP
0000
3FF0
3330
3FF0
3330
3FF0
0300
7FF8
0780
0AC0
1B60
7338
0300
0000
ENDCHAR

STARTCHAR jisx0208_324D
ENCODING 12877
SWIDTH 960 0
DWIDTH 14 0
BBX 14 14 0 -2
BITMAP
0000
0C00
7EFC
1ACC
1ACC
32CC
6EFC
0300
7FFC
06C0
1B70
731C
0300
0000
ENDCHAR

STARTCHAR jisx0208_324E
ENCODING 12878
SWIDTH 960 0
DWIDTH 14 0
BBX 14 14 0 -2
BITMAP
0000
7EC0
0580
75FC
776C
0E58
0060
7F60
0670
76B0
76D8
0598
0F0C
0000
ENDCHAR

STARTCHAR jisx0208_324F
ENCODING 12879
SWIDTH 960 0
DWIDTH 14 0
BBX 14 14 0 -2
BITMAP
0000
3000
17FC
0018
6018
37D8
06D8
06D8
17D8
1818
3018
3018
6078
0000
ENDCHAR

STARTCHAR jisx0208_3250
ENCODING 12880
SWIDTH 960 0
DWIDTH 14 0
BBX 14 14 0 -2
BITMAP
0000
0300
0300
0318
3318
3330
6300
0580
0580
0CC0
1860
3030
6018
0000
ENDCHAR

STARTCHAR jisx0208_3251
ENCODING 12881
SWIDTH 960 0
DWIDTH 14 0
BBX 14 14 0 -2
BITMAP
0000
0000
7BFC
1818
1818
1BD8
7AD8
1AD8
1BD8
1818
1C18
7018
0038
0000
ENDCHAR

STARTCHAR jisx0208_3252
ENCODING 12882
SWIDTH 960 0
DWIDTH 14 0
BBX 14 14 0 -2
BITMAP
0000
19F8
1998
7D78
0558
0D58
17FC
3E0C
55EC
15AC
15AC
15EC
161C
0000
ENDCHAR

STARTCHAR jisx0208_3253
ENCODING 12883
SWIDTH 960 0
DWIDTH 14 0
BBX 14 14 0 -2
BITMAP
0000
00E0
3F80
0300
0300
7FF8
0780
0AC0
0AC0
1B60
3330
6318
0300
0000
ENDCHAR

STARTCHAR jisx0208_3254
ENCODING 12884
SWIDTH 960 0
DWIDTH 14 0
BBX 14 14 0 -2
BITMAP
0000
0CC0
77FC
160C
17FC
7E60
39CC
3ED8
5970
56D8
1958
176C
18C0
0000
ENDCHAR

STARTCHAR jisx0208_3255
ENCODING 12885
SWIDTH 960 0
DWIDTH 14 0
BBX 14 14 0 -2
BITMAP
0000
3180
3DFC
6B60
3FF8
3318
3FD8
3318
2FD8
2CD8
2FD8
3018
3FF8
0000
ENDCHAR

STARTCHAR jisx0208_3256
ENCODING 12886
SWIDTH 960 0
DWIDTH 14 0
BBX 14 14 0 -2
BITMAP
0000
0CC0
7FFC
0CC0
0C00
1980
198C
39B8
59E0
1980
1980
198C
18FC
0000
ENDCHAR

STARTCHAR jisx0208_3257
ENCODING 12887
SWIDTH 960 0
DWIDTH 14 0
BBX 14 14 0 -2
BITMAP
0000
0CC0
7FFC
0CC0
0000
7FFC
0030
1FB0
19B0
19B0
1FB0
0030
00F0
0000
ENDCHAR

STARTCHAR jisx0208_3258
ENCODING 12888
SWIDTH 960 0
DWIDTH 14 0
BBX 14 14 0 -2
BITMAP
0000
06C0
7FFC
06C0
1800
1800
7EFC
1ACC
1ACC
1ACC
32CC
32CC
6EFC
0000
ENDCHAR

STARTCHAR jisx0208_3259
ENCODING 12889
SWIDTH 960 0
DWIDTH 14 0
BBX 14 14 0 -2
BITMAP
0000
0C60
7FFC
0C60
0C00
17FC
1818
3BD8
5AD8
1AD8
1BD8
1818
1878
0000
ENDCHAR

STARTCHAR jisx0208_325A
ENCODING 12890
SWIDTH 960 0
DWIDTH 14 0
BBX 14 14 0 -2
BITMAP
0000
0CC0
7FFC
0CC0
3FF8
1B60
7FFC
1B60
3FF8
0300
7FFC
0300
0300
0000
ENDCHAR

STARTCHAR jisx0208_325B
ENCODING 12891
SWIDTH 960 0
DWIDTH 14 0
BBX 14 14 0 -2
BITMAP
0000
0CC0
7FFC
0CC0
1FF0
1FF0
1B30
1FF0
0300
7FFC
06C0
1B70
731C
0000
ENDCHAR

STARTCHAR jisx0208_325C
ENCODING 12892
SWIDTH 960 0
DWIDTH 14 0
BBX 14 14 0 -2
BITMAP
0000
1BBC
1ACC
1ACC
7FBC
5700
57C0
7F7C
1B2C
17AC
1F18
7338
036C
0000
ENDCHAR

STARTCHAR jisx0208_325D
ENCODING 12893
SWIDTH 960 0
DWIDTH 14 0
BBX 14 14 0 -2
BITMAP
0000
3BF8
02D8
7BF8
02D8
7BF8
00C0
7BFC
01E0
7AB0
6ED8
6CCC
7CC0
0000
ENDCHAR

STARTCHAR jisx0208_325E
ENCODING 12894
SWIDTH 960 0
DWIDTH 14 0
BBX 14 14 0 -2
BITMAP
0000
0330
7FFC
5B30
5FFC
56D8
5FFC
56D8
5FFC
78C0
0FFC
00C0
00C0
0000
ENDCHAR

STARTCHAR jisx0208_325F
ENCODING 12895
SWIDTH 960 0
DWIDTH 14 0
BBX 14 14 0 -2
BITMAP
0000
0DB8
19E0
798C
18FC
1FF0
1830
1FF0
1830
1FF0
1830
1FF0
701C
0000
ENDCHAR

STARTCHAR jisx0208_3260
ENCODING 12896
SWIDTH 960 0
DWIDTH 14 0
BBX 14 14 0 -2
BITMAP
0000
6300
333C
0FAC
02AC
02AC
7AAC
1AAC
1AAC
16AC
15BC
2C00
67FC
0000
ENDCHAR

STARTCHAR jisx0208_3261
ENCODING 12897
SWIDTH 960 0
DWIDTH 14 0
BBX 14 14 0 -2
BITMAP
0000
33F8
1B18
02F8
02D8
07FC
760C
15EC
15AC
15EC
161C
2C00
67FC
0000
ENDCHAR

STARTCHAR jisx0208_3262
ENCODING 12898
SWIDTH 960 0
DWIDTH 14 0
BBX 14 14 0 -2
BITMAP
0000
7FF8
0300
7FF8
5AD8
0300
7DF8
6618
7DF8
6198
7EB0
60E0
63BC
0000
ENDCHAR

STARTCHAR jisx0208_3263
ENCODING 12899
SWIDTH 960 0
DWIDTH 14 0
BBX 14 14 0 -2
BITMAP
0000
1860
1860
7FFC
5598
5598
5598
7EB0
18B0
1660
1EB0
7198
030C
0000
ENDCHAR

STARTCHAR jisx0208_3264
ENCODING 12900
SWIDTH 960 0
DWIDTH 14 0
BBX 14 14 0 -2
BITMAP
0000
1960
1758
1B6C
3B60
37FC
5B60
1B6C
1B58
1770
1B2C
1B5C
16CC
0000
ENDCHAR

STARTCHAR jisx0208_3265
ENCODING 12901
SWIDTH 960 0
DWIDTH 14 0
BBX 14 14 0 -2
BITMAP
0000
3160
3758
336C
6B60
6FFC
6B60
6B6C
6B58
6F70
7B2C
035C
06CC
0000
ENDCHAR

STARTCHAR jisx0208_3266
ENCODING 12902
SWIDTH 960 0
DWIDTH 14 0
BBX 14 14 0 -2
BITMAP
0000
06D8
3CCC
0CC0
0CC0
7FFC
0CC0
0AD8
1ED8
6C70
0C6C
0CAC
1B9C
0000
ENDCHAR

STARTCHAR jisx0208_3267
ENCODING 12903
SWIDTH 960 0
DWIDTH 14 0
BBX 14 14 0 -2
BITMAP
0000
3FF8
18C0
18C0
18C0
18C0
7FFC
02C0
06C0
0CC0
38C0
60C0
01C0
0000
ENDCHAR

STARTCHAR jisx0208_3268
ENCODING 12904
SWIDTH 960 0
DWIDTH 14 0
BBX 14 14 0 -2
BITMAP
0000
7FFC
0300
0300
1FE0
5B6C
5B6C
5FEC
5B6C
5B6C
5FEC
600C
7FFC
0000
ENDCHAR

STARTCHAR jisx0208_3269
ENCODING 12905
SWIDTH 960 0
DWIDTH 14 0
BBX 14 14 0 -2
BITMAP
0000
7F60
6C60
6C60
7F60
6360
6360
7EB0
6CB0
6CB0
6D98
7D98
030C
0000
ENDCHAR

STARTCHAR jisx0208_326A
ENCODING 12906
SWIDTH 960 0
DWIDTH 14 0
BBX 14 14 0 -2
BITMAP
0000
0C60
7FFC
0C60
3FF8
0C60
0C60
7FFC
0160
0360
0E60
7860
00E0
0000
ENDCHAR

STARTCHAR jisx0208_326B
ENCODING 12907
SWIDTH 960 0
DWIDTH 14 0
BBX 14 14 0 -2
BITMAP
0000
18B0
1BB8
19AC
7DB0
57FC
55B0
7DAC
19AC
17B8
1DAC
795C
03CC
0000
ENDCHAR

STARTCHAR jisx0208_326C
ENCODING 12908
SWIDTH 960 0
DWIDTH 14 0
BBX 14 14 0 -2
BITMAP
0000
1800
7EFC
1ACC
32CC
56FC
1830
1FF0
1830
1FF0
1830
1FF0
701C
0000
ENDCHAR

STARTCHAR jisx0208_326D
ENCODING 12909
SWIDTH 960 0
DWIDTH 14 0
BBX 14 14 0 -2
BITMAP
0000
00D8
7ED8
36FC
35D8
36D8
7EFC
0ED8
16D8
36FC
66D8
06D8
0EFC
0000
ENDCHAR

STARTCHAR jisx0208_326E
ENCODING 12910
SWIDTH 960 0
DWIDTH 14 0
BBX 14 14 0 -2
BITMAP
0000
1CB0
37B8
59AC
3DB0
37FC
3DB0
35AC
3DAC
33B8
2DAC
3D5C
73CC
0000
ENDCHAR

STARTCHAR jisx0208_326F
ENCODING 12911
SWIDTH 960 0
DWIDTH 14 0
BBX 14 14 0 -2
BITMAP
0000
1800
7EF8
1AD8
32D8
5FFC
1980
1FF8
1980
1FFC
000C
2B6C
6DB8
0000
ENDCHAR

STARTCHAR jisx0208_3270
ENCODING 12912
SWIDTH 960 0
DWIDTH 14 0
BBX 14 14 0 -2
BITMAP
0000
0380
06C0
0C60
1830
6C5C
0C60
0C60
0C60
0C60
1860
1860
3060
0000
ENDCHAR

STARTCHAR jisx0208_3271
ENCODING 12913
SWIDTH 960 0
DWIDTH 14 0
BBX 14 14 0 -2
BITMAP
0000
0380
06C0
0C60
1830
6FDC
0000
0000
7FFC
0660
0C30
18D8
3F8C
0000
ENDCHAR

STARTCHAR jisx0208_3272
ENCODING 12914
SWIDTH 960 0
DWIDTH 14 0
BBX 14 14 0 -2
BITMAP
0000
1EFC
166C
366C
7EDC
2B30
3EB0
2AFC
2B30
3EFC
3330
6330
6730
0000
ENDCHAR

STARTCHAR jisx0208_3273
ENCODING 12915
SWIDTH 960 0
DWIDTH 14 0
BBX 14 14 0 -2
BITMAP
0000
0000
7FF8
6018
6018
6FD8
6CD8
6CD8
6CD8
6FD8
6018
6018
7FF8
0000
ENDCHAR

STARTCHAR jisx0208_3274
ENCODING 12916
SWIDTH 960 0
DWIDTH 14 0
BBX 14 14 0 -2
BITMAP
0000
18C0
1980
1BF8
7ED8
1BF8
1AD8
1BF8
1DB0
72D8
02FC
06CC
1C7C
0000
ENDCHAR

STARTCHAR jisx0208_3275
ENCODING 12917
SWIDTH 960 0
DWIDTH 14 0
BBX 14 14 0 -2
BITMAP
0000
1860
1BFC
1860
7BFC
1AAC
1BFC
1860
1BFC
1CAC
77B8
0198
03EC
0000
ENDCHAR

STARTCHAR jisx0208_3276
ENCODING 12918
SWIDTH 960 0
DWIDTH 14 0
BBX 14 14 0 -2
BITMAP
0000
7BFC
0B0C
1AEC
32AC
7AAC
0AAC
2AEC
2B0C
5BFC
1800
2C00
67FC
0000
ENDCHAR

STARTCHAR jisx0208_3277
ENCODING 12919
SWIDTH 960 0
DWIDTH 14 0
BBX 14 14 0 -2
BITMAP
0000
18C0
18C0
1BF8
56D8
58D8
58D8
17FC
18C0
1960
19B0
1B18
160C
0000
ENDCHAR

STARTCHAR jisx0208_3278
ENCODING 12920
SWIDTH 960 0
DWIDTH 14 0
BBX 14 14 0 -2
BITMAP
0000
1BF8
1B18
1DB0
56E0
58B0
5B9C
18C0
18C0
1BF8
18C0
18C0
17FC
0000
ENDCHAR

STARTCHAR jisx0208_3279
ENCODING 12921
SWIDTH 960 0
DWIDTH 14 0
BBX 14 14 0 -2
BITMAP
0000
1B00
1BFC
1600
5BF8
5AD8
5AD8
17FC
1AD8
1AD8
17FC
1818
1870
0000
ENDCHAR

STARTCHAR jisx0208_327A
ENCODING 12922
SWIDTH 960 0
DWIDTH 14 0
BBX 14 14 0 -2
BITMAP
0000
17FC
1600
1660
5660
556C
5758
1660
1660
16B0
16B0
1D98
1B0C
0000
ENDCHAR

STARTCHAR jisx0208_327B
ENCODING 12923
SWIDTH 960 0
DWIDTH 14 0
BBX 14 14 0 -2
BITMAP
0000
18C0
17FC
18C0
57FC
556C
57FC
18C0
17FC
196C
1758
1BB0
171C
0000
ENDCHAR

STARTCHAR jisx0208_327C
ENCODING 12924
SWIDTH 960 0
DWIDTH 14 0
BBX 14 14 0 -2
BITMAP
0000
00B0
00D8
7FFC
00C0
16C0
16D8
7ED8
16B0
1660
366C
36AC
619C
0000
ENDCHAR

STARTCHAR jisx0208_327D
ENCODING 12925
SWIDTH 960 0
DWIDTH 14 0
BBX 14 14 0 -2
BITMAP
0000
19F8
1998
7D98
19F8
1800
1C00
7BFC
18CC
18CC
18CC
198C
3738
0000
ENDCHAR

STARTCHAR jisx0208_327E
ENCODING 12926
SWIDTH 960 0
DWIDTH 14 0
BBX 14 14 0 -2
BITMAP
0000
00C0
7CC0
0DFC
0D98
0B98
7D98
60B0
60B0
6060
6CB0
3D98
070C
0000
ENDCHAR

STARTCHAR jisx0208_3321
ENCODING 13089
SWIDTH 960 0
DWIDTH 14 0
BBX 14 14 0 -2
BITMAP
0000
19B0
7EB0
5630
7DB0
56B0
7E3C
2DF0
2B30
2AB0
2FB0
2C0C
67FC
0000
ENDCHAR

STARTCHAR jisx0208_3322
ENCODING 13090
SWIDTH 960 0
DWIDTH 14 0
BBX 14 14 0 -2
BITMAP
0000
0300
7BFC
5600
5BF8
5AD8
7AD8
57FC
5AD8
5AD8
77FC
0018
0070
0000
ENDCHAR

STARTCHAR jisx0208_3323
ENCODING 13091
SWIDTH 960 0
DWIDTH 14 0
BBX 14 14 0 -2
BITMAP
0000
182C
1830
7BFC
1830
1AB0
3AB0
37EC
5AAC
5AD8
16D8
1638
186C
0000
ENDCHAR

STARTCHAR jisx0208_3324
ENCODING 13092
SWIDTH 960 0
DWIDTH 14 0
BBX 14 14 0 -2
BITMAP
0000
3300
1BFC
0600
6BF8
32D8
02D8
07FC
1AD8
1AD8
37FC
3018
6070
0000
ENDCHAR

STARTCHAR jisx0208_3325
ENCODING 13093
SWIDTH 960 0
DWIDTH 14 0
BBX 14 14 0 -2
BITMAP
0000
0000
3FFC
3000
30C0
36CC
36CC
2CD8
3160
3160
3330
6618
6C0C
0000
ENDCHAR

STARTCHAR jisx0208_3326
ENCODING 13094
SWIDTH 960 0
DWIDTH 14 0
BBX 14 14 0 -2
BITMAP
0000
3FF8
3318
3FF8
3318
3FF8
06C0
1C70
6C5C
0C60
0C60
1860
3060
0000
ENDCHAR

STARTCHAR jisx0208_3327
ENCODING 13095
SWIDTH 960 0
DWIDTH 14 0
BBX 14 14 0 -2
BITMAP
0000
30C0
3EDC
30F0
30C0
3ECC
737C
0600
1FF0
1830
1FF0
1830
1FF0
0000
ENDCHAR

STARTCHAR jisx0208_3328
ENCODING 13096
SWIDTH 960 0
DWIDTH 14 0
BBX 14 14 0 -2
BITMAP
0000
1860
30B0
6D98
3B0C
19F8
3600
7DFC
18C0
56D8
5598
59BC
1BEC
0000
ENDCHAR

STARTCHAR jisx0208_3329
ENCODING 13097
SWIDTH 960 0
DWIDTH 14 0
BBX 14 14 0 -2
BITMAP
0000
0C60
7FFC
0C60
0380
06C0
0C60
1830
6C5C
0C60
0C60
1860
3060
0000
ENDCHAR

STARTCHAR jisx0208_332A
ENCODING 13098
SWIDTH 960 0
DWIDTH 14 0
BBX 14 14 0 -2
BITMAP
0000
1EFC
362C
7F6C
2AFC
3EB0
33FC
6730
3FF8
3318
3FF8
0318
7FEC
0000
ENDCHAR

STARTCHAR jisx0208_332B
ENCODING 13099
SWIDTH 960 0
DWIDTH 14 0
BBX 14 14 0 -2
BITMAP
0000
7EFC
66CC
7EFC
66CC
7EFC
600C
6FEC
66CC
5FEC
66CC
6CCC
58DC
0000
ENDCHAR

STARTCHAR jisx0208_332C
ENCODING 13100
SWIDTH 960 0
DWIDTH 14 0
BBX 14 14 0 -2
BITMAP
0000
7B60
6BEC
5B78
7360
5BEC
6F3C
6CC0
6BF8
7B18
63F8
6318
63F8
0000
ENDCHAR

STARTCHAR jisx0208_332D
ENCODING 13101
SWIDTH 960 0
DWIDTH 14 0
BBX 14 14 0 -2
BITMAP
0000
1FF0
1830
1830
1FF0
1830
1FF0
1830
1830
1FF0
0000
1C70
701C
0000
ENDCHAR

STARTCHAR jisx0208_332E
ENCODING 13102
SWIDTH 960 0
DWIDTH 14 0
BBX 14 14 0 -2
BITMAP
0000
2B00
2AF0
3EB0
00B0
7EB0
00B0
3EB0
32B0
3EB0
16B0
1EAC
79BC
0000
ENDCHAR

STARTCHAR jisx0208_332F
ENCODING 13103
SWIDTH 960 0
DWIDTH 14 0
BBX 14 14 0 -2
BITMAP
0000
0C60
0C60
7F60
31FC
666C
2C6C
1B6C
366C
6CCC
16CC
338C
61B8
0000
ENDCHAR

STARTCHAR jisx0208_3330
ENCODING 13104
SWIDTH 960 0
DWIDTH 14 0
BBX 14 14 0 -2
BITMAP
0000
1860
1860
1F60
1B60
32E0
3B78
6E6C
0660
0C60
0C60
1860
7060
0000
ENDCHAR

STARTCHAR jisx0208_3331
ENCODING 13105
SWIDTH 960 0
DWIDTH 14 0
BBX 14 14 0 -2
BITMAP
0000
0060
7BFC
6CC0
6D80
6B30
6D60
6CCC
6D98
7B30
0070
01D8
070C
0000
ENDCHAR

STARTCHAR jisx0208_3332
ENCODING 13106
SWIDTH 960 0
DWIDTH 14 0
BBX 14 14 0 -2
BITMAP
0000
0300
7FFC
630C
1FF0
0FE0
0300
7FFC
0000
1FF0
1830
1830
1FF0
0000
ENDCHAR

STARTCHAR jisx0208_3333
ENCODING 13107
SWIDTH 960 0
DWIDTH 14 0
BBX 14 14 0 -2
BITMAP
0000
1998
1FF8
0000
3FFC
30C0
37F8
30C0
2FFC
30C0
37F8
60C0
5FFC
0000
ENDCHAR

STARTCHAR jisx0208_3334
ENCODING 13108
SWIDTH 960 0
DWIDTH 14 0
BBX 14 14 0 -2
BITMAP
0000
17FC
16D8
17D8
56D8
57FC
5630
1630
1570
1570
16AC
18AC
19BC
0000
ENDCHAR

STARTCHAR jisx0208_3335
ENCODING 13109
SWIDTH 960 0
DWIDTH 14 0
BBX 14 14 0 -2
BITMAP
0000
17FC
16D8
7FD8
16D8
17FC
3630
3630
5570
5570
16AC
19AC
1B3C
0000
ENDCHAR

STARTCHAR jisx0208_3336
ENCODING 13110
SWIDTH 960 0
DWIDTH 14 0
BBX 14 14 0 -2
BITMAP
0000
37FC
1660
0660
65F8
3660
07FC
0660
1660
15F8
3660
2C60
6BFC
0000
ENDCHAR

STARTCHAR jisx0208_3337
ENCODING 13111
SWIDTH 960 0
DWIDTH 14 0
BBX 14 14 0 -2
BITMAP
0000
7BF8
3318
33F8
3318
3BF8
6C00
6FFC
2C30
2FFC
3B30
01B0
0070
0000
ENDCHAR

STARTCHAR jisx0208_3338
ENCODING 13112
SWIDTH 960 0
DWIDTH 14 0
BBX 14 14 0 -2
BITMAP
0000
0C60
7FFC
0B60
3FF8
0300
7FFC
0C30
3FD8
000C
3FF8
36D8
7FFC
0000
ENDCHAR

STARTCHAR jisx0208_3339
ENCODING 13113
SWIDTH 960 0
DWIDTH 14 0
BBX 14 14 0 -2
BITMAP
0000
1980
37BC
6D80
1980
17BC
3998
5998
17D8
1998
19D8
1718
1838
0000
ENDCHAR

STARTCHAR jisx0208_333A
ENCODING 13114
SWIDTH 960 0
DWIDTH 14 0
BBX 14 14 0 -2
BITMAP
0000
3C60
0060
7DFC
00C0
7D98
00B0
7C6C
00D8
7BB0
6C70
6CD8
7B8C
0000
ENDCHAR

STARTCHAR jisx0208_333B
ENCODING 13115
SWIDTH 960 0
DWIDTH 14 0
BBX 14 14 0 -2
BITMAP
0000
1D6C
356C
61FC
7E00
1BFC
1800
7DFC
198C
55FC
56D8
1CB0
73FC
0000
ENDCHAR

STARTCHAR jisx0208_333C
ENCODING 13116
SWIDTH 960 0
DWIDTH 14 0
BBX 14 14 0 -2
BITMAP
0000
3E60
3660
3FFC
36C0
7F98
62D8
3E70
366C
3DD8
3630
3658
2DCC
0000
ENDCHAR

STARTCHAR jisx0208_333D
ENCODING 13117
SWIDTH 960 0
DWIDTH 14 0
BBX 14 14 0 -2
BITMAP
0000
37F8
16D8
07F8
66D8
36D8
07F8
00C0
18C0
17F8
30C0
30C0
6FFC
0000
ENDCHAR

STARTCHAR jisx0208_333E
ENCODING 13118
SWIDTH 960 0
DWIDTH 14 0
BBX 14 14 0 -2
BITMAP
0000
0CF8
7ED8
0DFC
3ED8
2B70
3FDC
6300
7FFC
0B60
7FFC
1830
1FF0
0000
ENDCHAR

STARTCHAR jisx0208_333F
ENCODING 13119
SWIDTH 960 0
DWIDTH 14 0
BBX 14 14 0 -2
BITMAP
0000
1860
1860
7DF8
5660
5660
55FC
5660
7E60
19F8
1660
1E60
73FC
0000
ENDCHAR

STARTCHAR jisx0208_3340
ENCODING 13120
SWIDTH 960 0
DWIDTH 14 0
BBX 14 14 0 -2
BITMAP
0000
1800
1BFC
1800
7DF8
1998
1998
19F8
1998
1598
1DF8
7000
07FC
0000
ENDCHAR

STARTCHAR jisx0208_3341
ENCODING 13121
SWIDTH 960 0
DWIDTH 14 0
BBX 14 14 0 -2
BITMAP
0000
1860
1860
7FFC
1860
1BFC
3B6C
376C
5B6C
5B6C
1B6C
1B5C
1860
0000
ENDCHAR

STARTCHAR jisx0208_3342
ENCODING 13122
SWIDTH 960 0
DWIDTH 14 0
BBX 14 14 0 -2
BITMAP
0000
19FC
1980
7D80
55FC
5560
5560
7D7C
196C
156C
1D6C
72CC
02D8
0000
ENDCHAR

STARTCHAR jisx0208_3343
ENCODING 13123
SWIDTH 960 0
DWIDTH 14 0
BBX 14 14 0 -2
BITMAP
0000
1CC0
36C0
61FC
7D8C
1B0C
186C
7ECC
19AC
55EC
562C
1C0C
7038
0000
ENDCHAR

STARTCHAR jisx0208_3344
ENCODING 13124
SWIDTH 960 0
DWIDTH 14 0
BBX 14 14 0 -2
BITMAP
0000
0C0C
3F6C
0B6C
7F6C
0B6C
3F6C
0C6C
7F6C
2B6C
3F0C
2B0C
7F9C
0000
ENDCHAR

STARTCHAR jisx0208_3345
ENCODING 13125
SWIDTH 960 0
DWIDTH 14 0
BBX 14 14 0 -2
BITMAP
0000
0330
0FFC
7B30
5B30
5FFC
5558
5558
5DDC
7558
0558
0558
0CB8
0000
ENDCHAR

STARTCHAR jisx0208_3346
ENCODING 13126
SWIDTH 960 0
DWIDTH 14 0
BBX 14 14 0 -2
BITMAP
0000
0600
0FE0
1C60
76C0
0380
06C0
1C70
6FDC
0C60
0C60
0C60
0FE0
0000
ENDCHAR

STARTCHAR jisx0208_3347
ENCODING 13127
SWIDTH 960 0
DWIDTH 14 0
BBX 14 14 0 -2
BITMAP
0000
0180
3FFC
3600
3F7C
2B6C
2F58
3070
3F58
366C
3F6C
665C
6E60
0000
ENDCHAR

STARTCHAR jisx0208_3348
ENCODING 13128
SWIDTH 960 0
DWIDTH 14 0
BBX 14 14 0 -2
BITMAP
0000
1860
1860
7BFC
1B00
1B60
1B60
7B60
1AC0
1AD8
1AD8
15AC
35EC
0000
ENDCHAR

STARTCHAR jisx0208_3349
ENCODING 13129
SWIDTH 960 0
DWIDTH 14 0
BBX 14 14 0 -2
BITMAP
0000
16CC
1B58
7FFC
160C
1BF8
1B18
7BF8
1B18
1BF8
1960
196C
377C
0000
ENDCHAR

STARTCHAR jisx0208_334A
ENCODING 13130
SWIDTH 960 0
DWIDTH 14 0
BBX 14 14 0 -2
BITMAP
0000
18C0
18F8
1998
7EB0
1860
3CB0
3598
5BFC
5998
1998
1998
19F8
0000
ENDCHAR

STARTCHAR jisx0208_334B
ENCODING 13131
SWIDTH 960 0
DWIDTH 14 0
BBX 14 14 0 -2
BITMAP
0000
1860
1860
1BFC
7EC0
1998
3CB0
366C
58D8
59B0
1870
18D8
198C
0000
ENDCHAR

STARTCHAR jisx0208_334C
ENCODING 13132
SWIDTH 960 0
DWIDTH 14 0
BBX 14 14 0 -2
BITMAP
0000
18F0
7EB0
18AC
3DBC
0000
7FF8
62D8
3CD8
2C70
2B70
2ED8
6D8C
0000
ENDCHAR

STARTCHAR jisx0208_334D
ENCODING 13133
SWIDTH 960 0
DWIDTH 14 0
BBX 14 14 0 -2
BITMAP
0000
6CD8
2BFC
18D8
39B0
6DFC
0BB0
1DFC
2DB0
6BFC
0D98
0CF0
3B9C
0000
ENDCHAR

STARTCHAR jisx0208_334E
ENCODING 13134
SWIDTH 960 0
DWIDTH 14 0
BBX 14 14 0 -2
BITMAP
0000
0060
7FFC
1ACC
18D8
31FC
3FB0
75FC
35B0
35FC
35B0
3DB0
01FC
0000
ENDCHAR

STARTCHAR jisx0208_334F
ENCODING 13135
SWIDTH 960 0
DWIDTH 14 0
BBX 14 14 0 -2
BITMAP
0000
0ED8
7BFC
18D8
7DB0
19FC
3BB0
35FC
59B0
5BFC
1998
18F0
1B9C
0000
ENDCHAR

STARTCHAR jisx0208_3350
ENCODING 13136
SWIDTH 960 0
DWIDTH 14 0
BBX 14 14 0 -2
BITMAP
0000
3630
1B60
7FFC
6C6C
6FEC
0C60
0FE0
0C60
0FE0
06C0
0CCC
787C
0000
ENDCHAR

STARTCHAR jisx0208_3351
ENCODING 13137
SWIDTH 960 0
DWIDTH 14 0
BBX 14 14 0 -2
BITMAP
0000
0600
0FE0
18C0
7FF8
1998
1FF8
1998
1FF8
1818
1818
3018
6038
0000
ENDCHAR

STARTCHAR jisx0208_3352
ENCODING 13138
SWIDTH 960 0
DWIDTH 14 0
BBX 14 14 0 -2
BITMAP
0000
0C60
0C60
7FF8
0C60
7FFC
16B0
56AC
56AC
56AC
16B0
35B0
2D70
0000
ENDCHAR

STARTCHAR jisx0208_3353
ENCODING 13139
SWIDTH 960 0
DWIDTH 14 0
BBX 14 14 0 -2
BITMAP
0000
1860
7E60
1BFC
7E00
5598
7F0C
5598
7EB0
18B0
7E60
18B0
1B9C
0000
ENDCHAR

STARTCHAR jisx0208_3354
ENCODING 13140
SWIDTH 960 0
DWIDTH 14 0
BBX 14 14 0 -2
BITMAP
0000
0C7C
7F6C
336C
3358
3F70
0058
3F6C
066C
0C6C
7F78
0C60
1C60
0000
ENDCHAR

STARTCHAR jisx0208_3355
ENCODING 13141
SWIDTH 960 0
DWIDTH 14 0
BBX 14 14 0 -2
BITMAP
0000
7EFC
7EFC
66CC
7EFC
67CC
6ECC
638C
66CC
5FEC
66CC
66CC
67DC
0000
ENDCHAR

STARTCHAR jisx0208_3356
ENCODING 13142
SWIDTH 960 0
DWIDTH 14 0
BBX 14 14 0 -2
BITMAP
0000
7BFC
6C00
59F8
7198
59F8
6C00
6BFC
6AAC
6B9C
7AEC
636C
635C
0000
ENDCHAR

STARTCHAR jisx0208_3357
ENCODING 13143
SWIDTH 960 0
DWIDTH 14 0
BBX 14 14 0 -2
BITMAP
0000
0C60
7FFC
0C60
0FE0
0300
1FF0
1B30
1FF0
0300
7FFC
0300
0300
0000
ENDCHAR

STARTCHAR jisx0208_3358
ENCODING 13144
SWIDTH 960 0
DWIDTH 14 0
BBX 14 14 0 -2
BITMAP
0000
1B18
0DB0
7FFC
600C
5FEC
0060
00C0
7FFC
0180
0180
0180
0780
0000
ENDCHAR

STARTCHAR jisx0208_3359
ENCODING 13145
SWIDTH 960 0
DWIDTH 14 0
BBX 14 14 0 -2
BITMAP
0000
00F0
1F80
1800
1FF8
1860
1860
7FFC
0300
3318
3318
3318
3FF8
0000
ENDCHAR

STARTCHAR jisx0208_335A
ENCODING 13146
SWIDTH 960 0
DWIDTH 14 0
BBX 14 14 0 -2
BITMAP
0000
6318
2FB0
0CC0
0FC0
2CB0
6FD8
0300
7FF8
0780
1AE0
7338
0300
0000
ENDCHAR

STARTCHAR jisx0208_335B
ENCODING 13147
SWIDTH 960 0
DWIDTH 14 0
BBX 14 14 0 -2
BITMAP
0000
18FC
7F30
5AFC
3ECC
36FC
5CCC
16FC
32CC
7EFC
3600
3658
3ECC
0000
ENDCHAR

STARTCHAR jisx0208_335C
ENCODING 13148
SWIDTH 960 0
DWIDTH 14 0
BBX 14 14 0 -2
BITMAP
0000
7EFC
5B60
7EFC
00CC
3EFC
00CC
7EFC
18CC
3EFC
0600
0658
1CCC
0000
ENDCHAR

STARTCHAR jisx0208_335D
ENCODING 13149
SWIDTH 960 0
DWIDTH 14 0
BBX 14 14 0 -2
BITMAP
0000
3330
3330
77B0
3330
3330
3FB8
732C
3330
37B0
3330
3330
6FB0
0000
ENDCHAR

STARTCHAR jisx0208_335E
ENCODING 13150
SWIDTH 960 0
DWIDTH 14 0
BBX 14 14 0 -2
BITMAP
0000
30C0
3EFC
5960
0C30
0300
0300
3FF8
0060
1860
0CC0
0CC0
7FFC
0000
ENDCHAR

STARTCHAR jisx0208_335F
ENCODING 13151
SWIDTH 960 0
DWIDTH 14 0
BBX 14 14 0 -2
BITMAP
0000
17FC
156C
7FEC
16B8
17B8
3D6C
37C0
58C0
5BF8
18C0
18C0
17FC
0000
ENDCHAR

STARTCHAR jisx0208_3360
ENCODING 13152
SWIDTH 960 0
DWIDTH 14 0
BBX 14 14 0 -2
BITMAP
0000
17FC
1AD8
7FF8
1AD8
1BF8
3C00
37FC
5AD8
5BF8
1AD8
1AD8
17FC
0000
ENDCHAR

STARTCHAR jisx0208_3361
ENCODING 13153
SWIDTH 960 0
DWIDTH 14 0
BBX 14 14 0 -2
BITMAP
0000
1BFC
1B0C
7FFC
1B18
1BF0
3760
3B7C
5BE0
5B7C
1BE0
166C
163C
0000
ENDCHAR

STARTCHAR jisx0208_3362
ENCODING 13154
SWIDTH 960 0
DWIDTH 14 0
BBX 14 14 0 -2
BITMAP
0000
18B0
3BB0
6DAC
17AC
7D78
55B0
7FB0
55B0
7D58
0158
55CC
55CC
0000
ENDCHAR

STARTCHAR jisx0208_3363
ENCODING 13155
SWIDTH 960 0
DWIDTH 14 0
BBX 14 14 0 -2
BITMAP
0000
3180
1778
0618
6778
3618
07F8
0180
1BFC
160C
316C
358C
6638
0000
ENDCHAR

STARTCHAR jisx0208_3364
ENCODING 13156
SWIDTH 960 0
DWIDTH 14 0
BBX 14 14 0 -2
BITMAP
0000
0C0C
7F6C
6D6C
3F6C
3F6C
0C6C
7F6C
006C
3F6C
318C
318C
3F9C
0000
ENDCHAR

STARTCHAR jisx0208_3365
ENCODING 13157
SWIDTH 960 0
DWIDTH 14 0
BBX 14 14 0 -2
BITMAP
0000
03F8
7B18
6BF8
6B18
6BF8
6D80
6BFC
6F6C
7BCC
032C
01EC
0018
0000
ENDCHAR

STARTCHAR jisx0208_3366
ENCODING 13158
SWIDTH 960 0
DWIDTH 14 0
BBX 14 14 0 -2
BITMAP
0000
1860
18B0
1D98
570C
59F8
1800
1800
19FC
198C
198C
198C
19FC
0000
ENDCHAR

STARTCHAR jisx0208_3367
ENCODING 13159
SWIDTH 960 0
DWIDTH 14 0
BBX 14 14 0 -2
BITMAP
0000
1838
19E0
7E60
1860
1BFC
1C60
7860
19F8
1998
1998
1998
39F8
0000
ENDCHAR

STARTCHAR jisx0208_3368
ENCODING 13160
SWIDTH 960 0
DWIDTH 14 0
BBX 14 14 0 -2
BITMAP
0000
3038
17E0
00C0
60C0
2FFC
00C0
00C0
17F8
1618
3618
3618
67F8
0000
ENDCHAR

STARTCHAR jisx0208_3369
ENCODING 13161
SWIDTH 960 0
DWIDTH 14 0
BBX 14 14 0 -2
BITMAP
0000
37F8
1618
07F8
6618
37F8
0300
03FC
176C
1BCC
332C
31EC
6018
0000
ENDCHAR

STARTCHAR jisx0208_336A
ENCODING 13162
SWIDTH 960 0
DWIDTH 14 0
BBX 14 14 0 -2
BITMAP
0000
33F8
1B18
02F8
62D8
37FC
060C
03F8
1B18
1BF8
3318
3318
6338
0000
ENDCHAR

STARTCHAR jisx0208_336B
ENCODING 13163
SWIDTH 960 0
DWIDTH 14 0
BBX 14 14 0 -2
BITMAP
0000
06C0
7FFC
1830
1FF0
1830
1FF0
0C00
1FFC
398C
5F0C
18CC
0FB8
0000
ENDCHAR

STARTCHAR jisx0208_336C
ENCODING 13164
SWIDTH 960 0
DWIDTH 14 0
BBX 14 14 0 -2
BITMAP
0000
1BF8
1B18
7BF8
0B18
0BF8
1580
3BFC
576C
1BCC
1B2C
19EC
1818
0000
ENDCHAR

STARTCHAR jisx0208_336D
ENCODING 13165
SWIDTH 960 0
DWIDTH 14 0
BBX 14 14 0 -2
BITMAP
0000
1860
7FFC
1B6C
7DF8
55F8
7E60
57FC
7E00
19F8
7D98
1998
19F8
0000
ENDCHAR

STARTCHAR jisx0208_336E
ENCODING 13166
SWIDTH 960 0
DWIDTH 14 0
BBX 14 14 0 -2
BITMAP
0000
1FF0
1830
1830
1830
1FF0
1830
1830
1FF0
1830
1830
1830
7FFC
0000
ENDCHAR

STARTCHAR jisx0208_336F
ENCODING 13167
SWIDTH 960 0
DWIDTH 14 0
BBX 14 14 0 -2
BITMAP
0000
3BFC
6AAC
1BEC
7F58
57D8
7EAC
57E0
5660
7DF8
0060
5660
55FC
0000
ENDCHAR

STARTCHAR jisx0208_3370
ENCODING 13168
SWIDTH 960 0
DWIDTH 14 0
BBX 14 14 0 -2
BITMAP
0000
0060
0060
7C60
6C60
6BFC
6C60
6C60
6C60
7C60
0060
0060
0060
0000
ENDCHAR

STARTCHAR jisx0208_3371
ENCODING 13169
SWIDTH 960 0
DWIDTH 14 0
BBX 14 14 0 -2
BITMAP
0000
19B0
17FC
7DB0
1800
1960
3D60
3B6C
5778
5B60
1B60
1B6C
1B3C
0000
ENDCHAR

STARTCHAR jisx0208_3372
ENCODING 13170
SWIDTH 960 0
DWIDTH 14 0
BBX 14 14 0 -2
BITMAP
0000
19B0
17FC
7DB0
17FC
1AB0
37FC
3AB0
57FC
58C0
17FC
18C0
18C0
0000
ENDCHAR

STARTCHAR jisx0208_3373
ENCODING 13171
SWIDTH 960 0
DWIDTH 14 0
BBX 14 14 0 -2
BITMAP
0000
2CC0
7EC0
2DFC
3B0C
19EC
7E2C
562C
7DEC
1998
7D80
198C
18FC
0000
ENDCHAR

STARTCHAR jisx0208_3374
ENCODING 13172
SWIDTH 960 0
DWIDTH 14 0
BBX 14 14 0 -2
BITMAP
0000
1860
1960
7DFC
1B60
1860
3BFC
3660
58F0
5958
1B6C
1860
1860
0000
ENDCHAR

STARTCHAR jisx0208_3375
ENCODING 13173
SWIDTH 960 0
DWIDTH 14 0
BBX 14 14 0 -2
BITMAP
0000
1B00
77BC
66CC
67CC
66CC
77BC
0000
06C0
06C0
06C0
0CCC
787C
0000
ENDCHAR

STARTCHAR jisx0208_3376
ENCODING 13174
SWIDTH 960 0
DWIDTH 14 0
BBX 14 14 0 -2
BITMAP
0000
0300
7FFC
6CCC
3FF8
1B30
7FFC
1B30
3FF8
3318
3FF8
030C
01FC
0000
ENDCHAR

STARTCHAR jisx0208_3377
ENCODING 13175
SWIDTH 960 0
DWIDTH 14 0
BBX 14 14 0 -2
BITMAP
0000
06C0
7FFC
00D8
2FFC
18C0
67F8
36D8
07F8
16D8
17F8
36D8
66B8
0000
ENDCHAR

STARTCHAR jisx0208_3378
ENCODING 13176
SWIDTH 960 0
DWIDTH 14 0
BBX 14 14 0 -2
BITMAP
0000
0C60
36B8
0B80
06E0
1C30
6FDC
0300
7FFC
0300
1B30
0B60
7FFC
0000
ENDCHAR

STARTCHAR jisx0208_3379
ENCODING 13177
SWIDTH 960 0
DWIDTH 14 0
BBX 14 14 0 -2
BITMAP
0000
19B0
2FFC
6160
7FF8
1958
17FC
7D58
17F8
5B70
5558
1D6C
7160
0000
ENDCHAR

STARTCHAR jisx0208_337A
ENCODING 13178
SWIDTH 960 0
DWIDTH 14 0
BBX 14 14 0 -2
BITMAP
0000
0060
0178
7D60
6BFC
6C00
6B5C
6B6C
6BFC
7AEC
035C
036C
03FC
0000
ENDCHAR

STARTCHAR jisx0208_337B
ENCODING 13179
SWIDTH 960 0
DWIDTH 14 0
BBX 14 14 0 -2
BITMAP
0000
0060
7DF8
5598
55F8
7D98
55FC
5580
7DFC
180C
155C
156C
1838
0000
ENDCHAR

STARTCHAR jisx0208_337C
ENCODING 13180
SWIDTH 960 0
DWIDTH 14 0
BBX 14 14 0 -2
BITMAP
0000
1BFC
1860
7EC0
1BFC
1B0C
3B0C
370C
5BFC
5B0C
1B0C
1B0C
1BFC
0000
ENDCHAR

STARTCHAR jisx0208_337D
ENCODING 13181
SWIDTH 960 0
DWIDTH 14 0
BBX 14 14 0 -2
BITMAP
0000
0C60
7FFC
0C60
1FF0
0360
01C0
7FFC
038C
0598
1D80
7180
0380
0000
ENDCHAR

STARTCHAR jisx0208_337E
ENCODING 13182
SWIDTH 960 0
DWIDTH 14 0
BBX 14 14 0 -2
BITMAP
0000
0C60
7FFC
0B60
7FFC
600C
5FEC
0000
0FE0
0C60
0FE0
0C60
7FFC
0000
ENDCHAR

STARTCHAR jisx0208_3421
ENCODING 13345
SWIDTH 960 0
DWIDTH 14 0
BBX 14 14 0 -2
BITMAP
0000
7B7C
1ACC
178C
7B7C
6FE0
6360
777C
16CC
1ACC
1B0C
1B0C
7338
0000
ENDCHAR

STARTCHAR jisx0208_3422
ENCODING 13346
SWIDTH 960 0
DWIDTH 14 0
BBX 14 14 0 -2
BITMAP
0000
030C
030C
336C
1B6C
166C
0E6C
066C
0E6C
0B6C
1B6C
300C
601C
0000
ENDCHAR

STARTCHAR jisx0208_3423
ENCODING 13347
SWIDTH 960 0
DWIDTH 14 0
BBX 14 14 0 -2
BITMAP
0000
0C60
7FFC
0C60
0018
06D8
36D8
1CD8
0ED8
16D8
1AD8
3018
6038
0000
ENDCHAR

STARTCHAR jisx0208_3424
ENCODING 13348
SWIDTH 960 0
DWIDTH 14 0
BBX 14 14 0 -2
BITMAP
0000
7FFC
0C00
0C00
0FE0
0C60
0B60
0D60
1860
1860
19E0
1F6C
783C
0000
ENDCHAR

STARTCHAR jisx0208_3425
ENCODING 13349
SWIDTH 960 0
DWIDTH 14 0
BBX 14 14 0 -2
BITMAP
0000
18C0
7EC0
18FC
7D80
6700
7EF8
6630
7E60
18C0
7D80
198C
18FC
0000
ENDCHAR

STARTCHAR jisx0208_3426
ENCODING 13350
SWIDTH 960 0
DWIDTH 14 0
BBX 14 14 0 -2
BITMAP
0000
17F8
1618
3618
3618
77F8
3000
32B0
32B0
32B0
32B0
36AC
2CBC
0000
ENDCHAR

STARTCHAR jisx0208_3427
ENCODING 13351
SWIDTH 960 0
DWIDTH 14 0
BBX 14 14 0 -2
BITMAP
0000
7FFC
600C
602C
3F30
01FC
7F30
15B0
16B0
1630
3670
360C
63FC
0000
ENDCHAR

STARTCHAR jisx0208_3428
ENCODING 13352
SWIDTH 960 0
DWIDTH 14 0
BBX 14 14 0 -2
BITMAP
0000
0300
7FFC
66CC
5FEC
1FF0
06C0
7FFC
0C60
1BB0
70DC
0700
01C0
0000
ENDCHAR

STARTCHAR jisx0208_3429
ENCODING 13353
SWIDTH 960 0
DWIDTH 14 0
BBX 14 14 0 -2
BITMAP
0000
000C
7F6C
0C6C
0C6C
0C6C
7F6C
0C6C
0C6C
0C6C
0C0C
0C0C
0C1C
0000
ENDCHAR

STARTCHAR jisx0208_342A
ENCODING 13354
SWIDTH 960 0
DWIDTH 14 0
BBX 14 14 0 -2
BITMAP
0000
1B60
7F60
1B60
1EFC
1B6C
1B6C
7F6C
2B6C
3B6C
30CC
3ECC
01B8
0000
ENDCHAR

STARTCHAR jisx0208_342B
ENCODING 13355
SWIDTH 960 0
DWIDTH 14 0
BBX 14 14 0 -2
BITMAP
0000
3060
3F60
6C60
7FFC
186C
3F6C
6C6C
3F6C
2C6C
3ECC
2CCC
3FB8
0000
ENDCHAR

STARTCHAR jisx0208_342C
ENCODING 13356
SWIDTH 960 0
DWIDTH 14 0
BBX 14 14 0 -2
BITMAP
0000
1B30
0B60
3FF8
06C0
7FFC
0C60
1FF0
705C
0FE0
0C00
0C18
07F8
0000
ENDCHAR

STARTCHAR jisx0208_342D
ENCODING 13357
SWIDTH 960 0
DWIDTH 14 0
BBX 14 14 0 -2
BITMAP
0000
01E0
7B60
58C0
57F8
5558
5778
56D8
5FFC
78C0
0160
0330
0E1C
0000
ENDCHAR

STARTCHAR jisx0208_342E
ENCODING 13358
SWIDTH 960 0
DWIDTH 14 0
BBX 14 14 0 -2
BITMAP
0000
19B0
17FC
19B0
7DF0
19B0
19B0
17FC
1AB0
72AC
03BC
0300
03FC
0000
ENDCHAR

STARTCHAR jisx0208_342F
ENCODING 13359
SWIDTH 960 0
DWIDTH 14 0
BBX 14 14 0 -2
BITMAP
0000
0600
7FFC
0C60
1EC0
0360
3E30
0C60
7FFC
1AD8
36B0
0E78
3ACC
0000
ENDCHAR

STARTCHAR jisx0208_3430
ENCODING 13360
SWIDTH 960 0
DWIDTH 14 0
BBX 14 14 0 -2
BITMAP
0000
0300
7FFC
600C
5FEC
0000
0000
7FFC
06C0
06C0
0CC0
18CC
707C
0000
ENDCHAR

STARTCHAR jisx0208_3431
ENCODING 13361
SWIDTH 960 0
DWIDTH 14 0
BBX 14 14 0 -2
BITMAP
0000
0300
7FFC
600C
6FEC
0C60
0C60
0FE0
0C00
0FF0
0C30
0C30
0FF0
0000
ENDCHAR

STARTCHAR jisx0208_3432
ENCODING 13362
SWIDTH 960 0
DWIDTH 14 0
BBX 14 14 0 -2
BITMAP
0000
0300
7FFC
66CC
5FEC
06C0
1FF0
1830
1FF0
1830
1FF0
06CC
7CFC
0000
ENDCHAR

STARTCHAR jisx0208_3433
ENCODING 13363
SWIDTH 960 0
DWIDTH 14 0
BBX 14 14 0 -2
BITMAP
0000
0000
3FF8
0300
0300
0300
7FFC
0300
0300
0300
0300
0300
0300
0000
ENDCHAR

STARTCHAR jisx0208_3434
ENCODING 13364
SWIDTH 960 0
DWIDTH 14 0
BBX 14 14 0 -2
BITMAP
0000
1860
7EB0
18B0
7D98
670C
7DF8
6660
7E60
1BFC
7E60
1860
1860
0000
ENDCHAR

STARTCHAR jisx0208_3435
ENCODING 13365
SWIDTH 960 0
DWIDTH 14 0
BBX 14 14 0 -2
BITMAP
0000
0300
1FF0
1B30
1FF0
0300
3FF8
3318
3FF8
0300
2D98
2C2C
67F0
0000
ENDCHAR

STARTCHAR jisx0208_3436
ENCODING 13366
SWIDTH 960 0
DWIDTH 14 0
BBX 14 14 0 -2
BITMAP
0000
0058
3FFC
3060
2F58
3058
2FB0
6DAC
6F5C
0300
2D98
2C6C
67E0
0000
ENDCHAR

STARTCHAR jisx0208_3437
ENCODING 13367
SWIDTH 960 0
DWIDTH 14 0
BBX 14 14 0 -2
BITMAP
0000
19F8
1958
1BFC
5558
5BFC
5B0C
1BFC
1BFC
1B0C
1BFC
1998
1B0C
0000
ENDCHAR

STARTCHAR jisx0208_3438
ENCODING 13368
SWIDTH 960 0
DWIDTH 14 0
BBX 14 14 0 -2
BITMAP
0000
182C
17FC
1630
57B0
562C
57D8
1AD8
1BAC
1800
1AD8
1B2C
19F0
0000
ENDCHAR

STARTCHAR jisx0208_3439
ENCODING 13369
SWIDTH 960 0
DWIDTH 14 0
BBX 14 14 0 -2
BITMAP
0000
19F0
1B30
7C60
1BF8
1AD8
1B78
7B18
18C0
17FC
18E0
19B0
371C
0000
ENDCHAR

STARTCHAR jisx0208_343A
ENCODING 13370
SWIDTH 960 0
DWIDTH 14 0
BBX 14 14 0 -2
BITMAP
0000
7EC0
18C0
7EFC
3598
3ED8
36D8
3EB0
3670
3760
3E70
76D8
058C
0000
ENDCHAR

STARTCHAR jisx0208_343B
ENCODING 13371
SWIDTH 960 0
DWIDTH 14 0
BBX 14 14 0 -2
BITMAP
0000
1998
1998
7BFC
1998
3D98
3598
59F8
5998
1998
1998
1998
19F8
0000
ENDCHAR

STARTCHAR jisx0208_343C
ENCODING 13372
SWIDTH 960 0
DWIDTH 14 0
BBX 14 14 0 -2
BITMAP
0000
1800
1BFC
7E00
19F8
3D98
3598
59F8
5998
1998
19F8
1800
1BFC
0000
ENDCHAR

STARTCHAR jisx0208_343D
ENCODING 13373
SWIDTH 960 0
DWIDTH 14 0
BBX 14 14 0 -2
BITMAP
0000
1860
1BFC
7F0C
19F8
3D98
3598
59F8
5980
19FC
198C
198C
19FC
0000
ENDCHAR

STARTCHAR jisx0208_343E
ENCODING 13374
SWIDTH 960 0
DWIDTH 14 0
BBX 14 14 0 -2
BITMAP
0000
0CC0
7EC0
0DFC
3D6C
0358
3E60
0060
7EB0
0CB0
2B98
6D98
1B0C
0000
ENDCHAR

STARTCHAR jisx0208_343F
ENCODING 13375
SWIDTH 960 0
DWIDTH 14 0
BBX 14 14 0 -2
BITMAP
0000
30C0
3EC0
58C0
7FFC
2D6C
3F58
6C60
3F60
2CB0
3EB0
2D98
3F0C
0000
ENDCHAR

STARTCHAR jisx0208_3440
ENCODING 13376
SWIDTH 960 0
DWIDTH 14 0
BBX 14 14 0 -2
BITMAP
0000
33FC
1860
0060
6060
33FC
0060
0060
1860
1860
3060
3060
6060
0000
ENDCHAR

STARTCHAR jisx0208_3441
ENCODING 13377
SWIDTH 960 0
DWIDTH 14 0
BBX 14 14 0 -2
BITMAP
0000
31B0
17FC
01B0
67FC
36CC
07FC
00C0
17FC
18C0
37FC
31B0
671C
0000
ENDCHAR

STARTCHAR jisx0208_3442
ENCODING 13378
SWIDTH 960 0
DWIDTH 14 0
BBX 14 14 0 -2
BITMAP
0000
377C
177C
056C
677C
360C
05EC
05AC
15EC
15AC
35EC
360C
661C
0000
ENDCHAR

STARTCHAR jisx0208_3443
ENCODING 13379
SWIDTH 960 0
DWIDTH 14 0
BBX 14 14 0 -2
BITMAP
0000
3300
1BF8
06C0
67FC
31B0
03FC
0760
1BFC
1B60
33FC
3360
63FC
0000
ENDCHAR

STARTCHAR jisx0208_3444
ENCODING 13380
SWIDTH 960 0
DWIDTH 14 0
BBX 14 14 0 -2
BITMAP
0000
03FC
7EAC
1BFC
1800
17FC
7B18
1BF8
18CC
1DD8
72B0
0EDC
00C0
0000
ENDCHAR

STARTCHAR jisx0208_3445
ENCODING 13381
SWIDTH 960 0
DWIDTH 14 0
BBX 14 14 0 -2
BITMAP
0000
0C60
0C60
0C60
7FFC
0C60
0C60
0C60
0FE0
0C60
0C60
0C60
0FE0
0000
ENDCHAR

STARTCHAR jisx0208_3446
ENCODING 13382
SWIDTH 960 0
DWIDTH 14 0
BBX 14 14 0 -2
BITMAP
0000
7EC0
58C0
7DFC
6580
7F00
58FC
7F00
0000
3FF8
36D8
36D8
7FFC
0000
ENDCHAR

STARTCHAR jisx0208_3447
ENCODING 13383
SWIDTH 960 0
DWIDTH 14 0
BBX 14 14 0 -2
BITMAP
0000
00F0
1F80
0300
3FF8
0600
7FFC
0E18
17F8
3618
67F8
0618
07F8
0000
ENDCHAR

STARTCHAR jisx0208_3448
ENCODING 13384
SWIDTH 960 0
DWIDTH 14 0
BBX 14 14 0 -2
BITMAP
0000
30C0
3EFC
6D60
0630
3FF8
0180
0180
7FFC
0180
0180
0180
0180
0000
ENDCHAR

STARTCHAR jisx0208_3449
ENCODING 13385
SWIDTH 960 0
DWIDTH 14 0
BBX 14 14 0 -2
BITMAP
0000
30C0
3EFC
6DB0
7FFC
600C
0FE0
0C60
0FE0
0C00
0FF0
0C30
0FF0
0000
ENDCHAR

STARTCHAR jisx0208_344A
ENCODING 13386
SWIDTH 960 0
DWIDTH 14 0
BBX 14 14 0 -2
BITMAP
0000
30C0
3EFC
6DB0
3EFC
36CC
3EFC
36CC
3FFC
36CC
37CC
36CC
37DC
0000
ENDCHAR

STARTCHAR jisx0208_344B
ENCODING 13387
SWIDTH 960 0
DWIDTH 14 0
BBX 14 14 0 -2
BITMAP
0000
1BFC
32CC
6D58
3BFC
3180
6BFC
7D80
15F8
5AD8
5B70
5670
19DC
0000
ENDCHAR

STARTCHAR jisx0208_344C
ENCODING 13388
SWIDTH 960 0
DWIDTH 14 0
BBX 14 14 0 -2
BITMAP
0000
1800
1800
3FF8
6300
0300
0300
7FFC
0300
3318
3318
3318
3FF8
0000
ENDCHAR

STARTCHAR jisx0208_344D
ENCODING 13389
SWIDTH 960 0
DWIDTH 14 0
BBX 14 14 0 -2
BITMAP
0000
18E0
7DB0
1B18
7FFC
66D8
7ED8
65B8
7ED8
19B8
7ED8
18D8
19B8
0000
ENDCHAR

STARTCHAR jisx0208_344E
ENCODING 13390
SWIDTH 960 0
DWIDTH 14 0
BBX 14 14 0 -2
BITMAP
0000
3DFC
3630
3630
3E30
3630
35FC
3E30
3630
3630
3630
6630
6E30
0000
ENDCHAR

STARTCHAR jisx0208_344F
ENCODING 13391
SWIDTH 960 0
DWIDTH 14 0
BBX 14 14 0 -2
BITMAP
0000
1BD8
3AB0
2BFC
3B60
2BE0
3EBC
6BE0
3C00
2BFC
2AAC
6AAC
5FFC
0000
ENDCHAR

STARTCHAR jisx0208_3450
ENCODING 13392
SWIDTH 960 0
DWIDTH 14 0
BBX 14 14 0 -2
BITMAP
0000
0C60
7FFC
0B60
7FFC
600C
5FEC
0000
7FFC
0CC0
0CC0
18CC
707C
0000
ENDCHAR

STARTCHAR jisx0208_3451
ENCODING 13393
SWIDTH 960 0
DWIDTH 14 0
BBX 14 14 0 -2
BITMAP
0000
30FC
3ECC
58FC
7ECC
2CFC
7ECC
2CCC
3EFC
2C58
3F58
2CD8
3F9C
0000
ENDCHAR

STARTCHAR jisx0208_3452
ENCODING 13394
SWIDTH 960 0
DWIDTH 14 0
BBX 14 14 0 -2
BITMAP
0000
3C60
03FC
7E60
03FC
7B6C
03FC
7B6C
03FC
7C60
6CF0
6D58
7B6C
0000
ENDCHAR

STARTCHAR jisx0208_3453
ENCODING 13395
SWIDTH 960 0
DWIDTH 14 0
BBX 14 14 0 -2
BITMAP
0000
1FF0
1B30
7FFC
1B30
1FF0
1830
1FF0
1830
1FF0
1830
1FF0
701C
0000
ENDCHAR

STARTCHAR jisx0208_3454
ENCODING 13396
SWIDTH 960 0
DWIDTH 14 0
BBX 14 14 0 -2
BITMAP
0000
37F8
1558
07F8
0000
0FFC
7B30
1BEC
19D8
1AB0
16D8
2C00
67FC
0000
ENDCHAR

STARTCHAR jisx0208_3455
ENCODING 13397
SWIDTH 960 0
DWIDTH 14 0
BBX 14 14 0 -2
BITMAP
0000
1BD8
2AB0
63FC
7B60
1BE0
1ABC
7BE0
1800
5BFC
5AAC
1AAC
77FC
0000
ENDCHAR

STARTCHAR jisx0208_3456
ENCODING 13398
SWIDTH 960 0
DWIDTH 14 0
BBX 14 14 0 -2
BITMAP
0000
7EFC
66CC
7EFC
66CC
7EFC
600C
67CC
66CC
67CC
66CC
67CC
601C
0000
ENDCHAR

STARTCHAR jisx0208_3457
ENCODING 13399
SWIDTH 960 0
DWIDTH 14 0
BBX 14 14 0 -2
BITMAP
0000
7EFC
66CC
7EFC
66CC
7EFC
630C
5FEC
678C
6ACC
5B6C
630C
601C
0000
ENDCHAR

STARTCHAR jisx0208_3458
ENCODING 13400
SWIDTH 960 0
DWIDTH 14 0
BBX 14 14 0 -2
BITMAP
0000
7EFC
7EFC
66CC
7EFC
600C
66CC
6FEC
630C
6FEC
638C
66CC
6C5C
0000
ENDCHAR

STARTCHAR jisx0208_3459
ENCODING 13401
SWIDTH 960 0
DWIDTH 14 0
BBX 14 14 0 -2
BITMAP
0000
7CC0
6DF8
5998
7330
5860
6AFC
6ACC
6ACC
7AFC
62CC
62CC
62FC
0000
ENDCHAR

STARTCHAR jisx0208_345A
ENCODING 13402
SWIDTH 960 0
DWIDTH 14 0
BBX 14 14 0 -2
BITMAP
0000
1860
7DF8
18D8
7FFC
6598
7DF8
6660
7DF8
1960
7FFC
1860
1860
0000
ENDCHAR

STARTCHAR jisx0208_345B
ENCODING 13403
SWIDTH 960 0
DWIDTH 14 0
BBX 14 14 0 -2
BITMAP
0000
1C60
37FC
5B0C
3DF8
3598
3D98
35F8
3D80
31FC
2D8C
3D8C
75FC
0000
ENDCHAR

STARTCHAR jisx0208_345C
ENCODING 13404
SWIDTH 960 0
DWIDTH 14 0
BBX 14 14 0 -2
BITMAP
0000
0C60
15FC
338C
60F8
3ED8
0CD8
3EF8
0CC0
3EFC
32CC
32CC
3EFC
0000
ENDCHAR

STARTCHAR jisx0208_345D
ENCODING 13405
SWIDTH 960 0
DWIDTH 14 0
BBX 14 14 0 -2
BITMAP
0000
0600
0600
0600
7FE0
0660
0660
1660
0E60
0B60
186C
306C
603C
0000
ENDCHAR

STARTCHAR jisx0208_345E
ENCODING 13406
SWIDTH 960 0
DWIDTH 14 0
BBX 14 14 0 -2
BITMAP
0000
0380
06C0
0C60
37B8
600C
1FE0
00C0
0180
1FF0
1830
1830
1FF0
0000
ENDCHAR

STARTCHAR jisx0208_345F
ENCODING 13407
SWIDTH 960 0
DWIDTH 14 0
BBX 14 14 0 -2
BITMAP
0000
0180
3198
3FF8
0000
3FFC
3000
2FF8
3180
3FFC
3180
6180
6180
0000
ENDCHAR

STARTCHAR jisx0208_3460
ENCODING 13408
SWIDTH 960 0
DWIDTH 14 0
BBX 14 14 0 -2
BITMAP
0000
1998
1FF8
0DB0
3FFC
3060
3F7C
36D8
3F58
2B58
2F30
5B58
62CC
0000
ENDCHAR

STARTCHAR jisx0208_3461
ENCODING 13409
SWIDTH 960 0
DWIDTH 14 0
BBX 14 14 0 -2
BITMAP
0000
7DF8
1800
1800
1800
7BFC
19B0
19B0
19B0
1DB0
7330
032C
063C
0000
ENDCHAR

STARTCHAR jisx0208_3462
ENCODING 13410
SWIDTH 960 0
DWIDTH 14 0
BBX 14 14 0 -2
BITMAP
0000
0180
3FFC
3330
33F0
7000
2F7C
2D6C
6F7C
30C0
2CCC
6CCC
6FFC
0000
ENDCHAR

STARTCHAR jisx0208_3463
ENCODING 13411
SWIDTH 960 0
DWIDTH 14 0
BBX 14 14 0 -2
BITMAP
0000
7BF8
6B18
6BF8
7B18
6B18
6BF8
7B60
6B6C
6B38
7B30
03D8
070C
0000
ENDCHAR

STARTCHAR jisx0208_3464
ENCODING 13412
SWIDTH 960 0
DWIDTH 14 0
BBX 14 14 0 -2
BITMAP
0000
0300
3318
3318
3FF8
0000
7FFC
0600
0C00
1FF8
6C18
0C18
0FF8
0000
ENDCHAR

STARTCHAR jisx0208_3465
ENCODING 13413
SWIDTH 960 0
DWIDTH 14 0
BBX 14 14 0 -2
BITMAP
0000
7EF8
1B00
5B00
3700
5BFC
36B0
0CB0
3EB0
32B0
3EB0
32AC
3FBC
0000
ENDCHAR

STARTCHAR jisx0208_3466
ENCODING 13414
SWIDTH 960 0
DWIDTH 14 0
BBX 14 14 0 -2
BITMAP
0000
3FFC
36D8
2DFC
3BB0
2DFC
2DB0
2FFC
2C18
2FF8
2C18
6FF8
580C
0000
ENDCHAR

STARTCHAR jisx0208_3467
ENCODING 13415
SWIDTH 960 0
DWIDTH 14 0
BBX 14 14 0 -2
BITMAP
0000
3FFC
3000
36D8
36D8
2DFC
3BB0
2DFC
2DB0
2DFC
2DB0
6DB0
6DFC
0000
ENDCHAR

STARTCHAR jisx0208_3468
ENCODING 13416
SWIDTH 960 0
DWIDTH 14 0
BBX 14 14 0 -2
BITMAP
0000
3EFC
0060
00FC
7ECC
2CFC
2CCC
2CFC
2CCC
2AFC
6F00
60D8
018C
0000
ENDCHAR

STARTCHAR jisx0208_3469
ENCODING 13417
SWIDTH 960 0
DWIDTH 14 0
BBX 14 14 0 -2
BITMAP
0000
0CFC
3F30
16FC
16CC
7FFC
36CC
3CFC
32CC
3EFC
3180
6758
5CCC
0000
ENDCHAR

STARTCHAR jisx0208_346A
ENCODING 13418
SWIDTH 960 0
DWIDTH 14 0
BBX 14 14 0 -2
BITMAP
0000
3EFC
2C30
3EFC
32CC
3EFC
32CC
3EFC
2CCC
2CFC
2B00
6B58
6CCC
0000
ENDCHAR

STARTCHAR jisx0208_346B
ENCODING 13419
SWIDTH 960 0
DWIDTH 14 0
BBX 14 14 0 -2
BITMAP
0000
0380
06C0
0C60
19B0
719C
0180
19F0
1980
1980
1980
1980
7FFC
0000
ENDCHAR

STARTCHAR jisx0208_346C
ENCODING 13420
SWIDTH 960 0
DWIDTH 14 0
BBX 14 14 0 -2
BITMAP
0000
0CC0
0CC0
17FC
18C0
38C0
57F8
1B18
1B18
19B0
18E0
19B0
171C
0000
ENDCHAR

STARTCHAR jisx0208_346D
ENCODING 13421
SWIDTH 960 0
DWIDTH 14 0
BBX 14 14 0 -2
BITMAP
0000
0600
0FE0
18C0
7180
1FFC
1800
1BF0
1B30
1B70
3300
330C
61FC
0000
ENDCHAR

STARTCHAR jisx0208_346E
ENCODING 13422
SWIDTH 960 0
DWIDTH 14 0
BBX 14 14 0 -2
BITMAP
0000
0300
7FFC
0300
3FF8
1830
1FF0
0CC0
7FFC
0000
1FF0
1830
1FF0
0000
ENDCHAR

STARTCHAR jisx0208_346F
ENCODING 13423
SWIDTH 960 0
DWIDTH 14 0
BBX 14 14 0 -2
BITMAP
0000
3EF8
36D8
36D8
3EF8
0600
7FFC
0C60
1830
7EFC
36D8
36D8
3EF8
0000
ENDCHAR

STARTCHAR jisx0208_3470
ENCODING 13424
SWIDTH 960 0
DWIDTH 14 0
BBX 14 14 0 -2
BITMAP
0000
0C60
7FFC
0C60
0FE0
0C60
7FFC
0C60
1B30
2FD8
630C
0300
3FF8
0000
ENDCHAR

STARTCHAR jisx0208_3471
ENCODING 13425
SWIDTH 960 0
DWIDTH 14 0
BBX 14 14 0 -2
BITMAP
0000
0300
3FF8
0380
0EE0
3838
0000
7FFC
0030
1FB0
19B0
1FB0
0070
0000
ENDCHAR

STARTCHAR jisx0208_3472
ENCODING 13426
SWIDTH 960 0
DWIDTH 14 0
BBX 14 14 0 -2
BITMAP
0000
18C0
17FC
7CC0
2BF8
2B18
2BF8
6DB0
6BFC
3800
1BF8
2B18
63F8
0000
ENDCHAR

STARTCHAR jisx0208_3473
ENCODING 13427
SWIDTH 960 0
DWIDTH 14 0
BBX 14 14 0 -2
BITMAP
0000
0300
7FFC
630C
5FEC
0580
3CF0
0000
7FFC
1B30
1B30
1F30
0070
0000
ENDCHAR

STARTCHAR jisx0208_3474
ENCODING 13428
SWIDTH 960 0
DWIDTH 14 0
BBX 14 14 0 -2
BITMAP
0000
1860
1860
1BFC
5660
5660
57F8
5598
5598
56B0
7E60
00B0
039C
0000
ENDCHAR

STARTCHAR jisx0208_3475
ENCODING 13429
SWIDTH 960 0
DWIDTH 14 0
BBX 14 14 0 -2
BITMAP
0000
0E60
03C0
3E70
0300
7FFC
0580
0D80
1FF8
6D98
0D98
0D78
0180
0000
ENDCHAR

STARTCHAR jisx0208_3476
ENCODING 13430
SWIDTH 960 0
DWIDTH 14 0
BBX 14 14 0 -2
BITMAP
0000
1B30
3360
5AB0
3B70
3558
7DFC
0198
7FFC
1998
1CB0
366C
61DC
0000
ENDCHAR

STARTCHAR jisx0208_3477
ENCODING 13431
SWIDTH 960 0
DWIDTH 14 0
BBX 14 14 0 -2
BITMAP
0000
3FF0
0030
0030
3FF0
3000
3018
1FF8
0000
0D98
2CCC
2C2C
67F0
0000
ENDCHAR

STARTCHAR jisx0208_3478
ENCODING 13432
SWIDTH 960 0
DWIDTH 14 0
BBX 14 14 0 -2
BITMAP
0000
17FC
16CC
7BF8
18C0
1BF8
1AD8
7BF8
1AD8
1BF8
18C0
17FC
38C0
0000
ENDCHAR

STARTCHAR jisx0208_3479
ENCODING 13433
SWIDTH 960 0
DWIDTH 14 0
BBX 14 14 0 -2
BITMAP
0000
19F0
19B0
7DB0
19B0
3DB0
35B0
59B0
59B0
19B0
1B2C
1B2C
163C
0000
ENDCHAR

STARTCHAR jisx0208_347A
ENCODING 13434
SWIDTH 960 0
DWIDTH 14 0
BBX 14 14 0 -2
BITMAP
0000
1980
7DFC
1AD8
19FC
1ED8
16F8
16D8
36F8
36D8
35FC
66D8
5D8C
0000
ENDCHAR

STARTCHAR jisx0208_347B
ENCODING 13435
SWIDTH 960 0
DWIDTH 14 0
BBX 14 14 0 -2
BITMAP
0000
3DFC
36B0
3EB0
36B0
3DFC
3030
2C70
3670
36B0
3AAC
71AC
033C
0000
ENDCHAR

STARTCHAR jisx0208_347C
ENCODING 13436
SWIDTH 960 0
DWIDTH 14 0
BBX 14 14 0 -2
BITMAP
0000
36FC
36CC
7ECC
36FC
3ECC
36CC
3EFC
36CC
7ECC
018C
358C
631C
0000
ENDCHAR

STARTCHAR jisx0208_347D
ENCODING 13437
SWIDTH 960 0
DWIDTH 14 0
BBX 14 14 0 -2
BITMAP
0000
19B0
19B0
7BFC
19B0
3DF0
35B0
59F0
59B0
17FC
1800
19B8
170C
0000
ENDCHAR

STARTCHAR jisx0208_347E
ENCODING 13438
SWIDTH 960 0
DWIDTH 14 0
BBX 14 14 0 -2
BITMAP
0000
0300
7FFC
0630
3FF8
0B60
7FFC
0B60
0FE0
7FFC
0AC0
1B70
731C
0000
ENDCHAR

STARTCHAR jisx0208_3521
ENCODING 13601
SWIDTH 960 0
DWIDTH 14 0
BBX 14 14 0 -2
BITMAP
0000
1998
1B30
7D98
1AAC
3AAC
37FC
58D8
57FC
1B60
1B58
15AC
165C
0000
ENDCHAR

STARTCHAR jisx0208_3522
ENCODING 13602
SWIDTH 960 0
DWIDTH 14 0
BBX 14 14 0 -2
BITMAP
0000
1BF8
1818
5BF8
5818
57FC
56CC
5BF8
1AD8
1AD8
32D8
32B8
60C0
0000
ENDCHAR

STARTCHAR jisx0208_3523
ENCODING 13603
SWIDTH 960 0
DWIDTH 14 0
BBX 14 14 0 -2
BITMAP
0000
18F8
7ED8
2CD8
2D9C
7E00
19FC
6AD8
1ED8
6B70
1C70
6CD8
1B8C
0000
ENDCHAR

STARTCHAR jisx0208_3524
ENCODING 13604
SWIDTH 960 0
DWIDTH 14 0
BBX 14 14 0 -2
BITMAP
0000
1800
1FF8
3000
5FF0
0000
7FF0
0030
01B0
3B30
0E2C
1B1C
718C
0000
ENDCHAR

STARTCHAR jisx0208_3525
ENCODING 13605
SWIDTH 960 0
DWIDTH 14 0
BBX 14 14 0 -2
BITMAP
0000
3300
1BFC
0600
6BF8
3000
07F0
1830
1830
3030
302C
601C
600C
0000
ENDCHAR

STARTCHAR jisx0208_3526
ENCODING 13606
SWIDTH 960 0
DWIDTH 14 0
BBX 14 14 0 -2
BITMAP
0000
19B0
356C
1DB8
19B0
356C
3D7C
00D8
7FFC
2B60
3F58
2B2C
3F5C
0000
ENDCHAR

STARTCHAR jisx0208_3527
ENCODING 13607
SWIDTH 960 0
DWIDTH 14 0
BBX 14 14 0 -2
BITMAP
0000
1838
19E0
7D80
0580
0DFC
1DB0
35B0
59B0
19B0
19B0
1B30
1B30
0000
ENDCHAR

STARTCHAR jisx0208_3528
ENCODING 13608
SWIDTH 960 0
DWIDTH 14 0
BBX 14 14 0 -2
BITMAP
0000
0070
3FC0
0300
7FFC
0AC0
1B70
6FDC
00C0
0380
7FFC
0300
0700
0000
ENDCHAR

STARTCHAR jisx0208_3529
ENCODING 13609
SWIDTH 960 0
DWIDTH 14 0
BBX 14 14 0 -2
BITMAP
0000
0DD8
7870
18D8
7D8C
1860
3BFC
36E0
59FC
5B6C
156C
195C
1860
0000
ENDCHAR

STARTCHAR jisx0208_352A
ENCODING 13610
SWIDTH 960 0
DWIDTH 14 0
BBX 14 14 0 -2
BITMAP
0000
19F8
3018
6C18
3818
19F8
3580
7D80
1980
5580
558C
598C
18FC
0000
ENDCHAR

STARTCHAR jisx0208_352B
ENCODING 13611
SWIDTH 960 0
DWIDTH 14 0
BBX 14 14 0 -2
BITMAP
0000
2AB0
6FB0
163C
2D58
7758
36D8
2FD8
3358
2AB0
2AD8
2B58
32CC
0000
ENDCHAR

STARTCHAR jisx0208_352C
ENCODING 13612
SWIDTH 960 0
DWIDTH 14 0
BBX 14 14 0 -2
BITMAP
0000
19F8
1998
7DF8
1998
19F8
7D98
1998
19F8
2CB0
36B0
61AC
633C
0000
ENDCHAR

STARTCHAR jisx0208_352D
ENCODING 13613
SWIDTH 960 0
DWIDTH 14 0
BBX 14 14 0 -2
BITMAP
0000
3DF8
0018
7E18
0018
7C18
01F8
7D80
0180
7D80
6D80
6D8C
7CFC
0000
ENDCHAR

STARTCHAR jisx0208_352E
ENCODING 13614
SWIDTH 960 0
DWIDTH 14 0
BBX 14 14 0 -2
BITMAP
0000
0300
1FF0
1B30
7FFC
0000
1FF0
1830
1FF0
1FF0
1830
1FF0
701C
0000
ENDCHAR

STARTCHAR jisx0208_352F
ENCODING 13615
SWIDTH 960 0
DWIDTH 14 0
BBX 14 14 0 -2
BITMAP
0000
0CFC
3F0C
0C0C
0C0C
7EFC
0CC0
0CC0
2EC0
2CCC
3C7C
6E00
63FC
0000
ENDCHAR

STARTCHAR jisx0208_3530
ENCODING 13616
SWIDTH 960 0
DWIDTH 14 0
BBX 14 14 0 -2
BITMAP
0000
18C0
7EC0
18C0
7FF0
56B0
7EB0
56B0
7EB0
18B0
7DB0
19AC
1B3C
0000
ENDCHAR

STARTCHAR jisx0208_3531
ENCODING 13617
SWIDTH 960 0
DWIDTH 14 0
BBX 14 14 0 -2
BITMAP
0000
19FC
556C
36F8
1860
7DFC
2D6C
2DFC
2D6C
2DFC
2E60
6DFC
6060
0000
ENDCHAR

STARTCHAR jisx0208_3532
ENCODING 13618
SWIDTH 960 0
DWIDTH 14 0
BBX 14 14 0 -2
BITMAP
0000
1DF0
35B0
59B0
3DB0
35B0
3DB0
35B0
3DB0
31B0
35B0
3B2C
733C
0000
ENDCHAR

STARTCHAR jisx0208_3533
ENCODING 13619
SWIDTH 960 0
DWIDTH 14 0
BBX 14 14 0 -2
BITMAP
0000
7E60
59F8
7E60
58B0
7D98
5BFC
7E18
05D8
1D58
75D8
0618
1C38
0000
ENDCHAR

STARTCHAR jisx0208_3534
ENCODING 13620
SWIDTH 960 0
DWIDTH 14 0
BBX 14 14 0 -2
BITMAP
0000
0600
1FF0
1B30
1FF0
1B30
1B30
1FF0
0580
0558
0D78
198C
70FC
0000
ENDCHAR

STARTCHAR jisx0208_3535
ENCODING 13621
SWIDTH 960 0
DWIDTH 14 0
BBX 14 14 0 -2
BITMAP
0000
0FC0
18C0
3FF0
1B30
1FF0
3FF8
3318
3FF8
3318
3FF8
030C
03FC
0000
ENDCHAR

STARTCHAR jisx0208_3536
ENCODING 13622
SWIDTH 960 0
DWIDTH 14 0
BBX 14 14 0 -2
BITMAP
0000
16C0
1AC0
17F0
31B0
33F8
7318
3618
2FFC
380C
356C
358C
2C38
0000
ENDCHAR

STARTCHAR jisx0208_3537
ENCODING 13623
SWIDTH 960 0
DWIDTH 14 0
BBX 14 14 0 -2
BITMAP
0000
19B0
17FC
18C0
37F8
30C0
6FFC
3358
2FFC
3360
2F58
332C
375C
0000
ENDCHAR

STARTCHAR jisx0208_3538
ENCODING 13624
SWIDTH 960 0
DWIDTH 14 0
BBX 14 14 0 -2
BITMAP
0000
3060
3060
7DFC
3660
3660
35FC
658C
6CD8
6CD8
1C70
36B0
639C
0000
ENDCHAR

STARTCHAR jisx0208_3539
ENCODING 13625
SWIDTH 960 0
DWIDTH 14 0
BBX 14 14 0 -2
BITMAP
0000
0300
7FFC
600C
6FEC
6C6C
0C60
0FE0
0C60
0FE0
0C60
0C60
7FFC
0000
ENDCHAR

STARTCHAR jisx0208_353A
ENCODING 13626
SWIDTH 960 0
DWIDTH 14 0
BBX 14 14 0 -2
BITMAP
0000
0F6C
0C60
3F7C
2DE0
3F6C
2C6C
2F58
3038
2B30
5BAC
6B5C
3FCC
0000
ENDCHAR

STARTCHAR jisx0208_353B
ENCODING 13627
SWIDTH 960 0
DWIDTH 14 0
BBX 14 14 0 -2
BITMAP
0000
1860
1860
7BFC
1860
1860
1BF8
7998
1998
18B0
1860
18B0
3B9C
0000
ENDCHAR

STARTCHAR jisx0208_353C
ENCODING 13628
SWIDTH 960 0
DWIDTH 14 0
BBX 14 14 0 -2
BITMAP
0000
2CFC
2F8C
7C58
2FB0
30FC
362C
6FB0
333C
2FB0
3330
3570
6CDC
0000
ENDCHAR

STARTCHAR jisx0208_353D
ENCODING 13629
SWIDTH 960 0
DWIDTH 14 0
BBX 14 14 0 -2
BITMAP
0000
36C0
36C0
7EC0
36FC
3D6C
3658
3E60
3660
7EB0
00B0
3598
630C
0000
ENDCHAR

STARTCHAR jisx0208_353E
ENCODING 13630
SWIDTH 960 0
DWIDTH 14 0
BBX 14 14 0 -2
BITMAP
0000
18B0
57FC
5860
7BFC
5860
17FC
1DAC
77FC
19AC
17D8
19B8
1B6C
0000
ENDCHAR

STARTCHAR jisx0208_353F
ENCODING 13631
SWIDTH 960 0
DWIDTH 14 0
BBX 14 14 0 -2
BITMAP
0000
35F8
3C18
32B0
1F60
31FC
3F6C
6C60
3F78
0D60
1560
32E0
633C
0000
ENDCHAR

STARTCHAR jisx0208_3540
ENCODING 13632
SWIDTH 960 0
DWIDTH 14 0
BBX 14 14 0 -2
BITMAP
0000
181C
19F0
7DB0
05B0
0DB0
19FC
3DB0
55B0
19B0
19AC
19DC
1B8C
0000
ENDCHAR

STARTCHAR jisx0208_3541
ENCODING 13633
SWIDTH 960 0
DWIDTH 14 0
BBX 14 14 0 -2
BITMAP
0000
06C0
7FFC
0300
3FF8
0300
7FFC
0CD8
7FFC
0AD8
7E70
0C6C
1DDC
0000
ENDCHAR

STARTCHAR jisx0208_3542
ENCODING 13634
SWIDTH 960 0
DWIDTH 14 0
BBX 14 14 0 -2
BITMAP
0000
18B0
1BFC
7E60
55F8
5660
7FFC
19AC
17FC
15AC
1BD8
71B8
036C
0000
ENDCHAR

STARTCHAR jisx0208_3543
ENCODING 13635
SWIDTH 960 0
DWIDTH 14 0
BBX 14 14 0 -2
BITMAP
0000
3C60
03FC
7B0C
030C
7DF8
0198
7DF8
0198
7DF8
6D98
6D98
7BFC
0000
ENDCHAR

STARTCHAR jisx0208_3544
ENCODING 13636
SWIDTH 960 0
DWIDTH 14 0
BBX 14 14 0 -2
BITMAP
0000
3CB0
03FC
7E60
01F8
7C60
03FC
7DAC
03FC
7DB0
6BDC
6DB8
7B6C
0000
ENDCHAR

STARTCHAR jisx0208_3545
ENCODING 13637
SWIDTH 960 0
DWIDTH 14 0
BBX 14 14 0 -2
BITMAP
0000
1980
19FC
7B0C
18CC
1AAC
1CCC
77FC
19EC
1AAC
16DC
18CC
38B8
0000
ENDCHAR

STARTCHAR jisx0208_3546
ENCODING 13638
SWIDTH 960 0
DWIDTH 14 0
BBX 14 14 0 -2
BITMAP
0000
0C60
7FFC
0C60
3000
3FFC
5B6C
0ACC
3FEC
078C
0ACC
3B6C
0338
0000
ENDCHAR

STARTCHAR jisx0208_3547
ENCODING 13639
SWIDTH 960 0
DWIDTH 14 0
BBX 14 14 0 -2
BITMAP
0000
2D80
7DFC
2B0C
3CCC
1AAC
7ECC
57FC
7DEC
1AAC
7EDC
18CC
18B8
0000
ENDCHAR

STARTCHAR jisx0208_3548
ENCODING 13640
SWIDTH 960 0
DWIDTH 14 0
BBX 14 14 0 -2
BITMAP
0000
0300
0300
7FFC
0300
0300
3FF8
0000
0000
1FF0
1830
1830
1FF0
0000
ENDCHAR

STARTCHAR jisx0208_3549
ENCODING 13641
SWIDTH 960 0
DWIDTH 14 0
BBX 14 14 0 -2
BITMAP
0000
0180
7D80
6DFC
6B00
6B00
6DF8
6C30
7CE0
0180
0300
030C
01FC
0000
ENDCHAR

STARTCHAR jisx0208_354A
ENCODING 13642
SWIDTH 960 0
DWIDTH 14 0
BBX 14 14 0 -2
BITMAP
0000
0300
7FFC
5B2C
5FAC
5B6C
5B6C
5FD8
78C0
0FFC
0160
0330
0E1C
0000
ENDCHAR

STARTCHAR jisx0208_354B
ENCODING 13643
SWIDTH 960 0
DWIDTH 14 0
BBX 14 14 0 -2
BITMAP
0000
1860
1860
7DFC
1860
3C60
35FC
5800
59F8
1998
1998
1998
19F8
0000
ENDCHAR

STARTCHAR jisx0208_354C
ENCODING 13644
SWIDTH 960 0
DWIDTH 14 0
BBX 14 14 0 -2
BITMAP
0000
1BF0
1860
7BFC
18EC
3D58
37FC
55AC
573C
15EC
15AC
15EC
161C
0000
ENDCHAR

STARTCHAR jisx0208_354D
ENCODING 13645
SWIDTH 960 0
DWIDTH 14 0
BBX 14 14 0 -2
BITMAP
0000
3C60
0060
7BFC
0060
7C60
01F8
7C00
0000
7DF8
6D98
6D98
7DF8
0000
ENDCHAR

STARTCHAR jisx0208_354E
ENCODING 13646
SWIDTH 960 0
DWIDTH 14 0
BBX 14 14 0 -2
BITMAP
0000
0060
7F60
187C
1860
3060
3E60
75FC
758C
358C
358C
3D8C
01FC
0000
ENDCHAR

STARTCHAR jisx0208_354F
ENCODING 13647
SWIDTH 960 0
DWIDTH 14 0
BBX 14 14 0 -2
BITMAP
0000
1980
1980
7DFC
1B60
1B60
3C60
37FC
5860
5860
1860
1860
1860
0000
ENDCHAR

STARTCHAR jisx0208_3550
ENCODING 13648
SWIDTH 960 0
DWIDTH 14 0
BBX 14 14 0 -2
BITMAP
0000
1FE0
0300
7FFC
0AC0
1B70
75DC
1C70
731C
1B30
0AE0
1B38
770C
0000
ENDCHAR

STARTCHAR jisx0208_3551
ENCODING 13649
SWIDTH 960 0
DWIDTH 14 0
BBX 14 14 0 -2
BITMAP
0000
0C00
0CFC
3ECC
0CCC
0CCC
7ECC
18CC
16CC
32CC
2EBC
79C0
00C0
0000
ENDCHAR

STARTCHAR jisx0208_3552
ENCODING 13650
SWIDTH 960 0
DWIDTH 14 0
BBX 14 14 0 -2
BITMAP
0000
0300
7FFC
660C
6FEC
1CC0
3580
07C0
1C70
6FDC
0C60
0C60
0FE0
0000
ENDCHAR

STARTCHAR jisx0208_3553
ENCODING 13651
SWIDTH 960 0
DWIDTH 14 0
BBX 14 14 0 -2
BITMAP
0000
7B7C
5B6C
5FEC
7B6C
5B6C
5FEC
7B6C
556C
556C
5EDC
5860
5860
0000
ENDCHAR

STARTCHAR jisx0208_3554
ENCODING 13652
SWIDTH 960 0
DWIDTH 14 0
BBX 14 14 0 -2
BITMAP
0000
0300
03F0
0300
3FFC
330C
2FF0
3318
2FF8
2C00
2FF8
6C00
6FFC
0000
ENDCHAR

STARTCHAR jisx0208_3555
ENCODING 13653
SWIDTH 960 0
DWIDTH 14 0
BBX 14 14 0 -2
BITMAP
0000
3330
1960
17FC
00C0
02D8
7AD8
1AD8
1BF8
18C0
18C0
2D80
67FC
0000
ENDCHAR

STARTCHAR jisx0208_3556
ENCODING 13654
SWIDTH 960 0
DWIDTH 14 0
BBX 14 14 0 -2
BITMAP
0000
0070
1FC0
1800
1800
1800
1FF8
18C0
18C0
18C0
18C0
18C0
7FFC
0000
ENDCHAR

STARTCHAR jisx0208_3557
ENCODING 13655
SWIDTH 960 0
DWIDTH 14 0
BBX 14 14 0 -2
BITMAP
0000
0600
0600
0FE0
0C60
18C0
30C0
0180
0180
02C0
0660
1C30
701C
0000
ENDCHAR

STARTCHAR jisx0208_3558
ENCODING 13656
SWIDTH 960 0
DWIDTH 14 0
BBX 14 14 0 -2
BITMAP
0000
0D80
0D80
1980
17F0
39B0
59B0
19B0
19B0
19B0
1B30
1B2C
163C
0000
ENDCHAR

STARTCHAR jisx0208_3559
ENCODING 13657
SWIDTH 960 0
DWIDTH 14 0
BBX 14 14 0 -2
BITMAP
0000
0CC0
0CC0
18C0
17FC
38C0
59E0
19B0
1AB0
1AD8
16CC
18C0
18C0
0000
ENDCHAR

STARTCHAR jisx0208_355A
ENCODING 13658
SWIDTH 960 0
DWIDTH 14 0
BBX 14 14 0 -2
BITMAP
0000
3FE0
0C60
0CC0
0CC0
0DF8
0E18
1630
1B30
3160
30C0
6370
0E1C
0000
ENDCHAR

STARTCHAR jisx0208_355B
ENCODING 13659
SWIDTH 960 0
DWIDTH 14 0
BBX 14 14 0 -2
BITMAP
0000
07F0
7B30
6B30
6B60
6B78
6B18
6B98
7BB0
06B0
0660
0CB0
039C
0000
ENDCHAR

STARTCHAR jisx0208_355C
ENCODING 13660
SWIDTH 960 0
DWIDTH 14 0
BBX 14 14 0 -2
BITMAP
0000
0300
7FFC
600C
6FEC
0C60
0C60
0FE0
0300
1FF0
1830
1830
1FF0
0000
ENDCHAR

STARTCHAR jisx0208_355D
ENCODING 13661
SWIDTH 960 0
DWIDTH 14 0
BBX 14 14 0 -2
BITMAP
0000
3FF0
0030
0030
3FF0
3000
3000
3FF8
0018
0018
0018
0030
01E0
0000
ENDCHAR

STARTCHAR jisx0208_355E
ENCODING 13662
SWIDTH 960 0
DWIDTH 14 0
BBX 14 14 0 -2
BITMAP
0000
0600
0FC0
38C0
1FF0
0030
1FF0
0030
1FF0
0180
2CD8
2C2C
67F0
0000
ENDCHAR

STARTCHAR jisx0208_355F
ENCODING 13663
SWIDTH 960 0
DWIDTH 14 0
BBX 14 14 0 -2
BITMAP
0000
1660
1860
7EC0
18FC
19D8
56D8
1CD8
3658
5B30
1870
18D8
398C
0000
ENDCHAR

STARTCHAR jisx0208_3560
ENCODING 13664
SWIDTH 960 0
DWIDTH 14 0
BBX 14 14 0 -2
BITMAP
0000
1BFC
18C0
7EC0
1980
1980
3DFC
360C
580C
580C
180C
1818
1870
0000
ENDCHAR

STARTCHAR jisx0208_3561
ENCODING 13665
SWIDTH 960 0
DWIDTH 14 0
BBX 14 14 0 -2
BITMAP
0000
0330
0318
7FFC
0300
3318
1BB0
02E0
02C0
0B60
1B30
731C
0700
0000
ENDCHAR

STARTCHAR jisx0208_3562
ENCODING 13666
SWIDTH 960 0
DWIDTH 14 0
BBX 14 14 0 -2
BITMAP
0000
37F0
1B30
0330
6360
3378
0318
0398
1AB0
16B0
3660
2CB0
639C
0000
ENDCHAR

STARTCHAR jisx0208_3563
ENCODING 13667
SWIDTH 960 0
DWIDTH 14 0
BBX 14 14 0 -2
BITMAP
0000
30C0
18C0
07FC
6000
3018
0318
0318
19B0
19B0
3160
3060
67FC
0000
ENDCHAR

STARTCHAR jisx0208_3564
ENCODING 13668
SWIDTH 960 0
DWIDTH 14 0
BBX 14 14 0 -2
BITMAP
0000
07C0
0CC0
3980
02C0
0E70
799C
0180
0D98
19B0
02C0
0E70
781C
0000
ENDCHAR

STARTCHAR jisx0208_3565
ENCODING 13669
SWIDTH 960 0
DWIDTH 14 0
BBX 14 14 0 -2
BITMAP
0000
0058
7E60
1BFC
1860
1B6C
7D58
1870
1858
1D58
736C
0060
00E0
0000
ENDCHAR

STARTCHAR jisx0208_3566
ENCODING 13670
SWIDTH 960 0
DWIDTH 14 0
BBX 14 14 0 -2
BITMAP
0000
0300
7FFC
66CC
6CCC
1AF8
0300
3FE0
0660
0660
0C60
186C
703C
0000
ENDCHAR

STARTCHAR jisx0208_3567
ENCODING 13671
SWIDTH 960 0
DWIDTH 14 0
BBX 14 14 0 -2
BITMAP
0000
0300
7FFC
66CC
3CF8
3EFC
330C
3EFC
32C0
7EFC
070C
1B0C
7778
0000
ENDCHAR

STARTCHAR jisx0208_3568
ENCODING 13672
SWIDTH 960 0
DWIDTH 14 0
BBX 14 14 0 -2
BITMAP
0000
18C0
3EFC
6DB0
0618
3FE0
0C60
0CF8
0E18
1B30
19E0
3370
6E1C
0000
ENDCHAR

STARTCHAR jisx0208_3569
ENCODING 13673
SWIDTH 960 0
DWIDTH 14 0
BBX 14 14 0 -2
BITMAP
0000
1BF8
3198
6D98
39B0
19BC
35CC
7DCC
1958
5558
55B0
5B58
1ACC
0000
ENDCHAR

STARTCHAR jisx0208_356A
ENCODING 13674
SWIDTH 960 0
DWIDTH 14 0
BBX 14 14 0 -2
BITMAP
0000
1818
3018
6CD8
38D8
18D8
36D8
7EDC
18F8
55D8
5618
5818
1818
0000
ENDCHAR

STARTCHAR jisx0208_356B
ENCODING 13675
SWIDTH 960 0
DWIDTH 14 0
BBX 14 14 0 -2
BITMAP
0000
1860
30B0
6D98
3B0C
19F8
3600
7E00
19F8
5598
5598
5998
19F8
0000
ENDCHAR

STARTCHAR jisx0208_356C
ENCODING 13676
SWIDTH 960 0
DWIDTH 14 0
BBX 14 14 0 -2
BITMAP
0000
0000
37F8
3618
3618
3618
3618
37F8
3618
3618
3618
3618
37F8
0000
ENDCHAR

STARTCHAR jisx0208_356D
ENCODING 13677
SWIDTH 960 0
DWIDTH 14 0
BBX 14 14 0 -2
BITMAP
0000
1B00
1B00
3FF8
3300
6300
0300
7FFC
0300
0300
0300
0300
0300
0000
ENDCHAR

STARTCHAR jisx0208_356E
ENCODING 13678
SWIDTH 960 0
DWIDTH 14 0
BBX 14 14 0 -2
BITMAP
0000
0300
0300
3FF8
0300
0300
0300
7FFC
0600
0C60
0C30
19D8
7F0C
0000
ENDCHAR

STARTCHAR jisx0208_356F
ENCODING 13679
SWIDTH 960 0
DWIDTH 14 0
BBX 14 14 0 -2
BITMAP
0000
1FF8
1818
1818
1FF8
18C0
18C0
1FFC
18C0
17F8
3618
3618
67F8
0000
ENDCHAR

STARTCHAR jisx0208_3570
ENCODING 13680
SWIDTH 960 0
DWIDTH 14 0
BBX 14 14 0 -2
BITMAP
0000
0000
3FF8
3000
3000
3FF0
3030
3030
3FF0
3000
3000
3000
3FF8
0000
ENDCHAR

STARTCHAR jisx0208_3571
ENCODING 13681
SWIDTH 960 0
DWIDTH 14 0
BBX 14 14 0 -2
BITMAP
0000
1800
1BFC
7B00
1B00
1BF8
1B18
7B18
1BF8
1B00
1B00
1B00
3BFC
0000
ENDCHAR

STARTCHAR jisx0208_3572
ENCODING 13682
SWIDTH 960 0
DWIDTH 14 0
BBX 14 14 0 -2
BITMAP
0000
3600
36F0
36B0
7AB0
2AB0
32B0
3AB0
6AB0
2AAC
37BC
3700
6DFC
0000
ENDCHAR

STARTCHAR jisx0208_3573
ENCODING 13683
SWIDTH 960 0
DWIDTH 14 0
BBX 14 14 0 -2
BITMAP
0000
3630
1B60
7FFC
0C60
19B0
6F1C
0300
3FF8
0300
7FFC
0300
0700
0000
ENDCHAR

STARTCHAR jisx0208_3574
ENCODING 13684
SWIDTH 960 0
DWIDTH 14 0
BBX 14 14 0 -2
BITMAP
0000
37FC
1600
67F8
3618
07F8
1600
77FC
0300
7FFC
06C0
1B70
731C
0000
ENDCHAR

STARTCHAR jisx0208_3575
ENCODING 13685
SWIDTH 960 0
DWIDTH 14 0
BBX 14 14 0 -2
BITMAP
0000
0300
03F0
3FFC
330C
2FF8
3300
31F8
32C0
2AD8
36B0
62C0
5FFC
0000
ENDCHAR

STARTCHAR jisx0208_3576
ENCODING 13686
SWIDTH 960 0
DWIDTH 14 0
BBX 14 14 0 -2
BITMAP
0000
3D80
0180
7DFC
0360
7C60
0060
7BFC
0060
7C60
6C60
6C60
7C60
0000
ENDCHAR

STARTCHAR jisx0208_3577
ENCODING 13687
SWIDTH 960 0
DWIDTH 14 0
BBX 14 14 0 -2
BITMAP
0000
7DFC
6580
6580
6580
7DF8
1998
5998
5DF8
5980
5980
5D80
71FC
0000
ENDCHAR

STARTCHAR jisx0208_3578
ENCODING 13688
SWIDTH 960 0
DWIDTH 14 0
BBX 14 14 0 -2
BITMAP
0000
1DFC
358C
618C
7DFC
19B0
19FC
7DB0
19B0
55FC
55CC
1ACC
72FC
0000
ENDCHAR

STARTCHAR jisx0208_3579
ENCODING 13689
SWIDTH 960 0
DWIDTH 14 0
BBX 14 14 0 -2
BITMAP
0000
33E0
1660
00C0
67F8
36D8
07F8
06D8
16D8
17F8
3000
3558
6DAC
0000
ENDCHAR

STARTCHAR jisx0208_357A
ENCODING 13690
SWIDTH 960 0
DWIDTH 14 0
BBX 14 14 0 -2
BITMAP
0000
3600
577C
2B6C
776C
2B5C
2F60
0000
3FF8
0000
7FFC
3330
6718
0000
ENDCHAR

STARTCHAR jisx0208_357B
ENCODING 13691
SWIDTH 960 0
DWIDTH 14 0
BBX 14 14 0 -2
BITMAP
0000
0C00
0FC0
18C0
7FF0
3330
3FF0
3330
3330
3FF0
0000
36D8
666C
0000
ENDCHAR

STARTCHAR jisx0208_357C
ENCODING 13692
SWIDTH 960 0
DWIDTH 14 0
BBX 14 14 0 -2
BITMAP
0000
0300
7FFC
0C60
0FE0
0000
0000
3FF8
0070
03C0
0300
0300
0700
0000
ENDCHAR

STARTCHAR jisx0208_357D
ENCODING 13693
SWIDTH 960 0
DWIDTH 14 0
BBX 14 14 0 -2
BITMAP
0000
0300
7FFC
0C60
0FE0
0000
0000
1FF0
00E0
0380
7FFC
0300
0700
0000
ENDCHAR

STARTCHAR jisx0208_357E
ENCODING 13694
SWIDTH 960 0
DWIDTH 14 0
BBX 14 14 0 -2
BITMAP
0000
0300
7FFC
0000
1FF0
1830
1830
1FF0
0300
0300
1B30
3318
670C
0000
ENDCHAR

STARTCHAR jisx0208_3621
ENCODING 13857
SWIDTH 960 0
DWIDTH 14 0
BBX 14 14 0 -2
BITMAP
0000
1B60
1B60
3360
37F8
7360
3360
3360
2FFC
3000
3330
3618
2C0C
0000
ENDCHAR

STARTCHAR jisx0208_3622
ENCODING 13858
SWIDTH 960 0
DWIDTH 14 0
BBX 14 14 0 -2
BITMAP
0000
0CC0
0CC0
1BFC
18C0
3AD8
5AB0
17FC
18C0
1960
19B0
1B18
160C
0000
ENDCHAR

STARTCHAR jisx0208_3623
ENCODING 13859
SWIDTH 960 0
DWIDTH 14 0
BBX 14 14 0 -2
BITMAP
0000
1BF0
18C0
37FC
3160
7738
31F0
31B0
37FC
35AC
35AC
35EC
361C
0000
ENDCHAR

STARTCHAR jisx0208_3624
ENCODING 13860
SWIDTH 960 0
DWIDTH 14 0
BBX 14 14 0 -2
BITMAP
0000
3058
3658
32D8
3198
32D8
2E58
3018
3FF8
06C0
06C0
0CCC
787C
0000
ENDCHAR

STARTCHAR jisx0208_3625
ENCODING 13861
SWIDTH 960 0
DWIDTH 14 0
BBX 14 14 0 -2
BITMAP
0000
1860
7DF8
2CB0
7DF8
0000
7DF8
6598
7DF8
2CB0
2EB0
2DAC
633C
0000
ENDCHAR

STARTCHAR jisx0208_3626
ENCODING 13862
SWIDTH 960 0
DWIDTH 14 0
BBX 14 14 0 -2
BITMAP
0000
0CC0
0CC0
0CC0
3FF8
0CC0
0CC0
0CC0
7FFC
0000
0CE0
1830
7018
0000
ENDCHAR

STARTCHAR jisx0208_3627
ENCODING 13863
SWIDTH 960 0
DWIDTH 14 0
BBX 14 14 0 -2
BITMAP
0000
0060
606C
6CCC
66CC
638C
618C
62CC
666C
6C6C
580C
600C
7FFC
0000
ENDCHAR

STARTCHAR jisx0208_3628
ENCODING 13864
SWIDTH 960 0
DWIDTH 14 0
BBX 14 14 0 -2
BITMAP
0000
18C0
1BF8
18D8
7ED8
19B8
1800
1B30
17FC
1AAC
1AAC
16AC
15DC
0000
ENDCHAR

STARTCHAR jisx0208_3629
ENCODING 13865
SWIDTH 960 0
DWIDTH 14 0
BBX 14 14 0 -2
BITMAP
0000
0000
7FF8
6000
6FF0
6180
6180
6FF0
6180
6180
5FF8
6000
7FFC
0000
ENDCHAR

STARTCHAR jisx0208_362A
ENCODING 13866
SWIDTH 960 0
DWIDTH 14 0
BBX 14 14 0 -2
BITMAP
0000
17BC
76AC
66AC
57AC
56AC
56AC
57AC
562C
75AC
15BC
2EB0
6030
0000
ENDCHAR

STARTCHAR jisx0208_362B
ENCODING 13867
SWIDTH 960 0
DWIDTH 14 0
BBX 14 14 0 -2
BITMAP
0000
0030
7DB0
6DB0
6DB0
6DB0
6DB0
6DB0
7DBC
03F0
0030
0030
0030
0000
ENDCHAR

STARTCHAR jisx0208_362C
ENCODING 13868
SWIDTH 960 0
DWIDTH 14 0
BBX 14 14 0 -2
BITMAP
0000
0FE0
0300
3FF8
0EE0
36B8
07C0
0000
3FF8
36D8
36D8
37D8
3018
0000
ENDCHAR

STARTCHAR jisx0208_362D
ENCODING 13869
SWIDTH 960 0
DWIDTH 14 0
BBX 14 14 0 -2
BITMAP
0000
18C0
17FC
19B0
7DB0
17FC
1B18
1BF8
1B18
73F8
01B0
032C
0E3C
0000
ENDCHAR

STARTCHAR jisx0208_362E
ENCODING 13870
SWIDTH 960 0
DWIDTH 14 0
BBX 14 14 0 -2
BITMAP
0000
30C0
30C0
6BFC
6CC0
6AD8
6AB0
6BFC
6CE0
7DB0
01B0
0318
060C
0000
ENDCHAR

STARTCHAR jisx0208_362F
ENCODING 13871
SWIDTH 960 0
DWIDTH 14 0
BBX 14 14 0 -2
BITMAP
0000
7CC0
0CB0
0D98
7BFC
60C0
63F8
7AD8
0AD8
0BF8
0CD8
0CB8
37EC
0000
ENDCHAR

STARTCHAR jisx0208_3630
ENCODING 13872
SWIDTH 960 0
DWIDTH 14 0
BBX 14 14 0 -2
BITMAP
0000
7FFC
16D8
17F8
76D8
67F8
6000
7FFC
16D8
17F8
16D8
16D8
6FFC
0000
ENDCHAR

STARTCHAR jisx0208_3631
ENCODING 13873
SWIDTH 960 0
DWIDTH 14 0
BBX 14 14 0 -2
BITMAP
0000
18C0
18C0
1BF8
5CC0
58C0
58C0
17FC
18C0
1998
1998
1B3C
17EC
0000
ENDCHAR

STARTCHAR jisx0208_3632
ENCODING 13874
SWIDTH 960 0
DWIDTH 14 0
BBX 14 14 0 -2
BITMAP
0000
7DF0
19B0
19B0
1970
1DAC
733C
0000
0D80
2CD8
2C0C
6C30
07F0
0000
ENDCHAR

STARTCHAR jisx0208_3633
ENCODING 13875
SWIDTH 960 0
DWIDTH 14 0
BBX 14 14 0 -2
BITMAP
0000
06C0
3FF8
06C0
06C0
7FFC
0C60
1B30
731C
0300
1AD8
336C
0700
0000
ENDCHAR

STARTCHAR jisx0208_3634
ENCODING 13876
SWIDTH 960 0
DWIDTH 14 0
BBX 14 14 0 -2
BITMAP
0000
18C0
18C0
7BFC
18C0
1AD8
1AB0
77FC
18E0
19B0
19B0
1B18
360C
0000
ENDCHAR

STARTCHAR jisx0208_3635
ENCODING 13877
SWIDTH 960 0
DWIDTH 14 0
BBX 14 14 0 -2
BITMAP
0000
18C0
7EC0
15FC
7DD8
1AD8
3ED8
66D8
0C70
7F70
0C70
0CD8
1B8C
0000
ENDCHAR

STARTCHAR jisx0208_3636
ENCODING 13878
SWIDTH 960 0
DWIDTH 14 0
BBX 14 14 0 -2
BITMAP
0000
1BF0
18C0
7BFC
1960
1B3C
3DF0
39B0
57FC
55AC
15AC
15EC
160C
0000
ENDCHAR

STARTCHAR jisx0208_3637
ENCODING 13879
SWIDTH 960 0
DWIDTH 14 0
BBX 14 14 0 -2
BITMAP
0000
37F8
1618
0618
6618
3618
07F8
1960
1960
1B60
3360
366C
6C3C
0000
ENDCHAR

STARTCHAR jisx0208_3638
ENCODING 13880
SWIDTH 960 0
DWIDTH 14 0
BBX 14 14 0 -2
BITMAP
0000
6C00
3BFC
1860
2C60
6C60
0C60
1DF8
2C60
6C60
0C60
0C60
3BFC
0000
ENDCHAR

STARTCHAR jisx0208_3639
ENCODING 13881
SWIDTH 960 0
DWIDTH 14 0
BBX 14 14 0 -2
BITMAP
0000
6C60
3BFC
1860
2B6C
6D58
0C60
1BFC
2C60
6CB0
0CB0
0D98
3B0C
0000
ENDCHAR

STARTCHAR jisx0208_363A
ENCODING 13882
SWIDTH 960 0
DWIDTH 14 0
BBX 14 14 0 -2
BITMAP
0000
3018
31F0
3E60
5BFC
18B0
7FFC
18B0
1BFC
2AAC
32EC
630C
631C
0000
ENDCHAR

STARTCHAR jisx0208_363B
ENCODING 13883
SWIDTH 960 0
DWIDTH 14 0
BBX 14 14 0 -2
BITMAP
0000
3D80
2D80
2BFC
3E0C
2B2C
2B6C
3AAC
2B6C
2B2C
2BEC
6C0C
5C38
0000
ENDCHAR

STARTCHAR jisx0208_363C
ENCODING 13884
SWIDTH 960 0
DWIDTH 14 0
BBX 14 14 0 -2
BITMAP
0000
0300
3FF0
0330
1670
7EFC
1B6C
3FFC
5830
1FF0
1FF0
1830
1870
0000
ENDCHAR

STARTCHAR jisx0208_363D
ENCODING 13885
SWIDTH 960 0
DWIDTH 14 0
BBX 14 14 0 -2
BITMAP
0000
17B8
36D8
37D8
3EF8
37D8
3EF8
37D8
36D8
7FFC
0000
1C70
701C
0000
ENDCHAR

STARTCHAR jisx0208_363E
ENCODING 13886
SWIDTH 960 0
DWIDTH 14 0
BBX 14 14 0 -2
BITMAP
0000
0C60
7FFC
01C0
0F00
7FFC
16B0
77DC
0000
3FF8
36D8
37D8
3018
0000
ENDCHAR

STARTCHAR jisx0208_363F
ENCODING 13887
SWIDTH 960 0
DWIDTH 14 0
BBX 14 14 0 -2
BITMAP
0000
17BC
36AC
6FAC
36AC
16B8
37AC
562C
75AC
15AC
35B8
36B0
6030
0000
ENDCHAR

STARTCHAR jisx0208_3640
ENCODING 13888
SWIDTH 960 0
DWIDTH 14 0
BBX 14 14 0 -2
BITMAP
0000
1C60
35FC
60D8
7ED8
1BFC
1998
7DF8
1998
55F8
56B0
1CAC
73BC
0000
ENDCHAR

STARTCHAR jisx0208_3641
ENCODING 13889
SWIDTH 960 0
DWIDTH 14 0
BBX 14 14 0 -2
BITMAP
0000
377C
656C
3758
56EC
77DC
3360
7FFC
0CC0
7FFC
1FF0
1830
1FF0
0000
ENDCHAR

STARTCHAR jisx0208_3642
ENCODING 13890
SWIDTH 960 0
DWIDTH 14 0
BBX 14 14 0 -2
BITMAP
0000
377C
656C
3758
56EC
77DC
1B60
06C0
1B70
6FDC
0FE0
0C60
1FB8
0000
ENDCHAR

STARTCHAR jisx0208_3643
ENCODING 13891
SWIDTH 960 0
DWIDTH 14 0
BBX 14 14 0 -2
BITMAP
0000
3660
3F7C
55CC
1D78
02CC
1FF8
1980
1FF8
1980
1FFC
300C
6DB8
0000
ENDCHAR

STARTCHAR jisx0208_3644
ENCODING 13892
SWIDTH 960 0
DWIDTH 14 0
BBX 14 14 0 -2
BITMAP
0000
1980
1B7C
366C
366C
766C
366C
366C
366C
376C
2E5C
3060
3060
0000
ENDCHAR

STARTCHAR jisx0208_3645
ENCODING 13893
SWIDTH 960 0
DWIDTH 14 0
BBX 14 14 0 -2
BITMAP
0000
0CF8
6F18
2C70
0DB0
07FC
182C
1F30
36BC
2EB0
66B0
0AF0
199C
0000
ENDCHAR

STARTCHAR jisx0208_3646
ENCODING 13894
SWIDTH 960 0
DWIDTH 14 0
BBX 14 14 0 -2
BITMAP
0000
0300
3FF8
0300
0B60
7FFC
0C60
0C60
3FF8
06C0
06C0
0CCC
787C
0000
ENDCHAR

ENDFONT
